{"glyphs":{"0":{"ha":772,"x_min":29,"x_max":743,"o":"m 226 490 q 229 390 226 449 q 247 276 232 331 q 293 182 261 221 q 385 143 325 143 q 478 182 446 143 q 526 276 511 221 q 543 390 540 331 q 546 490 546 449 q 545 551 546 515 q 540 624 544 586 q 526 698 535 661 q 499 764 517 735 q 453 811 481 793 q 385 829 425 829 q 317 811 344 829 q 273 764 290 793 q 246 698 256 735 q 232 624 236 661 q 227 551 228 586 q 226 490 226 515 m 29 490 q 58 728 29 632 q 135 883 86 825 q 248 967 183 942 q 385 992 313 992 q 523 967 458 992 q 637 883 588 942 q 715 728 686 825 q 743 490 743 632 q 715 247 743 344 q 637 90 686 149 q 523 7 588 32 q 385 -18 458 -18 q 248 7 313 -18 q 135 90 183 32 q 58 247 86 149 q 29 490 29 344 "},"1":{"ha":772,"x_min":103,"x_max":544,"o":"m 544 0 l 347 0 l 347 631 l 103 631 l 103 779 q 202 787 154 778 q 288 819 250 796 q 353 879 326 842 q 388 972 379 917 l 544 972 l 544 0 "},"2":{"ha":772,"x_min":29,"x_max":743,"o":"m 51 599 q 71 753 49 682 q 138 878 93 825 q 249 962 182 932 q 404 992 317 992 q 531 971 471 992 q 638 911 592 950 q 710 815 683 872 q 738 688 738 758 q 714 561 738 614 q 651 467 690 508 q 563 393 613 426 q 464 327 514 360 q 367 257 414 294 q 283 169 319 219 l 743 169 l 743 0 l 29 0 q 53 147 29 85 q 119 259 78 210 q 217 350 161 308 q 336 435 274 392 q 404 480 368 457 q 470 531 440 503 q 520 593 500 558 q 540 672 540 628 q 499 783 540 743 q 394 822 458 822 q 322 802 351 822 q 274 749 292 782 q 248 677 256 717 q 240 599 240 638 l 51 599 "},"3":{"ha":772,"x_min":25,"x_max":747,"o":"m 317 579 q 385 579 349 576 q 452 595 421 582 q 503 633 483 608 q 524 700 524 658 q 482 796 524 763 q 386 829 440 829 q 273 780 311 829 q 236 656 235 731 l 49 656 q 76 792 51 731 q 144 899 100 854 q 249 967 188 943 q 385 992 310 992 q 501 974 443 992 q 606 922 560 957 q 682 838 653 888 q 711 722 711 788 q 677 597 711 651 q 575 524 643 543 l 575 521 q 701 443 656 503 q 747 300 747 383 q 717 164 747 224 q 638 64 688 104 q 522 3 588 24 q 386 -18 457 -18 q 237 6 304 -18 q 122 74 169 29 q 49 185 75 119 q 25 335 24 250 l 213 335 q 225 260 214 296 q 257 199 236 225 q 309 158 278 174 q 383 143 340 143 q 496 184 450 143 q 542 296 542 225 q 520 381 542 351 q 465 423 499 410 q 392 438 432 436 q 317 440 353 440 l 317 579 "},"4":{"ha":772,"x_min":22,"x_max":750,"o":"m 433 725 l 429 725 l 178 388 l 433 388 l 433 725 m 433 225 l 22 225 l 22 406 l 444 972 l 621 972 l 621 388 l 750 388 l 750 225 l 621 225 l 621 0 l 433 0 l 433 225 "},"5":{"ha":772,"x_min":25,"x_max":747,"o":"m 694 810 l 293 810 l 254 589 l 257 586 q 343 644 297 626 q 447 661 389 661 q 575 635 519 661 q 669 564 631 608 q 727 459 707 519 q 747 331 747 399 q 718 191 747 256 q 640 79 689 126 q 525 6 590 32 q 386 -18 460 -19 q 251 1 315 -18 q 136 58 186 19 q 56 155 86 97 q 25 289 26 213 l 222 289 q 272 183 229 222 q 382 143 315 143 q 452 159 421 143 q 505 201 483 175 q 538 260 526 226 q 550 331 550 294 q 539 401 550 368 q 506 460 528 435 q 453 499 483 485 q 382 513 422 513 q 296 494 329 513 q 233 435 263 475 l 56 435 l 151 972 l 694 972 l 694 810 "},"6":{"ha":772,"x_min":29,"x_max":743,"o":"m 397 504 q 328 490 358 504 q 279 450 299 475 q 250 392 260 425 q 240 324 240 360 q 251 258 240 290 q 281 199 261 225 q 331 158 301 174 q 397 143 360 143 q 460 158 433 143 q 507 199 488 174 q 536 256 526 224 q 546 321 546 288 q 537 388 546 356 q 510 447 528 421 q 463 488 492 472 q 397 504 435 504 m 539 722 q 494 807 529 771 q 408 843 460 843 q 320 812 356 843 q 264 735 285 781 q 233 639 243 690 q 222 547 224 588 l 225 544 q 319 628 265 603 q 444 653 374 653 q 567 626 507 653 q 668 553 626 599 q 725 451 707 508 q 743 336 743 394 q 719 197 743 261 q 649 84 694 132 q 542 9 604 36 q 403 -18 479 -18 q 221 26 293 -18 q 106 140 149 69 q 46 301 63 211 q 29 483 29 390 q 50 664 29 574 q 117 827 71 754 q 235 946 163 900 q 411 992 307 992 q 528 974 474 992 q 624 922 582 956 q 692 838 665 888 q 726 722 718 788 l 539 722 "},"7":{"ha":772,"x_min":54,"x_max":718,"o":"m 718 803 q 583 639 642 736 q 484 432 524 542 q 423 210 444 322 q 400 0 401 97 l 189 0 q 291 419 206 218 q 515 789 376 621 l 54 789 l 54 972 l 718 972 l 718 803 "},"8":{"ha":772,"x_min":19,"x_max":753,"o":"m 239 708 q 283 613 239 646 q 388 581 328 581 q 492 613 450 581 q 533 708 533 646 q 528 751 533 728 q 506 794 522 774 q 462 829 490 815 q 388 843 433 843 q 331 834 358 843 q 283 808 304 825 q 251 767 263 792 q 239 708 239 742 m 60 726 q 89 842 60 792 q 165 925 118 892 q 269 975 211 958 q 388 992 328 992 q 540 964 478 992 q 641 897 603 936 q 696 812 679 857 q 713 731 713 767 q 677 604 713 658 q 571 526 642 550 l 571 524 q 706 441 658 504 q 753 286 753 378 q 722 151 753 208 q 639 57 690 94 q 522 1 588 19 q 389 -18 457 -18 q 252 -1 318 -18 q 134 54 186 17 q 51 149 82 92 q 19 285 19 206 q 67 440 19 378 q 203 524 115 503 l 203 526 q 96 600 132 546 q 60 726 60 654 m 217 294 q 231 226 217 257 q 267 174 244 196 q 322 141 290 153 q 389 129 354 129 q 455 141 425 129 q 508 174 485 153 q 543 226 531 196 q 556 293 556 257 q 542 356 556 328 q 506 406 529 385 q 453 438 483 426 q 389 449 424 449 q 267 409 317 449 q 217 294 217 369 "},"9":{"ha":772,"x_min":29,"x_max":743,"o":"m 375 468 q 444 483 415 468 q 493 522 474 497 q 522 580 513 547 q 532 649 532 613 q 522 715 532 682 q 491 773 511 747 q 442 814 471 799 q 375 829 413 829 q 313 814 340 829 q 265 774 285 799 q 236 717 246 749 q 226 651 226 685 q 235 584 226 617 q 263 526 244 551 q 309 484 281 500 q 375 468 338 468 m 233 250 q 278 165 243 201 q 364 129 313 129 q 453 160 418 129 q 508 237 488 192 q 538 333 529 282 q 550 425 547 385 l 547 428 q 453 344 507 369 q 328 319 399 319 q 206 347 265 319 q 104 419 146 374 q 47 521 65 464 q 29 636 29 578 q 53 776 29 711 q 123 888 78 840 q 231 964 168 936 q 369 992 293 992 q 552 948 481 992 q 667 833 624 904 q 726 671 710 761 q 743 489 743 581 q 722 308 743 399 q 656 145 701 218 q 538 27 610 72 q 361 -18 465 -18 q 244 -1 299 -18 q 149 51 190 17 q 81 136 107 86 q 46 250 54 186 l 233 250 "},"\b":{"ha":0,"x_min":0,"x_max":0,"o":""},"\t":{"ha":386,"x_min":0,"x_max":0,"o":""},"\r":{"ha":386,"x_min":0,"x_max":0,"o":""},"\u001d":{"ha":0,"x_min":0,"x_max":0,"o":""}," ":{"ha":386,"x_min":0,"x_max":0,"o":""},"!":{"ha":386,"x_min":85,"x_max":303,"o":"m 85 214 l 303 214 l 303 0 l 85 0 l 85 214 m 296 725 l 242 297 l 143 297 l 90 725 l 90 992 l 296 992 l 296 725 "},"\"":{"ha":643,"x_min":118,"x_max":525,"o":"m 118 992 l 267 992 l 267 546 l 118 546 l 118 992 m 376 992 l 525 992 l 525 546 l 376 546 l 376 992 "},"#":{"ha":772,"x_min":46,"x_max":726,"o":"m 338 572 l 313 400 l 447 400 l 471 572 l 338 572 m 161 275 l 46 275 l 46 400 l 178 400 l 203 572 l 88 572 l 88 697 l 219 697 l 258 972 l 393 972 l 354 697 l 489 697 l 526 972 l 661 972 l 624 697 l 726 697 l 726 572 l 606 572 l 582 400 l 685 400 l 685 275 l 564 275 l 526 0 l 392 0 l 429 275 l 296 275 l 257 0 l 122 0 l 161 275 "},"$":{"ha":772,"x_min":0,"x_max":774,"o":"m 196 322 q 238 197 194 243 q 344 139 281 151 l 344 429 q 326 435 338 432 q 300 442 314 439 q 199 474 249 456 q 109 524 149 493 q 46 602 69 556 q 22 718 22 649 q 49 843 22 789 q 121 934 76 897 q 224 991 165 971 q 344 1015 282 1011 l 344 1122 l 426 1122 l 426 1015 q 544 988 489 1008 q 640 933 599 968 q 708 844 682 897 q 739 719 735 792 l 542 719 q 507 814 540 775 q 426 853 474 853 l 426 607 q 460 599 443 603 q 497 589 478 594 q 656 520 600 561 q 738 435 711 479 q 769 346 764 390 q 774 267 774 301 q 758 190 774 236 q 703 99 743 143 q 597 19 664 54 q 426 -22 531 -15 l 426 -140 l 344 -140 l 344 -22 q 101 74 189 -11 q 0 322 14 158 l 196 322 m 426 139 q 478 151 451 142 q 527 176 506 160 q 563 217 549 193 q 576 275 576 242 q 542 356 576 329 q 426 406 508 383 l 426 139 m 344 853 q 299 846 321 853 q 258 824 276 839 q 230 788 240 810 q 219 738 219 767 q 249 667 219 692 q 344 626 278 642 l 344 853 "},"%":{"ha":1389,"x_min":104,"x_max":1285,"o":"m 963 253 q 964 201 963 231 q 974 147 965 172 q 1000 103 982 121 q 1051 85 1018 85 q 1102 103 1083 85 q 1130 147 1121 121 q 1141 201 1139 172 q 1143 251 1143 229 q 1141 301 1143 272 q 1131 355 1139 329 q 1105 399 1122 381 q 1057 418 1088 418 q 1005 401 1024 418 q 976 360 986 385 q 965 306 967 335 q 963 253 963 276 m 821 254 q 835 360 821 311 q 878 444 849 408 q 951 501 907 481 q 1057 522 996 522 q 1165 501 1122 522 q 1235 442 1208 479 q 1274 356 1263 406 q 1285 249 1285 306 q 1271 143 1285 192 q 1228 58 1257 94 q 1156 2 1200 22 q 1050 -18 1111 -18 q 942 3 986 -18 q 872 60 899 24 q 833 147 844 97 q 821 254 821 197 m 928 1003 l 1046 1003 l 474 -29 l 353 -29 l 928 1003 m 246 714 q 247 664 246 692 q 257 612 249 636 q 283 571 265 588 q 335 554 301 554 q 385 571 367 554 q 413 612 404 588 q 424 663 422 636 q 426 713 426 690 q 424 763 426 733 q 414 821 422 793 q 388 868 406 849 q 340 888 371 888 q 288 869 307 888 q 260 825 269 851 q 248 768 250 799 q 246 714 246 738 m 104 717 q 118 824 104 774 q 161 911 132 874 q 235 970 190 949 q 340 992 279 992 q 449 969 406 992 q 519 909 492 947 q 557 819 546 871 q 568 711 568 768 q 554 606 568 654 q 512 524 540 558 q 439 469 483 489 q 333 450 394 450 q 226 470 269 450 q 155 526 182 490 q 116 610 128 561 q 104 717 104 660 "},"&":{"ha":951,"x_min":44,"x_max":967,"o":"m 644 99 q 517 11 585 40 q 365 -18 450 -18 q 240 1 299 -18 q 138 59 181 21 q 69 152 94 97 q 44 278 44 207 q 63 374 44 331 q 112 453 81 418 q 183 517 143 489 q 267 565 224 544 q 199 663 226 614 q 172 776 172 711 q 194 869 172 828 q 251 941 215 911 q 334 987 288 971 q 431 1003 381 1003 q 537 988 488 1003 q 623 942 586 972 q 681 868 660 913 q 703 765 703 824 q 652 618 703 678 q 526 518 601 558 l 654 361 q 678 419 669 389 q 690 479 686 449 l 861 479 q 831 350 854 413 q 765 235 807 288 l 967 0 l 725 0 l 644 99 m 371 438 q 319 411 344 426 q 275 375 294 396 q 244 329 256 354 q 232 274 232 304 q 244 223 232 247 q 275 181 256 199 q 320 153 294 164 q 374 143 346 143 q 466 167 426 143 q 540 231 506 192 l 371 438 m 531 776 q 503 843 531 815 q 440 871 476 871 q 378 847 404 871 q 351 783 351 822 q 376 703 351 736 q 429 635 401 669 q 501 692 471 661 q 531 776 531 722 "},"'":{"ha":386,"x_min":119,"x_max":268,"o":"m 119 992 l 268 992 l 268 546 l 119 546 l 119 992 "},"(":{"ha":411,"x_min":72,"x_max":421,"o":"m 421 1015 q 306 709 342 868 q 269 386 269 550 q 305 60 269 219 q 419 -251 340 -100 l 256 -251 q 120 50 168 -108 q 72 372 72 208 q 84 535 72 450 q 119 706 96 621 q 176 869 142 790 q 256 1015 210 949 l 421 1015 "},")":{"ha":411,"x_min":-8,"x_max":339,"o":"m -8 -251 q 105 53 68 -104 q 142 375 142 211 q 106 703 142 542 q -7 1015 69 864 l 156 1015 q 291 713 243 872 q 339 389 339 553 q 328 226 339 311 q 294 56 317 140 q 236 -107 271 -28 q 156 -251 201 -186 l -8 -251 "},"*":{"ha":565,"x_min":31,"x_max":535,"o":"m 336 818 l 497 879 l 535 772 l 371 718 l 474 582 l 382 514 l 279 657 l 182 514 l 89 582 l 192 718 l 31 772 l 68 879 l 225 818 l 225 992 l 336 992 l 336 818 "},"+":{"ha":833,"x_min":67,"x_max":768,"o":"m 492 425 l 768 425 l 768 276 l 492 276 l 492 0 l 343 0 l 343 276 l 67 276 l 67 425 l 343 425 l 343 701 l 492 701 l 492 425 "},",":{"ha":386,"x_min":85,"x_max":303,"o":"m 85 214 l 303 214 l 303 0 q 285 -87 303 -47 q 239 -156 268 -126 q 170 -203 210 -185 q 86 -229 131 -222 l 86 -129 q 126 -112 107 -125 q 158 -83 144 -100 q 179 -44 172 -65 q 185 0 186 -22 l 85 0 l 85 214 "},"-":{"ha":565,"x_min":74,"x_max":492,"o":"m 74 464 l 492 464 l 492 294 l 74 294 l 74 464 "},".":{"ha":386,"x_min":83,"x_max":301,"o":"m 83 214 l 301 214 l 301 0 l 83 0 l 83 214 "},"/":{"ha":515,"x_min":-14,"x_max":531,"o":"m 372 1015 l 531 1015 l 143 -22 l -14 -22 l 372 1015 "},":":{"ha":386,"x_min":85,"x_max":303,"o":"m 303 492 l 85 492 l 85 706 l 303 706 l 303 492 m 85 214 l 303 214 l 303 0 l 85 0 l 85 214 "},";":{"ha":386,"x_min":85,"x_max":303,"o":"m 303 492 l 85 492 l 85 706 l 303 706 l 303 492 m 85 214 l 303 214 l 303 0 q 285 -87 303 -47 q 239 -156 268 -126 q 170 -203 210 -185 q 86 -229 131 -222 l 86 -129 q 126 -112 107 -125 q 158 -83 144 -100 q 179 -44 172 -65 q 185 0 186 -22 l 85 0 l 85 214 "},"<":{"ha":833,"x_min":64,"x_max":769,"o":"m 769 554 l 260 351 l 769 149 l 769 -10 l 64 269 l 64 433 l 769 714 l 769 554 "},"=":{"ha":833,"x_min":67,"x_max":768,"o":"m 768 128 l 67 128 l 67 276 l 768 276 l 768 128 m 768 425 l 67 425 l 67 574 l 768 574 l 768 425 "},">":{"ha":833,"x_min":64,"x_max":769,"o":"m 64 149 l 574 351 l 64 554 l 64 714 l 769 433 l 769 269 l 64 -10 l 64 149 "},"?":{"ha":772,"x_min":44,"x_max":728,"o":"m 268 214 l 486 214 l 486 0 l 268 0 l 268 214 m 44 672 q 70 810 46 747 q 138 918 94 872 q 244 990 182 964 q 382 1015 306 1015 q 547 988 481 1015 q 653 921 613 961 q 710 834 693 881 q 728 747 728 788 q 710 638 728 681 q 667 564 693 594 q 610 512 642 533 q 551 469 579 490 q 502 419 524 447 q 475 350 481 392 l 475 297 l 288 297 l 288 360 q 310 460 292 419 q 354 528 329 500 q 407 578 379 557 q 458 619 435 599 q 497 665 482 640 q 510 728 511 690 q 478 822 510 792 q 392 853 447 853 q 327 838 354 853 q 283 799 300 824 q 257 742 265 775 q 249 672 249 710 l 44 672 "},"@":{"ha":1111,"x_min":50,"x_max":1061,"o":"m 776 399 q 769 369 772 385 q 765 339 765 353 q 771 316 765 325 q 789 307 776 307 q 848 326 818 307 q 901 378 878 344 q 938 460 924 413 q 953 563 953 507 q 924 709 953 646 q 844 816 894 772 q 724 882 793 860 q 576 904 656 904 q 415 873 488 904 q 290 787 342 842 q 211 656 239 732 q 183 493 183 581 q 214 327 183 401 q 299 199 244 253 q 428 117 353 146 q 593 88 504 88 q 759 117 681 88 q 892 201 838 147 l 1008 201 q 826 35 938 93 q 585 -22 715 -22 q 376 17 474 -22 q 206 125 279 56 q 92 290 133 194 q 50 496 50 385 q 92 701 50 606 q 206 865 133 796 q 374 975 278 935 q 578 1015 469 1015 q 760 985 672 1015 q 914 899 847 954 q 1021 766 981 844 q 1061 592 1061 688 q 1023 408 1061 485 q 931 283 985 332 q 823 212 878 235 q 735 189 768 189 q 663 211 690 189 q 633 268 636 233 l 631 268 q 565 207 606 226 q 481 188 525 188 q 397 206 436 188 q 327 258 357 225 q 280 333 297 290 q 263 425 263 376 q 284 554 263 490 q 345 668 306 618 q 441 749 385 718 q 565 779 497 779 q 657 758 610 779 q 728 682 704 736 l 750 757 l 864 757 l 776 399 m 404 443 q 434 353 404 388 q 513 319 464 319 q 581 339 550 319 q 635 388 613 358 q 671 456 658 418 q 683 529 683 493 q 652 614 683 581 q 576 647 621 647 q 507 628 539 647 q 452 580 475 610 q 417 514 429 550 q 404 443 404 478 "},"A":{"ha":951,"x_min":-8,"x_max":961,"o":"m 346 383 l 603 383 l 478 747 l 475 747 l 346 383 m 367 992 l 590 992 l 961 0 l 735 0 l 660 221 l 289 221 l 211 0 l -8 0 l 367 992 "},"B":{"ha":978,"x_min":96,"x_max":926,"o":"m 314 590 l 535 590 q 631 618 593 590 q 668 708 668 646 q 656 765 668 743 q 622 800 643 788 q 574 817 601 813 q 518 822 547 822 l 314 822 l 314 590 m 96 992 l 563 992 q 692 979 633 992 q 792 938 750 967 q 856 863 833 910 q 879 746 879 815 q 845 621 879 671 q 744 539 811 571 q 881 447 836 513 q 926 288 926 381 q 897 158 926 213 q 819 68 868 103 q 706 17 769 33 q 576 0 643 0 l 96 0 l 96 992 m 314 169 l 547 169 q 608 176 579 169 q 660 197 638 182 q 695 236 682 211 q 708 300 708 261 q 665 409 708 376 q 551 442 622 442 l 314 442 l 314 169 "},"C":{"ha":1029,"x_min":53,"x_max":976,"o":"m 757 658 q 732 727 751 696 q 683 782 713 758 q 617 819 654 806 q 540 832 581 832 q 415 803 467 832 q 332 727 364 775 q 285 618 300 679 q 271 492 271 557 q 285 370 271 429 q 332 264 300 311 q 415 188 364 217 q 540 160 467 160 q 697 221 640 160 q 765 382 753 282 l 976 382 q 933 214 968 289 q 842 86 899 139 q 708 6 785 33 q 540 -22 632 -22 q 335 17 426 -22 q 182 126 244 57 q 86 290 119 196 q 53 492 53 383 q 86 698 53 603 q 182 864 119 793 q 335 975 244 935 q 540 1015 426 1015 q 695 992 622 1015 q 826 923 768 968 q 921 811 883 878 q 968 658 958 744 l 757 658 "},"D":{"ha":1029,"x_min":96,"x_max":974,"o":"m 314 183 l 508 183 q 600 199 556 183 q 679 249 644 214 q 735 342 714 285 q 756 481 756 399 q 741 616 756 556 q 693 719 726 676 q 605 785 660 763 q 469 808 550 808 l 314 808 l 314 183 m 96 992 l 524 992 q 702 961 619 992 q 845 869 785 931 q 940 717 906 808 q 974 501 974 625 q 946 301 974 393 q 862 143 918 210 q 722 38 806 76 q 524 0 638 0 l 96 0 l 96 992 "},"E":{"ha":900,"x_min":96,"x_max":849,"o":"m 96 992 l 838 992 l 838 808 l 314 808 l 314 596 l 794 596 l 794 426 l 314 426 l 314 183 l 849 183 l 849 0 l 96 0 l 96 992 "},"F":{"ha":824,"x_min":96,"x_max":793,"o":"m 96 992 l 793 992 l 793 808 l 314 808 l 314 579 l 729 579 l 729 410 l 314 410 l 314 0 l 96 0 l 96 992 "},"G":{"ha":1054,"x_min":53,"x_max":974,"o":"m 813 113 q 683 8 754 38 q 540 -22 613 -22 q 335 17 426 -22 q 182 126 244 57 q 86 290 119 196 q 53 492 53 383 q 86 698 53 603 q 182 864 119 793 q 335 975 244 935 q 540 1015 426 1015 q 688 992 617 1015 q 817 925 760 969 q 913 815 875 881 q 958 665 950 750 l 750 665 q 675 790 731 749 q 540 832 619 832 q 415 803 467 832 q 332 727 364 775 q 285 618 300 679 q 271 492 271 557 q 285 370 271 429 q 332 264 300 311 q 415 188 364 217 q 540 160 467 160 q 708 215 649 160 q 776 374 767 269 l 557 374 l 557 536 l 974 536 l 974 0 l 835 0 l 813 113 "},"H":{"ha":1029,"x_min":96,"x_max":933,"o":"m 96 992 l 314 992 l 314 611 l 715 611 l 715 992 l 933 992 l 933 0 l 715 0 l 715 428 l 314 428 l 314 0 l 96 0 l 96 992 "},"I":{"ha":410,"x_min":96,"x_max":314,"o":"m 96 992 l 314 992 l 314 0 l 96 0 l 96 992 "},"J":{"ha":772,"x_min":19,"x_max":676,"o":"m 676 313 q 667 206 676 264 q 622 97 657 147 q 522 12 588 46 q 346 -22 457 -22 q 225 -5 283 -22 q 121 49 167 13 q 47 144 75 86 q 19 283 19 201 l 19 369 l 217 369 l 217 325 q 222 258 217 289 q 242 206 228 228 q 280 172 256 185 q 343 160 304 160 q 410 175 386 160 q 444 215 433 190 q 456 267 454 239 q 458 322 458 296 l 458 992 l 676 992 l 676 313 "},"K":{"ha":1003,"x_min":96,"x_max":1011,"o":"m 96 992 l 314 992 l 314 581 l 701 992 l 974 992 l 586 600 l 1011 0 l 738 0 l 439 446 l 314 319 l 314 0 l 96 0 l 96 992 "},"L":{"ha":824,"x_min":96,"x_max":797,"o":"m 96 992 l 314 992 l 314 183 l 797 183 l 797 0 l 96 0 l 96 992 "},"M":{"ha":1260,"x_min":96,"x_max":1164,"o":"m 96 992 l 403 992 l 635 310 l 638 310 l 857 992 l 1164 992 l 1164 0 l 960 0 l 960 703 l 957 703 l 714 0 l 546 0 l 303 696 l 300 696 l 300 0 l 96 0 l 96 992 "},"N":{"ha":1029,"x_min":96,"x_max":933,"o":"m 96 992 l 313 992 l 726 326 l 729 326 l 729 992 l 933 992 l 933 0 l 715 0 l 303 664 l 300 664 l 300 0 l 96 0 l 96 992 "},"O":{"ha":1081,"x_min":53,"x_max":1028,"o":"m 271 492 q 285 370 271 429 q 332 264 300 311 q 415 188 364 217 q 540 160 467 160 q 665 188 614 160 q 749 264 717 217 q 795 370 781 311 q 810 492 810 429 q 795 618 810 557 q 749 727 781 679 q 665 803 717 775 q 540 832 614 832 q 415 803 467 832 q 332 727 364 775 q 285 618 300 679 q 271 492 271 557 m 53 492 q 86 698 53 603 q 182 864 119 793 q 335 975 244 935 q 540 1015 426 1015 q 746 975 656 1015 q 899 864 836 935 q 994 698 961 793 q 1028 492 1028 603 q 994 290 1028 383 q 899 126 961 196 q 746 17 836 57 q 540 -22 656 -22 q 335 17 426 -22 q 182 126 244 57 q 86 290 119 196 q 53 492 53 383 "},"P":{"ha":926,"x_min":96,"x_max":886,"o":"m 314 525 l 483 525 q 556 531 521 525 q 617 552 590 536 q 659 597 643 568 q 675 674 675 626 q 659 750 675 721 q 617 795 643 779 q 556 817 590 811 q 483 822 521 822 l 314 822 l 314 525 m 96 992 l 543 992 q 701 965 636 992 q 808 893 767 938 q 867 792 849 849 q 886 674 886 735 q 867 556 886 614 q 808 454 849 499 q 701 383 767 410 q 543 356 636 356 l 314 356 l 314 0 l 96 0 l 96 992 "},"Q":{"ha":1081,"x_min":53,"x_max":1028,"o":"m 636 367 l 749 264 q 793 357 776 301 q 810 492 810 413 q 795 618 810 557 q 749 727 781 679 q 665 803 717 775 q 540 832 614 832 q 415 803 467 832 q 332 727 364 775 q 285 618 300 679 q 271 492 271 557 q 285 370 271 429 q 332 264 300 311 q 415 188 364 217 q 540 160 467 160 q 590 161 564 160 q 628 174 617 163 l 535 258 l 636 367 m 921 -92 l 781 35 q 540 -22 682 -22 q 335 17 426 -22 q 182 126 244 57 q 86 290 119 196 q 53 492 53 383 q 86 698 53 603 q 182 864 119 793 q 335 975 244 935 q 540 1015 426 1015 q 746 975 656 1015 q 899 864 836 935 q 994 698 961 793 q 1028 492 1028 603 q 994 290 1028 383 q 899 126 961 197 l 1022 14 l 921 -92 "},"R":{"ha":1003,"x_min":96,"x_max":950,"o":"m 314 543 l 553 543 q 665 576 628 543 q 703 685 703 610 q 665 790 703 757 q 553 822 628 822 l 314 822 l 314 543 m 96 992 l 631 992 q 751 970 697 992 q 842 911 804 949 q 901 824 881 874 q 921 718 921 775 q 884 567 921 631 q 764 469 847 503 l 764 467 q 831 433 804 456 q 874 378 857 410 q 898 310 890 347 q 908 235 906 272 q 911 179 910 211 q 916 114 913 147 q 927 51 919 81 q 950 0 935 21 l 732 0 q 710 113 714 47 q 697 238 706 178 q 650 351 686 315 q 532 388 614 388 l 314 388 l 314 0 l 96 0 l 96 992 "},"S":{"ha":901,"x_min":33,"x_max":868,"o":"m 244 329 q 263 244 244 279 q 310 188 281 210 q 381 156 340 167 q 464 146 421 146 q 526 151 493 146 q 589 169 560 156 q 638 208 618 183 q 657 269 657 232 q 631 335 657 310 q 564 376 606 360 q 469 406 522 393 q 363 433 417 418 q 254 467 307 447 q 160 519 201 488 q 92 599 118 551 q 67 715 67 647 q 99 848 67 792 q 185 942 132 904 q 304 997 238 979 q 438 1015 371 1015 q 587 998 515 1015 q 714 942 658 981 q 802 842 769 903 q 835 696 835 782 l 624 696 q 605 769 621 740 q 563 815 589 799 q 502 839 536 832 q 428 846 468 846 q 375 840 401 846 q 327 821 349 835 q 292 786 306 807 q 278 733 278 765 q 289 686 278 704 q 333 653 300 668 q 423 622 365 638 q 574 583 481 607 q 651 563 601 578 q 749 517 700 549 q 833 431 797 485 q 868 294 868 378 q 842 168 868 226 q 763 67 815 110 q 634 1 711 25 q 456 -22 557 -22 q 297 -2 374 -22 q 160 61 219 18 q 67 171 101 104 q 33 329 32 238 l 244 329 "},"T":{"ha":849,"x_min":18,"x_max":831,"o":"m 315 808 l 18 808 l 18 992 l 831 992 l 831 808 l 533 808 l 533 0 l 315 0 l 315 808 "},"U":{"ha":1029,"x_min":92,"x_max":938,"o":"m 938 375 q 825 76 938 174 q 514 -22 713 -22 q 202 75 313 -22 q 92 375 92 172 l 92 992 l 310 992 l 310 375 q 317 296 310 335 q 346 227 324 257 q 408 178 368 197 q 514 160 447 160 q 675 212 631 160 q 719 375 719 264 l 719 992 l 938 992 l 938 375 "},"V":{"ha":875,"x_min":-10,"x_max":886,"o":"m 557 0 l 311 0 l -10 992 l 214 992 l 435 294 l 438 294 l 661 992 l 886 992 l 557 0 "},"W":{"ha":1311,"x_min":4,"x_max":1307,"o":"m 1040 0 l 824 0 l 656 675 l 653 675 l 488 0 l 267 0 l 4 992 l 222 992 l 379 317 l 382 317 l 554 992 l 758 992 l 928 308 l 931 308 l 1093 992 l 1307 992 l 1040 0 "},"X":{"ha":926,"x_min":-7,"x_max":935,"o":"m 339 519 l 19 992 l 272 992 l 467 675 l 668 992 l 907 992 l 589 518 l 935 0 l 675 0 l 458 343 l 238 0 l -7 0 l 339 519 "},"Y":{"ha":926,"x_min":-11,"x_max":939,"o":"m 353 386 l -11 992 l 233 992 l 465 600 l 696 992 l 939 992 l 571 381 l 571 0 l 353 0 l 353 386 "},"Z":{"ha":900,"x_min":32,"x_max":868,"o":"m 32 172 l 564 808 l 74 808 l 74 992 l 854 992 l 854 819 l 322 183 l 868 183 l 868 0 l 32 0 l 32 172 "},"[":{"ha":463,"x_min":94,"x_max":461,"o":"m 94 1015 l 461 1015 l 461 860 l 292 860 l 292 -96 l 461 -96 l 461 -251 l 94 -251 l 94 1015 "},"\\":{"ha":515,"x_min":-14,"x_max":531,"o":"m 531 -22 l 372 -22 l -14 1015 l 143 1015 l 531 -22 "},"]":{"ha":463,"x_min":1,"x_max":368,"o":"m 368 -251 l 1 -251 l 1 -96 l 171 -96 l 171 860 l 1 860 l 1 1015 l 368 1015 l 368 -251 "},"^":{"ha":833,"x_min":85,"x_max":749,"o":"m 324 972 l 510 972 l 749 438 l 586 438 l 417 819 l 247 438 l 85 438 l 324 972 "},"_":{"ha":694,"x_min":0,"x_max":694,"o":"m 0 -103 l 694 -103 l 694 -172 l 0 -172 l 0 -103 "},"`":{"ha":360,"x_min":-65,"x_max":285,"o":"m 151 1004 l -65 1004 l 147 807 l 285 807 l 151 1004 "},"a":{"ha":797,"x_min":44,"x_max":744,"o":"m 67 497 q 101 613 71 567 q 179 686 132 658 q 285 726 226 714 q 404 738 344 738 q 514 730 458 738 q 615 700 569 722 q 690 638 661 678 q 719 533 719 599 l 719 160 q 725 67 719 111 q 744 0 731 22 l 544 0 q 535 34 539 17 q 531 69 532 51 q 419 1 483 21 q 289 -18 356 -18 q 193 -6 238 -18 q 115 33 149 7 q 63 100 82 60 q 44 196 44 140 q 66 297 44 257 q 122 360 88 336 q 199 395 156 383 q 288 414 243 407 q 375 425 332 421 q 451 438 418 429 q 504 462 485 446 q 522 508 524 478 q 512 559 522 540 q 484 588 501 578 q 444 602 467 599 q 394 606 421 606 q 303 581 336 606 q 264 497 269 556 l 67 497 m 522 351 q 491 334 510 340 q 451 324 472 328 q 406 317 429 319 q 358 310 382 314 q 315 299 336 306 q 277 280 293 292 q 251 250 261 268 q 242 204 242 232 q 251 160 242 178 q 278 131 261 142 q 317 117 294 121 q 363 113 339 113 q 453 132 421 113 q 500 178 485 151 q 519 233 515 206 q 522 278 522 261 l 522 351 "},"b":{"ha":849,"x_min":75,"x_max":799,"o":"m 601 358 q 592 446 601 404 q 561 519 582 488 q 509 570 540 551 q 433 589 478 589 q 358 570 390 589 q 306 519 326 551 q 275 446 285 488 q 265 358 265 404 q 275 272 265 314 q 306 199 285 231 q 358 148 326 167 q 433 129 390 129 q 509 148 478 129 q 561 199 540 167 q 592 272 582 231 q 601 358 601 314 m 75 992 l 272 992 l 272 631 l 275 631 q 373 712 311 686 q 501 738 435 738 q 608 715 556 738 q 703 647 661 693 q 772 530 746 601 q 799 360 799 458 q 772 190 799 261 q 703 72 746 118 q 608 4 661 26 q 501 -18 556 -18 q 360 7 422 -18 q 265 92 297 32 l 263 92 l 263 0 l 75 0 l 75 992 "},"c":{"ha":797,"x_min":53,"x_max":761,"o":"m 564 465 q 418 589 544 589 q 339 567 371 589 q 287 512 307 546 q 258 437 267 478 q 250 356 250 396 q 258 276 250 317 q 285 203 267 236 q 336 150 304 171 q 414 129 368 129 q 523 169 485 129 q 571 275 561 208 l 761 275 q 650 57 742 132 q 415 -18 558 -18 q 267 9 335 -18 q 153 85 200 36 q 79 201 106 133 q 53 349 53 268 q 77 503 53 432 q 149 627 101 575 q 264 708 196 679 q 419 738 332 738 q 542 721 483 738 q 648 670 601 704 q 724 585 694 636 q 757 465 753 535 l 564 465 "},"d":{"ha":849,"x_min":44,"x_max":775,"o":"m 585 361 q 576 447 585 406 q 548 519 568 488 q 496 569 528 550 q 415 589 464 589 q 333 569 367 589 q 280 518 300 550 q 251 445 260 486 q 242 360 242 404 q 251 276 242 318 q 283 202 261 235 q 337 149 304 169 q 415 129 369 129 q 497 149 464 129 q 549 201 529 168 q 576 275 568 233 q 585 361 585 317 m 588 92 l 585 92 q 494 8 550 33 q 367 -18 438 -18 q 225 13 286 -18 q 124 98 164 44 q 65 221 85 151 q 44 365 44 290 q 65 505 44 438 q 124 624 85 572 q 224 706 164 675 q 363 738 283 738 q 484 710 426 738 q 575 631 542 683 l 578 631 l 578 992 l 775 992 l 775 0 l 588 0 l 588 92 "},"e":{"ha":797,"x_min":40,"x_max":756,"o":"m 558 436 q 509 550 544 511 q 401 589 474 589 q 323 573 354 589 q 273 533 292 557 q 247 483 254 510 q 238 436 239 457 l 558 436 m 238 311 q 286 172 242 215 q 414 129 331 129 q 517 159 474 129 q 569 222 560 189 l 743 222 q 615 38 701 93 q 407 -18 529 -18 q 254 9 322 -18 q 139 86 186 36 q 66 206 92 136 q 40 358 40 275 q 67 508 40 439 q 142 628 93 578 q 258 708 190 679 q 407 738 325 738 q 567 702 499 738 q 678 607 635 667 q 742 471 722 547 q 756 311 761 394 l 238 311 "},"f":{"ha":463,"x_min":0,"x_max":463,"o":"m 118 586 l 0 586 l 0 718 l 118 718 l 118 774 q 178 931 118 869 q 358 992 238 992 q 411 990 385 992 q 463 986 438 988 l 463 839 q 390 843 428 843 q 333 824 350 843 q 315 761 315 806 l 315 718 l 451 718 l 451 586 l 315 586 l 315 0 l 118 0 l 118 586 "},"g":{"ha":849,"x_min":53,"x_max":765,"o":"m 410 169 q 483 186 451 169 q 536 231 515 203 q 567 294 557 258 q 578 368 578 329 q 569 452 578 413 q 542 522 561 492 q 490 571 522 553 q 410 589 458 589 q 338 572 368 589 q 288 527 308 556 q 259 462 268 499 q 250 385 250 425 q 258 308 250 346 q 284 239 265 269 q 333 189 303 208 q 410 169 364 169 m 765 46 q 753 -53 765 3 q 703 -156 742 -108 q 590 -237 664 -204 q 393 -271 517 -271 q 285 -258 340 -271 q 185 -217 231 -244 q 110 -145 140 -189 q 76 -40 81 -101 l 272 -40 q 326 -117 286 -96 q 419 -139 367 -139 q 541 -89 503 -139 q 578 38 579 -39 l 578 132 l 575 132 q 484 48 543 75 q 360 21 425 21 q 221 49 279 21 q 125 127 163 78 q 70 242 88 176 q 53 382 53 308 q 73 516 53 451 q 132 630 93 581 q 228 708 171 679 q 361 738 286 738 q 485 711 432 738 q 575 622 539 685 l 578 622 l 578 718 l 765 718 l 765 46 "},"h":{"ha":824,"x_min":75,"x_max":749,"o":"m 75 992 l 272 992 l 272 618 l 276 618 q 372 709 314 681 q 486 738 431 738 q 616 716 565 738 q 696 656 667 694 q 737 563 725 618 q 749 442 749 508 l 749 0 l 551 0 l 551 406 q 524 538 551 494 q 425 582 496 582 q 308 534 344 582 q 272 376 272 486 l 272 0 l 75 0 l 75 992 "},"i":{"ha":358,"x_min":81,"x_max":278,"o":"m 278 829 l 81 829 l 81 992 l 278 992 l 278 829 m 81 718 l 278 718 l 278 0 l 81 0 l 81 718 "},"j":{"ha":386,"x_min":-25,"x_max":290,"o":"m 290 829 l 93 829 l 93 992 l 290 992 l 290 829 m -25 -83 q 17 -89 -10 -89 q 70 -77 47 -89 q 93 -25 93 -65 l 93 718 l 290 718 l 290 -35 q 278 -131 290 -90 q 238 -198 267 -171 q 161 -238 210 -225 q 38 -251 113 -251 q -25 -246 3 -251 l -25 -83 "},"k":{"ha":797,"x_min":93,"x_max":803,"o":"m 93 992 l 290 992 l 290 460 l 539 718 l 772 718 l 501 454 l 803 0 l 564 0 l 367 321 l 290 247 l 290 0 l 93 0 l 93 992 "},"l":{"ha":358,"x_min":81,"x_max":278,"o":"m 81 992 l 278 992 l 278 0 l 81 0 l 81 992 "},"m":{"ha":1258,"x_min":81,"x_max":1178,"o":"m 81 718 l 267 718 l 267 621 l 269 621 q 363 707 308 676 q 489 738 418 738 q 613 711 557 738 q 699 618 669 685 q 785 701 731 665 q 915 738 840 738 q 1021 724 972 738 q 1104 679 1069 710 q 1158 599 1139 649 q 1178 481 1178 550 l 1178 0 l 981 0 l 981 407 q 978 475 981 443 q 963 531 975 507 q 926 568 950 554 q 860 582 901 582 q 792 566 818 582 q 752 524 767 550 q 733 466 738 499 q 728 400 728 433 l 728 0 l 531 0 l 531 403 q 529 466 531 435 q 517 524 528 497 q 483 566 507 550 q 411 582 458 582 q 374 576 397 582 q 330 552 351 569 q 293 502 308 535 q 278 417 278 469 l 278 0 l 81 0 l 81 718 "},"n":{"ha":824,"x_min":75,"x_max":749,"o":"m 75 718 l 263 718 l 263 618 l 267 618 q 364 709 304 681 q 486 738 424 738 q 616 716 565 738 q 696 656 667 694 q 737 563 725 618 q 749 442 749 508 l 749 0 l 551 0 l 551 406 q 524 538 551 494 q 425 582 496 582 q 308 534 344 582 q 272 376 272 486 l 272 0 l 75 0 l 75 718 "},"o":{"ha":849,"x_min":53,"x_max":796,"o":"m 250 358 q 258 274 250 315 q 287 201 267 233 q 340 149 307 168 q 424 129 374 129 q 508 149 474 129 q 562 201 542 168 q 590 274 582 233 q 599 358 599 315 q 590 443 599 401 q 562 517 582 485 q 508 569 542 549 q 424 589 474 589 q 340 569 374 589 q 287 517 307 549 q 258 443 267 485 q 250 358 250 401 m 53 358 q 79 515 53 444 q 154 634 106 585 q 271 710 203 683 q 424 738 339 738 q 577 710 508 738 q 694 634 646 683 q 769 515 743 585 q 796 358 796 444 q 769 203 796 272 q 694 84 743 133 q 577 8 646 35 q 424 -18 508 -18 q 271 8 339 -18 q 154 84 203 35 q 79 203 106 133 q 53 358 53 272 "},"p":{"ha":849,"x_min":75,"x_max":806,"o":"m 438 129 q 519 149 486 129 q 572 199 551 168 q 600 272 592 231 q 608 357 608 314 q 599 442 608 400 q 569 516 590 483 q 516 569 549 549 q 436 589 483 589 q 355 569 388 589 q 302 517 322 549 q 274 443 282 485 q 265 357 265 401 q 274 272 265 314 q 303 199 283 231 q 357 149 324 168 q 438 129 390 129 m 75 718 l 263 718 l 263 626 l 265 626 q 357 711 301 685 q 479 738 413 738 q 625 706 564 738 q 726 621 686 674 q 786 498 767 568 q 806 351 806 428 q 786 213 806 279 q 727 94 767 146 q 628 13 688 43 q 490 -18 569 -18 q 367 9 424 -18 q 275 89 311 36 l 272 89 l 272 -251 l 75 -251 l 75 718 "},"q":{"ha":849,"x_min":44,"x_max":775,"o":"m 242 358 q 250 274 242 315 q 278 201 258 233 q 331 149 299 168 q 413 129 364 129 q 494 148 461 129 q 547 198 526 167 q 576 270 567 229 q 585 356 585 311 q 576 439 585 397 q 547 514 567 481 q 495 568 528 547 q 417 589 463 589 q 335 569 368 589 q 281 517 301 550 q 251 444 260 485 q 242 358 242 403 m 775 -251 l 578 -251 l 578 90 l 575 90 q 478 7 540 32 q 349 -18 415 -18 q 245 1 299 -18 q 147 63 192 19 q 74 178 103 107 q 44 354 44 250 q 64 497 44 428 q 124 620 83 567 q 224 706 164 674 q 367 738 285 738 q 492 712 433 738 q 585 626 551 686 l 588 626 l 588 718 l 775 718 l 775 -251 "},"r":{"ha":540,"x_min":75,"x_max":538,"o":"m 75 718 l 263 718 l 263 585 l 265 585 q 303 647 279 618 q 357 695 326 675 q 422 726 388 715 q 494 738 457 738 q 538 731 514 738 l 538 547 q 504 552 524 550 q 467 554 485 554 q 375 536 413 554 q 315 487 338 518 q 282 414 292 456 q 272 324 272 372 l 272 0 l 75 0 l 75 718 "},"s":{"ha":746,"x_min":40,"x_max":706,"o":"m 228 233 q 241 178 228 201 q 275 141 254 156 q 323 119 296 126 q 379 113 350 113 q 423 117 400 113 q 465 133 446 122 q 496 160 483 143 q 508 204 508 178 q 449 271 508 249 q 285 315 390 293 q 201 338 242 325 q 128 373 160 351 q 76 427 96 394 q 57 507 57 460 q 84 621 57 576 q 156 691 111 665 q 256 727 200 717 q 369 738 311 738 q 483 726 428 738 q 581 689 538 715 q 652 619 624 663 q 686 508 681 575 l 499 508 q 456 585 494 565 q 364 606 417 606 q 328 603 347 606 q 292 594 308 601 q 265 574 276 588 q 254 539 254 561 q 274 496 254 513 q 324 469 293 479 q 396 450 356 458 q 478 432 436 442 q 562 408 521 422 q 635 372 603 394 q 686 315 667 349 q 706 231 706 281 q 677 112 706 160 q 603 35 649 64 q 498 -6 557 6 q 378 -18 439 -18 q 256 -6 315 -18 q 149 36 196 7 q 73 113 103 65 q 40 233 43 161 l 228 233 "},"t":{"ha":489,"x_min":8,"x_max":469,"o":"m 325 718 l 469 718 l 469 586 l 325 586 l 325 231 q 342 164 325 181 q 408 147 358 147 q 440 149 425 147 q 469 153 456 150 l 469 0 q 414 -6 444 -4 q 354 -7 383 -7 q 267 -1 308 -7 q 195 24 226 6 q 146 75 164 42 q 128 163 128 108 l 128 586 l 8 586 l 8 718 l 128 718 l 128 933 l 325 933 l 325 718 "},"u":{"ha":824,"x_min":75,"x_max":749,"o":"m 749 0 l 561 0 l 561 100 l 557 100 q 460 10 519 38 q 338 -18 400 -18 q 208 3 258 -18 q 128 62 157 24 q 87 155 99 100 q 75 276 75 210 l 75 718 l 272 718 l 272 313 q 300 180 272 224 q 399 136 328 136 q 515 184 479 136 q 551 342 551 232 l 551 718 l 749 718 l 749 0 "},"v":{"ha":722,"x_min":7,"x_max":715,"o":"m 472 0 l 253 0 l 7 718 l 214 718 l 365 228 l 368 228 l 519 718 l 715 718 l 472 0 "},"w":{"ha":1131,"x_min":8,"x_max":1122,"o":"m 896 0 l 693 0 l 565 482 l 563 482 l 440 0 l 236 0 l 8 718 l 217 718 l 349 231 l 351 231 l 471 718 l 663 718 l 785 232 l 788 232 l 919 718 l 1122 718 l 896 0 "},"x":{"ha":746,"x_min":0,"x_max":746,"o":"m 258 378 l 22 718 l 247 718 l 374 531 l 499 718 l 717 718 l 481 382 l 746 0 l 521 0 l 371 226 l 221 0 l 0 0 l 258 378 "},"y":{"ha":721,"x_min":-7,"x_max":729,"o":"m 429 -89 q 340 -214 397 -176 q 182 -251 283 -251 q 122 -249 151 -251 q 61 -244 92 -247 l 61 -82 q 118 -87 89 -85 q 176 -89 147 -90 q 234 -58 215 -85 q 253 0 253 -32 q 244 44 253 24 l -7 718 l 203 718 l 365 226 l 368 226 l 525 718 l 729 718 l 429 -89 "},"z":{"ha":721,"x_min":31,"x_max":690,"o":"m 31 149 l 404 569 l 58 569 l 58 718 l 664 718 l 664 569 l 290 149 l 690 149 l 690 0 l 31 0 l 31 149 "},"{":{"ha":463,"x_min":-11,"x_max":463,"o":"m 463 860 l 388 860 q 348 850 363 860 q 325 826 333 840 q 315 793 317 811 q 313 758 313 775 l 313 547 q 297 465 313 496 q 259 416 281 433 q 214 392 238 399 q 175 383 190 385 l 175 379 q 214 370 190 378 q 259 345 238 363 q 297 299 281 328 q 313 226 313 271 l 313 4 q 315 -29 313 -11 q 325 -62 317 -47 q 348 -86 333 -76 q 388 -96 363 -96 l 463 -96 l 463 -251 l 286 -251 q 233 -240 263 -251 q 177 -205 203 -228 q 133 -147 151 -182 q 115 -64 115 -111 l 115 206 q 101 260 115 238 q 68 295 88 282 q 26 315 49 308 q -11 321 4 321 l -11 442 q 26 448 4 442 q 68 469 49 454 q 101 508 88 483 q 115 567 115 532 l 115 828 q 133 910 115 875 q 177 969 151 946 q 233 1003 203 992 q 286 1015 263 1015 l 463 1015 l 463 860 "},"|":{"ha":310,"x_min":81,"x_max":229,"o":"m 81 1092 l 229 1092 l 229 -296 l 81 -296 l 81 1092 "},"}":{"ha":463,"x_min":0,"x_max":475,"o":"m 0 -96 l 75 -96 q 115 -86 100 -96 q 138 -62 129 -76 q 148 -29 146 -47 q 150 4 150 -11 l 150 226 q 166 299 150 271 q 203 345 182 328 q 249 370 225 363 q 288 379 272 378 l 288 383 q 249 392 272 385 q 203 416 225 399 q 166 465 182 433 q 150 547 150 496 l 150 758 q 148 793 150 775 q 138 826 146 811 q 115 850 129 840 q 75 860 100 860 l 0 860 l 0 1015 l 176 1015 q 230 1003 200 1015 q 285 969 260 992 q 329 910 311 946 q 347 828 347 875 l 347 567 q 361 508 347 532 q 394 469 375 483 q 436 448 414 454 q 475 442 458 442 l 475 321 q 436 315 458 321 q 394 295 414 308 q 361 260 375 282 q 347 206 347 238 l 347 -64 q 329 -147 347 -111 q 285 -205 311 -182 q 230 -240 260 -228 q 176 -251 200 -251 l 0 -251 l 0 -96 "},"~":{"ha":833,"x_min":93,"x_max":740,"o":"m 740 349 q 708 305 725 326 q 671 267 692 283 q 624 240 650 250 q 567 229 599 229 q 494 242 528 229 q 425 275 460 256 q 353 309 392 294 q 265 324 314 324 q 225 315 243 324 q 192 292 207 306 q 167 260 178 278 q 149 224 157 242 l 93 353 q 119 397 104 375 q 156 435 135 418 q 205 462 178 451 q 267 472 232 472 q 342 459 303 472 q 421 428 381 446 q 497 394 460 411 q 563 378 535 378 q 601 387 583 378 q 633 410 618 396 q 660 442 647 424 q 685 478 672 460 l 740 349 "}," ":{"ha":386,"x_min":0,"x_max":0,"o":""},"¡":{"ha":386,"x_min":85,"x_max":303,"o":"m 90 13 l 144 440 l 243 440 l 296 13 l 296 -253 l 90 -253 l 90 13 m 303 524 l 85 524 l 85 738 l 303 738 l 303 524 "},"¢":{"ha":772,"x_min":29,"x_max":757,"o":"m 361 -18 q 225 16 286 -14 q 120 95 164 46 q 53 209 76 144 q 29 347 29 274 q 51 494 29 426 q 115 615 72 563 q 219 699 157 667 q 361 738 281 731 l 361 856 l 443 856 l 443 738 q 555 718 500 738 q 653 663 610 699 q 724 577 697 628 q 754 464 751 526 l 561 464 q 524 549 557 514 q 443 589 490 585 l 443 129 q 490 148 468 133 q 528 183 513 163 q 554 230 544 204 q 564 282 564 256 l 757 282 q 726 162 751 215 q 658 70 700 108 q 562 10 617 32 q 443 -18 507 -12 l 443 -158 l 361 -158 l 361 -18 m 361 588 q 298 556 324 578 q 256 503 272 533 q 233 438 240 474 q 226 367 226 403 q 233 292 226 329 q 256 223 240 256 q 297 166 271 190 q 361 129 322 142 l 361 588 "},"£":{"ha":772,"x_min":29,"x_max":788,"o":"m 36 106 q 94 148 65 124 q 144 201 122 172 q 179 265 165 231 q 193 336 193 299 q 185 383 193 360 q 167 429 178 406 l 29 429 l 29 547 l 118 547 q 76 625 97 574 q 56 739 56 676 q 78 844 56 794 q 146 933 101 894 q 257 993 190 971 q 411 1015 324 1015 q 660 926 571 1015 q 749 668 749 838 l 561 668 q 556 720 560 689 q 537 781 551 751 q 492 831 522 810 q 410 853 463 853 q 310 818 347 853 q 274 725 274 783 q 275 693 274 708 q 281 658 276 678 q 298 611 286 638 q 331 547 310 585 l 515 547 l 515 429 l 369 429 q 378 388 376 408 q 381 343 381 367 q 347 231 381 278 q 267 149 313 185 l 269 146 q 324 172 303 167 q 364 178 344 178 q 419 173 392 178 q 474 163 446 168 q 528 151 501 156 q 582 146 554 146 q 638 156 610 146 q 704 206 667 165 l 788 65 q 681 -3 738 17 q 571 -22 624 -22 q 483 -15 518 -22 q 419 1 449 -8 q 358 21 389 13 q 282 29 328 29 q 203 19 244 29 q 122 -22 163 8 l 36 106 "},"¤":{"ha":772,"x_min":28,"x_max":744,"o":"m 389 682 q 313 665 346 682 q 257 622 279 649 q 224 559 235 594 q 213 485 213 524 q 224 412 213 447 q 257 349 235 376 q 312 306 279 322 q 388 290 344 290 q 463 307 431 290 q 515 351 494 324 q 547 415 536 379 q 557 488 557 450 q 547 559 557 524 q 515 622 536 594 q 463 665 494 649 q 389 682 431 682 m 107 288 q 40 485 40 365 q 56 597 40 543 q 107 685 72 650 l 28 765 l 107 844 l 186 767 q 276 813 221 796 q 389 831 331 831 q 496 813 444 831 q 579 768 547 796 l 660 847 l 744 763 l 667 686 q 713 599 697 653 q 729 488 729 546 q 713 376 729 429 q 665 285 697 324 l 742 207 l 665 131 l 586 211 q 499 160 551 178 q 388 142 446 142 q 272 159 325 142 q 183 210 219 176 l 106 129 l 28 207 l 107 288 "},"¥":{"ha":772,"x_min":-11,"x_max":801,"o":"m 288 0 l 288 192 l 69 192 l 69 324 l 288 324 l 288 388 l 268 428 l 69 428 l 69 560 l 201 560 l -11 992 l 214 992 l 397 560 l 576 992 l 801 992 l 586 560 l 718 560 l 718 428 l 519 428 l 499 388 l 499 324 l 718 324 l 718 192 l 499 192 l 499 0 l 288 0 "},"¦":{"ha":310,"x_min":81,"x_max":229,"o":"m 229 571 l 81 571 l 81 918 l 229 918 l 229 571 m 81 224 l 229 224 l 229 -122 l 81 -122 l 81 224 "},"§":{"ha":772,"x_min":14,"x_max":758,"o":"m 514 747 q 483 833 514 799 q 396 867 451 867 q 324 843 358 867 q 290 778 290 819 q 326 710 292 739 q 413 656 361 682 q 526 603 465 629 q 639 541 588 576 q 724 459 690 506 q 758 347 758 413 q 719 222 758 276 q 614 144 681 168 q 672 72 654 114 q 690 -18 690 31 q 664 -120 690 -76 q 595 -193 638 -164 q 500 -237 553 -222 q 394 -251 447 -251 q 271 -235 328 -251 q 172 -187 214 -219 q 106 -103 129 -154 q 82 17 82 -53 l 254 17 q 292 -73 257 -43 q 390 -103 328 -103 q 463 -80 433 -103 q 493 -11 493 -57 q 460 58 494 29 q 372 114 425 88 q 257 167 319 140 q 140 231 194 194 q 50 315 86 267 q 14 432 14 364 q 53 558 14 507 q 163 635 92 610 q 118 699 133 667 q 103 775 103 731 q 128 878 103 833 q 195 954 154 924 q 288 1000 236 985 q 393 1015 340 1015 q 508 998 454 1015 q 601 946 561 981 q 663 862 640 911 q 686 747 686 813 l 514 747 m 294 528 q 277 538 286 532 q 257 542 268 543 q 228 531 242 540 q 206 509 215 522 q 192 480 197 496 q 186 449 186 464 q 197 411 186 429 q 231 381 207 393 l 481 244 q 499 238 488 242 q 522 235 510 235 q 548 242 536 235 q 568 262 560 250 q 581 287 576 274 q 586 311 586 300 q 567 364 586 343 q 524 399 549 385 l 294 528 "},"¨":{"ha":360,"x_min":-56,"x_max":417,"o":"m 131 992 l -56 992 l -56 829 l 131 829 l 131 992 m 417 992 l 229 992 l 229 829 l 417 829 l 417 992 "},"©":{"ha":1111,"x_min":22,"x_max":1089,"o":"m 828 410 q 797 317 819 358 q 740 248 774 276 q 663 205 706 219 q 575 190 621 190 q 452 214 507 190 q 358 279 397 238 q 298 377 319 321 q 276 499 276 433 q 297 622 276 565 q 355 721 317 679 q 448 786 393 763 q 572 810 503 810 q 663 796 621 810 q 739 755 706 782 q 794 688 772 728 q 824 594 817 647 l 715 594 q 665 671 704 643 q 572 699 626 699 q 451 644 493 699 q 410 501 410 589 q 422 424 410 461 q 455 360 433 388 q 507 317 476 333 q 575 301 538 301 q 671 331 633 301 q 715 410 708 360 l 828 410 m 164 496 q 194 332 164 407 q 278 203 225 257 q 402 118 331 149 q 556 88 474 88 q 708 118 636 88 q 832 203 779 149 q 916 332 885 257 q 947 496 947 407 q 916 660 947 585 q 832 789 885 735 q 708 874 779 843 q 556 904 636 904 q 402 874 474 904 q 278 789 331 843 q 194 660 225 735 q 164 496 164 585 m 22 496 q 66 711 22 615 q 183 874 110 807 q 353 978 257 942 q 556 1015 450 1015 q 758 978 661 1015 q 928 874 854 942 q 1045 711 1001 807 q 1089 496 1089 615 q 1045 282 1089 378 q 928 118 1001 186 q 758 14 854 50 q 556 -22 661 -22 q 353 14 450 -22 q 183 118 257 50 q 66 282 110 186 q 22 496 22 378 "},"ª":{"ha":478,"x_min":14,"x_max":469,"o":"m 28 840 q 55 915 35 886 q 104 961 75 944 q 169 985 133 978 q 244 992 206 992 q 318 987 281 992 q 385 969 356 982 q 434 931 415 956 q 453 868 453 907 l 453 638 q 469 533 453 565 l 329 533 q 324 555 326 544 q 319 576 321 565 q 248 533 289 544 q 169 521 207 521 q 59 553 104 521 q 14 660 14 586 q 28 723 14 699 q 64 762 42 747 q 115 783 86 776 q 172 794 143 790 q 231 801 204 799 q 278 808 258 803 q 309 822 297 813 q 321 847 321 831 q 297 892 321 883 q 238 901 272 901 q 193 887 214 901 q 169 840 172 872 l 28 840 m 319 743 q 276 726 304 729 q 226 718 247 722 q 176 700 197 711 q 156 663 156 689 q 177 622 156 632 q 218 611 199 611 q 273 622 253 611 q 303 647 293 632 q 317 681 314 663 q 319 715 319 699 l 319 743 "},"«":{"ha":617,"x_min":58,"x_max":558,"o":"m 58 285 l 58 472 l 276 643 l 276 476 l 151 378 l 276 278 l 276 111 l 58 285 m 340 285 l 340 472 l 558 643 l 558 476 l 433 378 l 558 278 l 558 111 l 340 285 "},"¬":{"ha":833,"x_min":67,"x_max":767,"o":"m 767 138 l 618 138 l 618 415 l 67 415 l 67 564 l 767 564 l 767 138 "},"®":{"ha":1111,"x_min":22,"x_max":1089,"o":"m 464 546 l 567 546 q 649 560 617 546 q 681 626 681 574 q 669 664 681 650 q 641 685 658 678 q 602 696 624 693 q 561 699 581 699 l 464 699 l 464 546 m 349 789 l 568 789 q 737 750 678 789 q 796 617 796 711 q 784 548 796 576 q 751 501 772 519 q 703 474 731 483 q 643 461 675 464 l 799 207 l 678 207 l 536 456 l 464 456 l 464 207 l 349 207 l 349 789 m 164 497 q 194 333 164 408 q 278 203 225 258 q 402 118 331 149 q 556 88 474 88 q 708 118 636 88 q 832 203 779 149 q 916 333 885 258 q 947 497 947 408 q 916 660 947 586 q 832 789 885 735 q 708 874 779 843 q 556 904 636 904 q 402 874 474 904 q 278 789 331 843 q 194 660 225 735 q 164 497 164 586 m 22 497 q 66 711 22 615 q 183 874 110 807 q 353 978 257 942 q 556 1015 450 1015 q 758 978 661 1015 q 928 874 854 942 q 1045 711 1001 807 q 1089 497 1089 615 q 1045 282 1089 378 q 928 118 1001 186 q 758 14 854 50 q 556 -22 661 -22 q 353 14 450 -22 q 183 118 257 50 q 66 282 110 186 q 22 497 22 378 "},"¯":{"ha":360,"x_min":-78,"x_max":439,"o":"m 439 960 l -78 960 l -78 856 l 439 856 l 439 960 "},"°":{"ha":556,"x_min":72,"x_max":483,"o":"m 163 786 q 172 739 163 761 q 198 700 182 717 q 235 674 214 683 q 278 664 256 664 q 321 674 300 664 q 358 700 342 683 q 383 739 374 717 q 393 786 393 761 q 383 833 393 811 q 358 872 374 856 q 321 899 342 889 q 278 908 300 908 q 235 899 256 908 q 198 872 214 889 q 172 833 182 856 q 163 786 163 811 m 72 786 q 88 867 72 829 q 132 932 104 904 q 197 976 160 960 q 278 992 235 992 q 358 976 321 992 q 424 932 396 960 q 467 867 451 904 q 483 786 483 829 q 467 706 483 743 q 424 640 451 668 q 358 597 396 613 q 278 581 321 581 q 197 597 235 581 q 132 640 160 613 q 88 706 104 668 q 72 786 72 743 "},"±":{"ha":833,"x_min":67,"x_max":768,"o":"m 67 149 l 768 149 l 768 0 l 67 0 l 67 149 m 492 521 l 768 521 l 768 372 l 492 372 l 492 190 l 343 190 l 343 372 l 67 372 l 67 521 l 343 521 l 343 703 l 492 703 l 492 521 "},"²":{"ha":544,"x_min":38,"x_max":507,"o":"m 39 750 q 100 924 38 857 q 290 992 163 992 q 374 980 335 992 q 442 944 413 968 q 490 885 472 921 q 507 804 507 850 q 474 698 507 738 q 394 628 442 658 q 297 567 347 597 q 211 490 247 538 l 501 490 l 501 379 l 38 379 q 53 474 38 435 q 94 545 68 514 q 156 601 121 576 q 232 651 192 626 q 276 679 253 665 q 319 710 299 693 q 352 747 339 726 q 365 794 365 768 q 342 856 365 831 q 281 881 319 881 q 232 868 251 881 q 201 836 213 856 q 184 794 189 817 q 181 750 179 771 l 39 750 "},"³":{"ha":544,"x_min":31,"x_max":514,"o":"m 228 742 q 270 742 247 742 q 313 749 293 743 q 347 769 333 756 q 360 807 360 782 q 333 861 360 842 q 274 881 307 881 q 204 851 229 881 q 181 781 179 822 l 47 781 q 109 935 50 878 q 272 992 168 992 q 353 981 314 992 q 424 949 393 971 q 474 896 456 928 q 493 821 493 864 q 470 746 493 779 q 401 701 447 713 l 401 699 q 484 653 454 689 q 514 568 514 617 q 494 481 514 518 q 442 417 475 443 q 366 379 410 392 q 274 367 322 367 q 94 424 161 367 q 31 589 28 481 l 164 589 q 192 511 167 544 q 271 478 218 478 q 342 502 313 478 q 372 565 372 526 q 358 611 372 594 q 323 635 344 628 q 276 643 301 642 q 228 644 251 644 l 228 742 "},"´":{"ha":360,"x_min":75,"x_max":426,"o":"m 75 807 l 213 807 l 426 1004 l 208 1004 l 75 807 "},"µ":{"ha":824,"x_min":75,"x_max":749,"o":"m 749 0 l 561 0 l 561 100 l 557 100 q 513 47 538 69 q 464 10 489 25 q 416 -11 439 -4 q 376 -18 393 -18 q 310 -9 335 -18 q 272 14 285 0 l 272 -251 l 75 -251 l 75 718 l 272 718 l 272 313 q 300 180 272 224 q 399 136 328 136 q 515 184 479 136 q 551 342 551 232 l 551 718 l 749 718 l 749 0 "},"¶":{"ha":861,"x_min":3,"x_max":743,"o":"m 307 496 q 81 561 160 496 q 3 739 3 626 q 28 860 3 811 q 97 938 53 908 q 203 979 142 967 q 336 992 264 992 l 743 992 l 743 -229 l 601 -229 l 601 881 l 449 881 l 449 -229 l 307 -229 l 307 496 "},"·":{"ha":386,"x_min":76,"x_max":311,"o":"m 76 399 q 112 483 76 449 q 194 517 147 517 q 239 508 218 517 q 276 483 260 499 q 301 445 292 467 q 311 399 311 424 q 301 356 311 376 q 276 318 292 335 q 240 292 261 301 q 196 282 219 282 q 149 291 171 282 q 112 316 128 300 q 86 353 96 332 q 76 399 76 375 "},"¸":{"ha":360,"x_min":17,"x_max":351,"o":"m 46 -204 q 97 -222 68 -214 q 163 -229 126 -229 q 203 -218 188 -229 q 218 -182 218 -207 q 202 -147 218 -156 q 163 -137 186 -137 q 107 -147 132 -137 l 78 -114 l 160 3 l 228 3 l 174 -72 l 176 -72 q 224 -65 193 -65 q 270 -71 247 -65 q 311 -88 293 -76 q 340 -119 329 -100 q 351 -162 351 -137 q 338 -230 351 -203 q 301 -273 324 -257 q 249 -295 278 -289 q 189 -301 219 -301 q 132 -299 156 -301 q 90 -293 108 -297 q 53 -283 71 -289 q 17 -271 36 -278 l 46 -204 "},"¹":{"ha":544,"x_min":107,"x_max":401,"o":"m 401 379 l 260 379 l 260 760 l 107 760 l 107 864 q 170 868 140 863 q 224 887 200 874 q 265 923 249 900 q 285 979 281 946 l 401 979 l 401 379 "},"º":{"ha":510,"x_min":17,"x_max":493,"o":"m 165 756 q 170 710 165 733 q 186 667 175 686 q 214 637 197 649 q 254 625 231 625 q 295 637 278 625 q 324 667 313 649 q 340 710 335 686 q 344 756 344 733 q 340 803 344 779 q 324 845 335 826 q 295 876 313 864 q 254 888 278 888 q 214 876 231 888 q 186 845 197 864 q 170 803 175 826 q 165 756 165 779 m 17 756 q 81 928 17 865 q 254 992 146 992 q 428 928 363 992 q 493 756 493 865 q 428 583 493 646 q 254 521 363 521 q 81 583 146 521 q 17 756 17 646 "},"»":{"ha":617,"x_min":58,"x_max":558,"o":"m 276 472 l 276 285 l 58 111 l 58 278 l 183 378 l 58 476 l 58 643 l 276 472 m 558 472 l 558 285 l 340 111 l 340 278 l 465 378 l 340 476 l 340 643 l 558 472 "},"¼":{"ha":1239,"x_min":33,"x_max":1169,"o":"m 957 435 l 954 435 l 796 235 l 957 235 l 957 435 m 957 124 l 690 124 l 690 253 l 951 583 l 1090 583 l 1090 235 l 1169 235 l 1169 124 l 1090 124 l 1090 0 l 957 0 l 957 124 m 328 379 l 186 379 l 186 760 l 33 760 l 33 864 q 97 868 67 863 q 151 887 126 874 q 191 923 175 900 q 211 979 207 946 l 328 979 l 328 379 m 786 1003 l 904 1003 l 332 -29 l 211 -29 l 786 1003 "},"½":{"ha":1235,"x_min":33,"x_max":1175,"o":"m 707 371 q 768 545 706 478 q 958 613 831 613 q 1042 601 1003 613 q 1110 565 1081 589 q 1158 506 1140 542 q 1175 425 1175 471 q 1142 319 1175 358 q 1063 249 1110 279 q 965 188 1015 218 q 879 111 915 158 l 1169 111 l 1169 0 l 706 0 q 721 95 706 56 q 763 166 736 135 q 824 222 789 197 q 900 272 860 247 q 944 300 921 286 q 987 331 967 314 q 1020 368 1007 347 q 1033 415 1033 389 q 1010 476 1033 451 q 949 501 988 501 q 900 489 919 501 q 869 457 881 476 q 852 415 857 438 q 849 371 847 392 l 707 371 m 328 379 l 186 379 l 186 760 l 33 760 l 33 864 q 97 868 67 863 q 151 887 126 874 q 191 923 175 900 q 211 979 207 946 l 328 979 l 328 379 m 786 1003 l 904 1003 l 332 -29 l 211 -29 l 786 1003 "},"¾":{"ha":1235,"x_min":54,"x_max":1197,"o":"m 985 435 l 982 435 l 824 235 l 985 235 l 985 435 m 985 124 l 718 124 l 718 253 l 979 583 l 1118 583 l 1118 235 l 1197 235 l 1197 124 l 1118 124 l 1118 0 l 985 0 l 985 124 m 251 742 q 294 742 271 742 q 337 749 317 743 q 370 769 357 756 q 383 807 383 782 q 357 861 383 842 q 297 881 331 881 q 228 851 253 881 q 204 781 203 822 l 71 781 q 133 935 74 878 q 296 992 192 992 q 377 981 338 992 q 448 949 417 971 q 498 896 479 928 q 517 821 517 864 q 494 746 517 779 q 425 701 471 713 l 425 699 q 508 653 478 689 q 538 568 538 617 q 518 481 538 518 q 466 417 499 443 q 390 379 433 392 q 297 367 346 367 q 118 424 185 367 q 54 589 51 481 l 188 589 q 216 511 190 544 q 294 478 242 478 q 366 502 336 478 q 396 565 396 526 q 382 611 396 594 q 347 635 368 628 q 300 643 325 642 q 251 644 275 644 l 251 742 m 907 1003 l 1025 1003 l 453 -29 l 332 -29 l 907 1003 "},"¿":{"ha":772,"x_min":44,"x_max":725,"o":"m 504 524 l 286 524 l 286 738 l 504 738 l 504 524 m 725 71 q 699 -65 724 -3 q 631 -174 675 -128 q 526 -245 588 -219 q 390 -271 465 -271 q 226 -244 293 -271 q 119 -176 160 -217 q 62 -90 79 -136 q 44 -3 44 -43 q 62 106 44 63 q 106 179 79 149 q 163 231 132 210 q 222 274 193 251 q 271 324 250 296 q 297 393 292 351 l 297 446 l 485 446 l 485 383 q 462 283 481 324 q 418 215 443 243 q 365 165 393 186 q 314 124 338 144 q 276 78 290 103 q 263 15 261 53 q 294 -78 263 -47 q 381 -108 325 -108 q 443 -94 417 -108 q 487 -55 469 -79 q 513 2 504 -31 q 521 71 521 35 l 725 71 "},"À":{"ha":951,"x_min":-8,"x_max":961,"o":"m 229 1278 l 447 1278 l 581 1081 l 443 1081 l 229 1278 m 346 383 l 603 383 l 478 747 l 475 747 l 346 383 m 367 992 l 590 992 l 961 0 l 735 0 l 660 221 l 289 221 l 211 0 l -8 0 l 367 992 "},"Á":{"ha":951,"x_min":-8,"x_max":961,"o":"m 508 1081 l 371 1081 l 504 1278 l 722 1278 l 508 1081 m 346 383 l 603 383 l 478 747 l 475 747 l 346 383 m 367 992 l 590 992 l 961 0 l 735 0 l 660 221 l 289 221 l 211 0 l -8 0 l 367 992 "},"Â":{"ha":951,"x_min":-8,"x_max":961,"o":"m 386 1278 l 567 1278 l 719 1081 l 557 1081 l 471 1193 l 382 1081 l 232 1081 l 386 1278 m 346 383 l 603 383 l 478 747 l 475 747 l 346 383 m 367 992 l 590 992 l 961 0 l 735 0 l 660 221 l 289 221 l 211 0 l -8 0 l 367 992 "},"Ã":{"ha":951,"x_min":-8,"x_max":961,"o":"m 731 1265 q 715 1214 724 1242 q 688 1163 706 1186 q 644 1123 671 1139 q 575 1107 617 1107 q 515 1115 543 1107 q 461 1131 488 1122 q 411 1147 435 1140 q 364 1154 388 1154 q 324 1138 336 1154 q 306 1096 313 1122 l 221 1096 q 239 1156 228 1126 q 269 1210 250 1186 q 319 1250 289 1235 q 396 1265 350 1265 q 441 1258 419 1265 q 485 1242 463 1250 q 530 1224 507 1232 q 576 1217 553 1217 q 622 1231 608 1217 q 635 1265 636 1246 l 731 1265 m 346 383 l 603 383 l 478 747 l 475 747 l 346 383 m 367 992 l 590 992 l 961 0 l 735 0 l 660 221 l 289 221 l 211 0 l -8 0 l 367 992 "},"Ä":{"ha":951,"x_min":-8,"x_max":961,"o":"m 239 1265 l 426 1265 l 426 1103 l 239 1103 l 239 1265 m 525 1265 l 713 1265 l 713 1103 l 525 1103 l 525 1265 m 346 383 l 603 383 l 478 747 l 475 747 l 346 383 m 367 992 l 590 992 l 961 0 l 735 0 l 660 221 l 289 221 l 211 0 l -8 0 l 367 992 "},"Å":{"ha":951,"x_min":-8,"x_max":961,"o":"m 306 1185 q 319 1251 306 1221 q 355 1305 332 1282 q 409 1341 378 1328 q 475 1354 440 1354 q 542 1341 511 1354 q 596 1305 572 1328 q 633 1251 619 1282 q 646 1185 646 1221 q 633 1119 646 1150 q 596 1065 619 1088 q 542 1028 572 1042 q 475 1015 511 1015 q 409 1028 440 1015 q 355 1065 378 1042 q 319 1119 332 1088 q 306 1185 306 1150 m 388 1185 q 411 1116 388 1144 q 475 1088 435 1088 q 540 1116 515 1088 q 564 1185 564 1144 q 540 1253 564 1225 q 475 1282 515 1282 q 411 1253 435 1282 q 388 1185 388 1225 m 346 383 l 603 383 l 478 747 l 475 747 l 346 383 m 367 992 l 590 992 l 961 0 l 735 0 l 660 221 l 289 221 l 211 0 l -8 0 l 367 992 "},"Æ":{"ha":1363,"x_min":-14,"x_max":1311,"o":"m 458 992 l 1300 992 l 1300 808 l 839 808 l 839 596 l 1272 596 l 1272 426 l 839 426 l 839 183 l 1311 183 l 1311 0 l 628 0 l 628 221 l 317 221 l 217 0 l -14 0 l 458 992 m 389 383 l 628 383 l 628 808 l 581 808 l 389 383 "},"Ç":{"ha":1029,"x_min":53,"x_max":976,"o":"m 757 658 q 732 727 751 696 q 683 782 713 758 q 617 819 654 806 q 540 832 581 832 q 415 803 467 832 q 332 727 364 775 q 285 618 300 679 q 271 492 271 557 q 285 370 271 429 q 332 264 300 311 q 415 188 364 217 q 540 160 467 160 q 697 221 640 160 q 765 382 753 282 l 976 382 q 933 215 968 289 q 842 88 899 140 q 710 8 786 36 q 544 -22 635 -21 l 508 -72 l 511 -72 q 558 -65 528 -65 q 605 -71 582 -65 q 646 -88 628 -76 q 675 -119 664 -100 q 686 -162 686 -137 q 672 -230 686 -203 q 635 -273 658 -257 q 583 -295 613 -289 q 524 -301 554 -301 q 467 -299 490 -301 q 424 -293 443 -297 q 388 -283 406 -289 q 351 -271 371 -278 l 381 -204 q 432 -222 403 -214 q 497 -229 461 -229 q 538 -218 522 -229 q 553 -182 553 -207 q 537 -147 553 -156 q 497 -137 521 -137 q 442 -147 467 -137 l 413 -114 l 479 -18 q 299 35 378 -8 q 165 147 219 79 q 81 303 110 215 q 53 492 53 392 q 86 698 53 603 q 182 864 119 793 q 335 975 244 935 q 540 1015 426 1015 q 695 992 622 1015 q 826 923 768 968 q 921 811 883 878 q 968 658 958 744 l 757 658 "},"È":{"ha":900,"x_min":96,"x_max":849,"o":"m 204 1278 l 422 1278 l 556 1081 l 418 1081 l 204 1278 m 96 992 l 838 992 l 838 808 l 314 808 l 314 596 l 794 596 l 794 426 l 314 426 l 314 183 l 849 183 l 849 0 l 96 0 l 96 992 "},"É":{"ha":900,"x_min":96,"x_max":849,"o":"m 483 1081 l 346 1081 l 479 1278 l 697 1278 l 483 1081 m 96 992 l 838 992 l 838 808 l 314 808 l 314 596 l 794 596 l 794 426 l 314 426 l 314 183 l 849 183 l 849 0 l 96 0 l 96 992 "},"Ê":{"ha":900,"x_min":96,"x_max":849,"o":"m 361 1278 l 542 1278 l 694 1081 l 532 1081 l 446 1193 l 357 1081 l 207 1081 l 361 1278 m 96 992 l 838 992 l 838 808 l 314 808 l 314 596 l 794 596 l 794 426 l 314 426 l 314 183 l 849 183 l 849 0 l 96 0 l 96 992 "},"Ë":{"ha":900,"x_min":96,"x_max":849,"o":"m 214 1265 l 401 1265 l 401 1103 l 214 1103 l 214 1265 m 500 1265 l 688 1265 l 688 1103 l 500 1103 l 500 1265 m 96 992 l 838 992 l 838 808 l 314 808 l 314 596 l 794 596 l 794 426 l 314 426 l 314 183 l 849 183 l 849 0 l 96 0 l 96 992 "},"Ì":{"ha":410,"x_min":-40,"x_max":314,"o":"m -40 1278 l 176 1278 l 310 1081 l 172 1081 l -40 1278 m 96 992 l 314 992 l 314 0 l 96 0 l 96 992 "},"Í":{"ha":410,"x_min":96,"x_max":451,"o":"m 238 1081 l 100 1081 l 233 1278 l 451 1278 l 238 1081 m 96 992 l 314 992 l 314 0 l 96 0 l 96 992 "},"Î":{"ha":410,"x_min":-37,"x_max":449,"o":"m 115 1278 l 296 1278 l 449 1081 l 286 1081 l 200 1193 l 111 1081 l -37 1081 l 115 1278 m 96 992 l 314 992 l 314 0 l 96 0 l 96 992 "},"Ï":{"ha":410,"x_min":-31,"x_max":442,"o":"m -31 1265 l 156 1265 l 156 1103 l -31 1103 l -31 1265 m 254 1265 l 442 1265 l 442 1103 l 254 1103 l 254 1265 m 96 992 l 314 992 l 314 0 l 96 0 l 96 992 "},"Ð":{"ha":1029,"x_min":4,"x_max":974,"o":"m 314 593 l 536 593 l 536 431 l 314 431 l 314 183 l 508 183 q 600 199 556 183 q 679 249 644 214 q 735 342 714 285 q 756 481 756 399 q 741 616 756 556 q 693 719 726 676 q 605 785 660 763 q 469 808 550 808 l 314 808 l 314 593 m 96 432 l 4 432 l 4 593 l 96 593 l 96 992 l 524 992 q 702 961 619 992 q 845 869 785 931 q 940 717 906 808 q 974 501 974 625 q 946 301 974 393 q 862 143 918 210 q 722 38 806 76 q 524 0 638 0 l 96 0 l 96 432 "},"Ñ":{"ha":1029,"x_min":96,"x_max":933,"o":"m 769 1265 q 753 1214 763 1242 q 727 1163 744 1186 q 683 1123 710 1139 q 614 1107 656 1107 q 554 1115 582 1107 q 500 1131 526 1122 q 450 1147 474 1140 q 403 1154 426 1154 q 363 1138 375 1154 q 344 1096 351 1122 l 260 1096 q 278 1156 267 1126 q 308 1210 289 1186 q 358 1250 328 1235 q 435 1265 389 1265 q 480 1258 458 1265 q 524 1242 501 1250 q 569 1224 546 1232 q 615 1217 592 1217 q 661 1231 647 1217 q 674 1265 675 1246 l 769 1265 m 96 992 l 313 992 l 726 326 l 729 326 l 729 992 l 933 992 l 933 0 l 715 0 l 303 664 l 300 664 l 300 0 l 96 0 l 96 992 "},"Ò":{"ha":1081,"x_min":53,"x_max":1028,"o":"m 294 1278 l 513 1278 l 646 1081 l 508 1081 l 294 1278 m 271 492 q 285 370 271 429 q 332 264 300 311 q 415 188 364 217 q 540 160 467 160 q 665 188 614 160 q 749 264 717 217 q 795 370 781 311 q 810 492 810 429 q 795 618 810 557 q 749 727 781 679 q 665 803 717 775 q 540 832 614 832 q 415 803 467 832 q 332 727 364 775 q 285 618 300 679 q 271 492 271 557 m 53 492 q 86 698 53 603 q 182 864 119 793 q 335 975 244 935 q 540 1015 426 1015 q 746 975 656 1015 q 899 864 836 935 q 994 698 961 793 q 1028 492 1028 603 q 994 290 1028 383 q 899 126 961 196 q 746 17 836 57 q 540 -22 656 -22 q 335 17 426 -22 q 182 126 244 57 q 86 290 119 196 q 53 492 53 383 "},"Ó":{"ha":1081,"x_min":53,"x_max":1028,"o":"m 574 1081 l 436 1081 l 569 1278 l 788 1278 l 574 1081 m 271 492 q 285 370 271 429 q 332 264 300 311 q 415 188 364 217 q 540 160 467 160 q 665 188 614 160 q 749 264 717 217 q 795 370 781 311 q 810 492 810 429 q 795 618 810 557 q 749 727 781 679 q 665 803 717 775 q 540 832 614 832 q 415 803 467 832 q 332 727 364 775 q 285 618 300 679 q 271 492 271 557 m 53 492 q 86 698 53 603 q 182 864 119 793 q 335 975 244 935 q 540 1015 426 1015 q 746 975 656 1015 q 899 864 836 935 q 994 698 961 793 q 1028 492 1028 603 q 994 290 1028 383 q 899 126 961 196 q 746 17 836 57 q 540 -22 656 -22 q 335 17 426 -22 q 182 126 244 57 q 86 290 119 196 q 53 492 53 383 "},"Ô":{"ha":1081,"x_min":53,"x_max":1028,"o":"m 451 1278 l 632 1278 l 785 1081 l 622 1081 l 536 1193 l 447 1081 l 297 1081 l 451 1278 m 271 492 q 285 370 271 429 q 332 264 300 311 q 415 188 364 217 q 540 160 467 160 q 665 188 614 160 q 749 264 717 217 q 795 370 781 311 q 810 492 810 429 q 795 618 810 557 q 749 727 781 679 q 665 803 717 775 q 540 832 614 832 q 415 803 467 832 q 332 727 364 775 q 285 618 300 679 q 271 492 271 557 m 53 492 q 86 698 53 603 q 182 864 119 793 q 335 975 244 935 q 540 1015 426 1015 q 746 975 656 1015 q 899 864 836 935 q 994 698 961 793 q 1028 492 1028 603 q 994 290 1028 383 q 899 126 961 196 q 746 17 836 57 q 540 -22 656 -22 q 335 17 426 -22 q 182 126 244 57 q 86 290 119 196 q 53 492 53 383 "},"Õ":{"ha":1081,"x_min":53,"x_max":1028,"o":"m 796 1265 q 780 1214 789 1242 q 753 1163 771 1186 q 709 1123 736 1139 q 640 1107 682 1107 q 581 1115 608 1107 q 526 1131 553 1122 q 476 1147 500 1140 q 429 1154 453 1154 q 390 1138 401 1154 q 371 1096 378 1122 l 286 1096 q 304 1156 293 1126 q 335 1210 315 1186 q 385 1250 354 1235 q 461 1265 415 1265 q 506 1258 485 1265 q 550 1242 528 1250 q 595 1224 572 1232 q 642 1217 618 1217 q 688 1231 674 1217 q 700 1265 701 1246 l 796 1265 m 271 492 q 285 370 271 429 q 332 264 300 311 q 415 188 364 217 q 540 160 467 160 q 665 188 614 160 q 749 264 717 217 q 795 370 781 311 q 810 492 810 429 q 795 618 810 557 q 749 727 781 679 q 665 803 717 775 q 540 832 614 832 q 415 803 467 832 q 332 727 364 775 q 285 618 300 679 q 271 492 271 557 m 53 492 q 86 698 53 603 q 182 864 119 793 q 335 975 244 935 q 540 1015 426 1015 q 746 975 656 1015 q 899 864 836 935 q 994 698 961 793 q 1028 492 1028 603 q 994 290 1028 383 q 899 126 961 196 q 746 17 836 57 q 540 -22 656 -22 q 335 17 426 -22 q 182 126 244 57 q 86 290 119 196 q 53 492 53 383 "},"Ö":{"ha":1081,"x_min":53,"x_max":1028,"o":"m 304 1265 l 492 1265 l 492 1103 l 304 1103 l 304 1265 m 590 1265 l 778 1265 l 778 1103 l 590 1103 l 590 1265 m 271 492 q 285 370 271 429 q 332 264 300 311 q 415 188 364 217 q 540 160 467 160 q 665 188 614 160 q 749 264 717 217 q 795 370 781 311 q 810 492 810 429 q 795 618 810 557 q 749 727 781 679 q 665 803 717 775 q 540 832 614 832 q 415 803 467 832 q 332 727 364 775 q 285 618 300 679 q 271 492 271 557 m 53 492 q 86 698 53 603 q 182 864 119 793 q 335 975 244 935 q 540 1015 426 1015 q 746 975 656 1015 q 899 864 836 935 q 994 698 961 793 q 1028 492 1028 603 q 994 290 1028 383 q 899 126 961 196 q 746 17 836 57 q 540 -22 656 -22 q 335 17 426 -22 q 182 126 244 57 q 86 290 119 196 q 53 492 53 383 "},"×":{"ha":833,"x_min":89,"x_max":746,"o":"m 89 129 l 313 351 l 92 574 l 197 679 l 418 457 l 640 679 l 746 574 l 522 351 l 746 129 l 640 24 l 418 247 l 194 24 l 89 129 "},"Ø":{"ha":1081,"x_min":47,"x_max":1033,"o":"m 363 228 q 438 178 394 196 q 540 160 482 160 q 665 188 614 160 q 749 264 717 217 q 795 370 781 311 q 810 492 810 429 q 801 590 810 542 q 772 681 792 638 l 363 228 m 721 761 q 644 813 689 793 q 540 832 600 832 q 415 803 467 832 q 332 727 364 775 q 285 618 300 679 q 271 492 271 557 q 280 395 271 443 q 310 304 289 347 l 721 761 m 167 146 q 81 304 108 217 q 53 492 53 392 q 86 698 53 603 q 182 864 119 793 q 335 975 244 935 q 540 1015 426 1015 q 715 988 636 1015 q 853 908 793 960 l 964 1032 l 1033 971 l 917 842 q 999 683 971 771 q 1028 492 1028 596 q 994 290 1028 383 q 899 126 961 196 q 746 17 836 57 q 540 -22 656 -22 q 367 6 444 -22 q 231 82 289 33 l 115 -44 l 47 14 l 167 146 "},"Ù":{"ha":1029,"x_min":92,"x_max":938,"o":"m 268 1278 l 486 1278 l 619 1081 l 482 1081 l 268 1278 m 938 375 q 825 76 938 174 q 514 -22 713 -22 q 202 75 313 -22 q 92 375 92 172 l 92 992 l 310 992 l 310 375 q 317 296 310 335 q 346 227 324 257 q 408 178 368 197 q 514 160 447 160 q 675 212 631 160 q 719 375 719 264 l 719 992 l 938 992 l 938 375 "},"Ú":{"ha":1029,"x_min":92,"x_max":938,"o":"m 547 1081 l 410 1081 l 543 1278 l 761 1278 l 547 1081 m 938 375 q 825 76 938 174 q 514 -22 713 -22 q 202 75 313 -22 q 92 375 92 172 l 92 992 l 310 992 l 310 375 q 317 296 310 335 q 346 227 324 257 q 408 178 368 197 q 514 160 447 160 q 675 212 631 160 q 719 375 719 264 l 719 992 l 938 992 l 938 375 "},"Û":{"ha":1029,"x_min":92,"x_max":938,"o":"m 425 1278 l 606 1278 l 758 1081 l 596 1081 l 510 1193 l 421 1081 l 271 1081 l 425 1278 m 938 375 q 825 76 938 174 q 514 -22 713 -22 q 202 75 313 -22 q 92 375 92 172 l 92 992 l 310 992 l 310 375 q 317 296 310 335 q 346 227 324 257 q 408 178 368 197 q 514 160 447 160 q 675 212 631 160 q 719 375 719 264 l 719 992 l 938 992 l 938 375 "},"Ü":{"ha":1029,"x_min":92,"x_max":938,"o":"m 278 1265 l 465 1265 l 465 1103 l 278 1103 l 278 1265 m 564 1265 l 751 1265 l 751 1103 l 564 1103 l 564 1265 m 938 375 q 825 76 938 174 q 514 -22 713 -22 q 202 75 313 -22 q 92 375 92 172 l 92 992 l 310 992 l 310 375 q 317 296 310 335 q 346 227 324 257 q 408 178 368 197 q 514 160 447 160 q 675 212 631 160 q 719 375 719 264 l 719 992 l 938 992 l 938 375 "},"Ý":{"ha":926,"x_min":-11,"x_max":939,"o":"m 496 1081 l 358 1081 l 492 1278 l 710 1278 l 496 1081 m 353 386 l -11 992 l 233 992 l 465 600 l 696 992 l 939 992 l 571 381 l 571 0 l 353 0 l 353 386 "},"Þ":{"ha":926,"x_min":96,"x_max":886,"o":"m 314 390 l 483 390 q 556 396 521 390 q 617 417 590 401 q 659 463 643 433 q 675 539 675 492 q 659 615 675 586 q 617 660 643 644 q 556 682 590 676 q 483 688 521 688 l 314 688 l 314 390 m 96 992 l 314 992 l 314 857 l 543 857 q 701 830 636 857 q 808 758 767 803 q 867 657 849 714 q 886 539 886 600 q 867 422 886 479 q 808 319 849 364 q 701 248 767 275 q 543 221 636 221 l 314 221 l 314 0 l 96 0 l 96 992 "},"ß":{"ha":849,"x_min":78,"x_max":771,"o":"m 78 682 q 90 799 78 740 q 137 906 101 858 q 236 985 172 954 q 404 1015 300 1015 q 524 999 467 1015 q 624 951 581 983 q 694 868 668 918 q 719 749 719 818 q 684 628 719 682 q 590 556 649 574 l 590 553 q 669 520 636 543 q 726 464 703 497 q 760 390 749 431 q 771 304 771 349 q 749 181 771 239 q 686 78 726 122 q 591 8 646 33 q 469 -18 536 -18 q 356 -10 413 -18 l 356 150 q 383 144 369 146 q 413 143 397 143 q 478 156 449 143 q 528 192 507 169 q 562 246 550 215 q 574 311 574 276 q 533 433 574 386 q 404 481 492 481 q 381 480 393 481 q 356 478 368 479 l 356 608 q 372 606 364 607 q 386 606 379 606 q 440 613 414 606 q 487 635 467 619 q 519 674 507 650 q 532 729 532 697 q 517 798 532 774 q 481 835 501 822 q 437 850 460 847 q 399 853 414 853 q 307 816 339 853 q 275 717 275 779 l 275 0 l 78 0 l 78 682 "},"à":{"ha":797,"x_min":44,"x_max":744,"o":"m 153 1004 l 371 1004 l 504 807 l 367 807 l 153 1004 m 67 497 q 101 613 71 567 q 179 686 132 658 q 285 726 226 714 q 404 738 344 738 q 514 730 458 738 q 615 700 569 722 q 690 638 661 678 q 719 533 719 599 l 719 160 q 725 67 719 111 q 744 0 731 22 l 544 0 q 535 34 539 17 q 531 69 532 51 q 419 1 483 21 q 289 -18 356 -18 q 193 -6 238 -18 q 115 33 149 7 q 63 100 82 60 q 44 196 44 140 q 66 297 44 257 q 122 360 88 336 q 199 395 156 383 q 288 414 243 407 q 375 425 332 421 q 451 438 418 429 q 504 462 485 446 q 522 508 524 478 q 512 559 522 540 q 484 588 501 578 q 444 602 467 599 q 394 606 421 606 q 303 581 336 606 q 264 497 269 556 l 67 497 m 522 351 q 491 334 510 340 q 451 324 472 328 q 406 317 429 319 q 358 310 382 314 q 315 299 336 306 q 277 280 293 292 q 251 250 261 268 q 242 204 242 232 q 251 160 242 178 q 278 131 261 142 q 317 117 294 121 q 363 113 339 113 q 453 132 421 113 q 500 178 485 151 q 519 233 515 206 q 522 278 522 261 l 522 351 "},"á":{"ha":797,"x_min":44,"x_max":744,"o":"m 432 807 l 294 807 l 428 1004 l 646 1004 l 432 807 m 67 497 q 101 613 71 567 q 179 686 132 658 q 285 726 226 714 q 404 738 344 738 q 514 730 458 738 q 615 700 569 722 q 690 638 661 678 q 719 533 719 599 l 719 160 q 725 67 719 111 q 744 0 731 22 l 544 0 q 535 34 539 17 q 531 69 532 51 q 419 1 483 21 q 289 -18 356 -18 q 193 -6 238 -18 q 115 33 149 7 q 63 100 82 60 q 44 196 44 140 q 66 297 44 257 q 122 360 88 336 q 199 395 156 383 q 288 414 243 407 q 375 425 332 421 q 451 438 418 429 q 504 462 485 446 q 522 508 524 478 q 512 559 522 540 q 484 588 501 578 q 444 602 467 599 q 394 606 421 606 q 303 581 336 606 q 264 497 269 556 l 67 497 m 522 351 q 491 334 510 340 q 451 324 472 328 q 406 317 429 319 q 358 310 382 314 q 315 299 336 306 q 277 280 293 292 q 251 250 261 268 q 242 204 242 232 q 251 160 242 178 q 278 131 261 142 q 317 117 294 121 q 363 113 339 113 q 453 132 421 113 q 500 178 485 151 q 519 233 515 206 q 522 278 522 261 l 522 351 "},"â":{"ha":797,"x_min":44,"x_max":744,"o":"m 310 1004 l 490 1004 l 643 807 l 481 807 l 394 919 l 306 807 l 156 807 l 310 1004 m 67 497 q 101 613 71 567 q 179 686 132 658 q 285 726 226 714 q 404 738 344 738 q 514 730 458 738 q 615 700 569 722 q 690 638 661 678 q 719 533 719 599 l 719 160 q 725 67 719 111 q 744 0 731 22 l 544 0 q 535 34 539 17 q 531 69 532 51 q 419 1 483 21 q 289 -18 356 -18 q 193 -6 238 -18 q 115 33 149 7 q 63 100 82 60 q 44 196 44 140 q 66 297 44 257 q 122 360 88 336 q 199 395 156 383 q 288 414 243 407 q 375 425 332 421 q 451 438 418 429 q 504 462 485 446 q 522 508 524 478 q 512 559 522 540 q 484 588 501 578 q 444 602 467 599 q 394 606 421 606 q 303 581 336 606 q 264 497 269 556 l 67 497 m 522 351 q 491 334 510 340 q 451 324 472 328 q 406 317 429 319 q 358 310 382 314 q 315 299 336 306 q 277 280 293 292 q 251 250 261 268 q 242 204 242 232 q 251 160 242 178 q 278 131 261 142 q 317 117 294 121 q 363 113 339 113 q 453 132 421 113 q 500 178 485 151 q 519 233 515 206 q 522 278 522 261 l 522 351 "},"ã":{"ha":797,"x_min":44,"x_max":744,"o":"m 654 992 q 638 940 647 968 q 612 889 629 913 q 567 849 594 865 q 499 833 540 833 q 439 841 467 833 q 385 857 411 849 q 335 874 358 867 q 288 881 311 881 q 248 865 260 881 q 229 822 236 849 l 144 822 q 163 883 151 853 q 193 937 174 913 q 243 976 213 961 q 319 992 274 992 q 365 984 343 992 q 408 968 386 976 q 453 951 431 958 q 500 943 476 943 q 546 958 532 943 q 558 992 560 972 l 654 992 m 67 497 q 101 613 71 567 q 179 686 132 658 q 285 726 226 714 q 404 738 344 738 q 514 730 458 738 q 615 700 569 722 q 690 638 661 678 q 719 533 719 599 l 719 160 q 725 67 719 111 q 744 0 731 22 l 544 0 q 535 34 539 17 q 531 69 532 51 q 419 1 483 21 q 289 -18 356 -18 q 193 -6 238 -18 q 115 33 149 7 q 63 100 82 60 q 44 196 44 140 q 66 297 44 257 q 122 360 88 336 q 199 395 156 383 q 288 414 243 407 q 375 425 332 421 q 451 438 418 429 q 504 462 485 446 q 522 508 524 478 q 512 559 522 540 q 484 588 501 578 q 444 602 467 599 q 394 606 421 606 q 303 581 336 606 q 264 497 269 556 l 67 497 m 522 351 q 491 334 510 340 q 451 324 472 328 q 406 317 429 319 q 358 310 382 314 q 315 299 336 306 q 277 280 293 292 q 251 250 261 268 q 242 204 242 232 q 251 160 242 178 q 278 131 261 142 q 317 117 294 121 q 363 113 339 113 q 453 132 421 113 q 500 178 485 151 q 519 233 515 206 q 522 278 522 261 l 522 351 "},"ä":{"ha":797,"x_min":44,"x_max":744,"o":"m 163 992 l 350 992 l 350 829 l 163 829 l 163 992 m 449 992 l 636 992 l 636 829 l 449 829 l 449 992 m 67 497 q 101 613 71 567 q 179 686 132 658 q 285 726 226 714 q 404 738 344 738 q 514 730 458 738 q 615 700 569 722 q 690 638 661 678 q 719 533 719 599 l 719 160 q 725 67 719 111 q 744 0 731 22 l 544 0 q 535 34 539 17 q 531 69 532 51 q 419 1 483 21 q 289 -18 356 -18 q 193 -6 238 -18 q 115 33 149 7 q 63 100 82 60 q 44 196 44 140 q 66 297 44 257 q 122 360 88 336 q 199 395 156 383 q 288 414 243 407 q 375 425 332 421 q 451 438 418 429 q 504 462 485 446 q 522 508 524 478 q 512 559 522 540 q 484 588 501 578 q 444 602 467 599 q 394 606 421 606 q 303 581 336 606 q 264 497 269 556 l 67 497 m 522 351 q 491 334 510 340 q 451 324 472 328 q 406 317 429 319 q 358 310 382 314 q 315 299 336 306 q 277 280 293 292 q 251 250 261 268 q 242 204 242 232 q 251 160 242 178 q 278 131 261 142 q 317 117 294 121 q 363 113 339 113 q 453 132 421 113 q 500 178 485 151 q 519 233 515 206 q 522 278 522 261 l 522 351 "},"å":{"ha":797,"x_min":44,"x_max":744,"o":"m 229 911 q 242 978 229 947 q 278 1031 256 1008 q 333 1067 301 1054 q 399 1081 364 1081 q 465 1067 435 1081 q 519 1031 496 1054 q 556 978 543 1008 q 569 911 569 947 q 556 845 569 876 q 519 791 543 814 q 465 755 496 768 q 399 742 435 742 q 333 755 364 742 q 278 791 301 768 q 242 845 256 814 q 229 911 229 876 m 311 911 q 335 842 311 871 q 399 814 358 814 q 463 842 439 814 q 488 911 488 871 q 463 980 488 951 q 399 1008 439 1008 q 335 980 358 1008 q 311 911 311 951 m 67 497 q 101 613 71 567 q 179 686 132 658 q 285 726 226 714 q 404 738 344 738 q 514 730 458 738 q 615 700 569 722 q 690 638 661 678 q 719 533 719 599 l 719 160 q 725 67 719 111 q 744 0 731 22 l 544 0 q 535 34 539 17 q 531 69 532 51 q 419 1 483 21 q 289 -18 356 -18 q 193 -6 238 -18 q 115 33 149 7 q 63 100 82 60 q 44 196 44 140 q 66 297 44 257 q 122 360 88 336 q 199 395 156 383 q 288 414 243 407 q 375 425 332 421 q 451 438 418 429 q 504 462 485 446 q 522 508 524 478 q 512 559 522 540 q 484 588 501 578 q 444 602 467 599 q 394 606 421 606 q 303 581 336 606 q 264 497 269 556 l 67 497 m 522 351 q 491 334 510 340 q 451 324 472 328 q 406 317 429 319 q 358 310 382 314 q 315 299 336 306 q 277 280 293 292 q 251 250 261 268 q 242 204 242 232 q 251 160 242 178 q 278 131 261 142 q 317 117 294 121 q 363 113 339 113 q 453 132 421 113 q 500 178 485 151 q 519 233 515 206 q 522 278 522 261 l 522 351 "},"æ":{"ha":1260,"x_min":53,"x_max":1219,"o":"m 1022 436 q 1013 500 1022 469 q 983 554 1003 531 q 934 592 963 578 q 868 606 906 606 q 801 592 831 606 q 750 554 771 578 q 718 500 729 531 q 707 436 707 469 l 1022 436 m 707 311 q 717 240 706 276 q 750 176 728 204 q 804 131 772 149 q 878 113 836 113 q 978 142 944 113 q 1021 225 1011 172 l 1213 225 q 1165 122 1197 167 q 1090 45 1133 76 q 994 -2 1047 14 q 882 -18 940 -18 q 732 10 804 -18 q 614 103 660 38 q 555 47 589 69 q 483 9 521 24 q 403 -12 444 -6 q 321 -18 361 -18 q 222 -8 269 -18 q 136 28 174 3 q 76 94 99 53 q 53 194 53 135 q 74 295 53 256 q 128 359 94 335 q 206 395 163 383 q 293 414 249 407 q 401 431 356 424 q 477 447 447 438 q 521 471 507 456 q 535 514 535 486 q 524 560 535 542 q 494 588 513 578 q 453 602 476 599 q 407 606 431 606 q 310 581 349 606 q 269 494 272 557 l 72 494 q 105 609 75 563 q 181 684 135 656 q 288 725 228 713 q 411 738 349 738 q 476 733 443 738 q 542 717 510 728 q 601 687 574 706 q 649 640 629 668 q 746 713 690 689 q 889 738 801 738 q 1042 702 979 738 q 1144 608 1104 667 q 1201 472 1183 549 q 1219 311 1219 394 l 707 311 m 535 350 q 488 328 517 335 q 428 316 460 321 q 365 306 397 311 q 308 290 333 301 q 266 260 282 279 q 250 206 250 240 q 260 161 250 179 q 288 132 271 143 q 328 117 306 121 q 372 113 350 113 q 428 121 400 113 q 481 147 457 129 q 519 194 504 165 q 535 261 535 222 l 535 350 "},"ç":{"ha":797,"x_min":53,"x_max":761,"o":"m 564 465 q 418 589 544 589 q 339 567 371 589 q 287 512 307 546 q 258 437 267 478 q 250 356 250 396 q 258 276 250 317 q 285 203 267 236 q 336 150 304 171 q 414 129 368 129 q 523 169 485 129 q 571 275 561 208 l 761 275 q 656 62 743 136 q 432 -17 569 -12 l 393 -72 l 396 -72 q 443 -65 413 -65 q 490 -71 467 -65 q 531 -88 513 -76 q 560 -119 549 -100 q 571 -162 571 -137 q 557 -230 571 -203 q 520 -273 543 -257 q 468 -295 497 -289 q 408 -301 439 -301 q 351 -299 375 -301 q 309 -293 328 -297 q 273 -283 290 -289 q 236 -271 256 -278 l 265 -204 q 317 -222 288 -214 q 382 -229 346 -229 q 422 -218 407 -229 q 438 -182 438 -207 q 422 -147 438 -156 q 382 -137 406 -137 q 326 -147 351 -137 l 297 -114 l 367 -14 q 238 22 296 -7 q 139 99 181 51 q 75 210 97 147 q 53 349 53 274 q 77 503 53 432 q 149 627 101 575 q 264 708 196 679 q 419 738 332 738 q 542 721 483 738 q 648 670 601 704 q 724 585 694 636 q 757 465 753 535 l 564 465 "},"è":{"ha":797,"x_min":40,"x_max":756,"o":"m 153 1004 l 371 1004 l 504 807 l 367 807 l 153 1004 m 558 436 q 509 550 544 511 q 401 589 474 589 q 323 573 354 589 q 273 533 292 557 q 247 483 254 510 q 238 436 239 457 l 558 436 m 238 311 q 286 172 242 215 q 414 129 331 129 q 517 159 474 129 q 569 222 560 189 l 743 222 q 615 38 701 93 q 407 -18 529 -18 q 254 9 322 -18 q 139 86 186 36 q 66 206 92 136 q 40 358 40 275 q 67 508 40 439 q 142 628 93 578 q 258 708 190 679 q 407 738 325 738 q 567 702 499 738 q 678 607 635 667 q 742 471 722 547 q 756 311 761 394 l 238 311 "},"é":{"ha":797,"x_min":40,"x_max":756,"o":"m 432 807 l 294 807 l 428 1004 l 646 1004 l 432 807 m 558 436 q 509 550 544 511 q 401 589 474 589 q 323 573 354 589 q 273 533 292 557 q 247 483 254 510 q 238 436 239 457 l 558 436 m 238 311 q 286 172 242 215 q 414 129 331 129 q 517 159 474 129 q 569 222 560 189 l 743 222 q 615 38 701 93 q 407 -18 529 -18 q 254 9 322 -18 q 139 86 186 36 q 66 206 92 136 q 40 358 40 275 q 67 508 40 439 q 142 628 93 578 q 258 708 190 679 q 407 738 325 738 q 567 702 499 738 q 678 607 635 667 q 742 471 722 547 q 756 311 761 394 l 238 311 "},"ê":{"ha":797,"x_min":40,"x_max":756,"o":"m 310 1004 l 490 1004 l 643 807 l 481 807 l 394 919 l 306 807 l 156 807 l 310 1004 m 558 436 q 509 550 544 511 q 401 589 474 589 q 323 573 354 589 q 273 533 292 557 q 247 483 254 510 q 238 436 239 457 l 558 436 m 238 311 q 286 172 242 215 q 414 129 331 129 q 517 159 474 129 q 569 222 560 189 l 743 222 q 615 38 701 93 q 407 -18 529 -18 q 254 9 322 -18 q 139 86 186 36 q 66 206 92 136 q 40 358 40 275 q 67 508 40 439 q 142 628 93 578 q 258 708 190 679 q 407 738 325 738 q 567 702 499 738 q 678 607 635 667 q 742 471 722 547 q 756 311 761 394 l 238 311 "},"ë":{"ha":797,"x_min":40,"x_max":756,"o":"m 163 992 l 350 992 l 350 829 l 163 829 l 163 992 m 449 992 l 636 992 l 636 829 l 449 829 l 449 992 m 558 436 q 509 550 544 511 q 401 589 474 589 q 323 573 354 589 q 273 533 292 557 q 247 483 254 510 q 238 436 239 457 l 558 436 m 238 311 q 286 172 242 215 q 414 129 331 129 q 517 159 474 129 q 569 222 560 189 l 743 222 q 615 38 701 93 q 407 -18 529 -18 q 254 9 322 -18 q 139 86 186 36 q 66 206 92 136 q 40 358 40 275 q 67 508 40 439 q 142 628 93 578 q 258 708 190 679 q 407 738 325 738 q 567 702 499 738 q 678 607 635 667 q 742 471 722 547 q 756 311 761 394 l 238 311 "},"ì":{"ha":358,"x_min":-65,"x_max":285,"o":"m -65 1004 l 151 1004 l 285 807 l 147 807 l -65 1004 m 81 718 l 278 718 l 278 0 l 81 0 l 81 718 "},"í":{"ha":358,"x_min":75,"x_max":426,"o":"m 213 807 l 75 807 l 208 1004 l 426 1004 l 213 807 m 81 718 l 278 718 l 278 0 l 81 0 l 81 718 "},"î":{"ha":358,"x_min":-62,"x_max":424,"o":"m 90 1004 l 271 1004 l 424 807 l 261 807 l 175 919 l 86 807 l -62 807 l 90 1004 m 81 718 l 278 718 l 278 0 l 81 0 l 81 718 "},"ï":{"ha":358,"x_min":-56,"x_max":417,"o":"m -56 992 l 131 992 l 131 829 l -56 829 l -56 992 m 229 992 l 417 992 l 417 829 l 229 829 l 229 992 m 81 718 l 278 718 l 278 0 l 81 0 l 81 718 "},"ð":{"ha":849,"x_min":53,"x_max":796,"o":"m 333 899 q 274 938 303 921 q 217 968 244 954 l 344 1064 q 482 972 419 1022 l 653 1058 l 725 976 l 567 897 q 739 665 679 789 q 796 379 799 542 q 769 220 796 293 q 694 94 743 147 q 577 12 646 42 q 424 -18 508 -18 q 271 8 339 -18 q 154 83 203 35 q 79 197 106 131 q 53 343 53 264 q 72 472 53 408 q 129 588 90 536 q 228 671 168 639 q 372 703 289 703 q 462 692 413 703 q 560 647 511 681 l 563 647 q 497 749 538 706 q 421 824 456 793 l 265 746 l 185 824 l 333 899 m 424 129 q 508 149 474 129 q 562 201 542 168 q 590 274 582 233 q 599 358 599 315 q 589 435 599 397 q 558 503 579 474 q 504 552 538 533 q 422 571 471 571 q 342 552 375 571 q 288 503 308 533 q 259 434 268 472 q 250 358 250 396 q 258 274 250 315 q 287 201 267 233 q 340 149 307 168 q 424 129 374 129 "},"ñ":{"ha":824,"x_min":75,"x_max":749,"o":"m 667 992 q 651 940 660 968 q 624 889 642 913 q 580 849 607 865 q 511 833 553 833 q 451 841 479 833 q 397 857 424 849 q 347 874 371 867 q 300 881 324 881 q 260 865 272 881 q 242 822 249 849 l 157 822 q 175 883 164 853 q 206 937 186 913 q 256 976 225 961 q 332 992 286 992 q 377 984 356 992 q 421 968 399 976 q 466 951 443 958 q 513 943 489 943 q 558 958 544 943 q 571 992 572 972 l 667 992 m 75 718 l 263 718 l 263 618 l 267 618 q 364 709 304 681 q 486 738 424 738 q 616 716 565 738 q 696 656 667 694 q 737 563 725 618 q 749 442 749 508 l 749 0 l 551 0 l 551 406 q 524 538 551 494 q 425 582 496 582 q 308 534 344 582 q 272 376 272 486 l 272 0 l 75 0 l 75 718 "},"ò":{"ha":849,"x_min":53,"x_max":796,"o":"m 178 1004 l 396 1004 l 529 807 l 392 807 l 178 1004 m 250 358 q 258 274 250 315 q 287 201 267 233 q 340 149 307 168 q 424 129 374 129 q 508 149 474 129 q 562 201 542 168 q 590 274 582 233 q 599 358 599 315 q 590 443 599 401 q 562 517 582 485 q 508 569 542 549 q 424 589 474 589 q 340 569 374 589 q 287 517 307 549 q 258 443 267 485 q 250 358 250 401 m 53 358 q 79 515 53 444 q 154 634 106 585 q 271 710 203 683 q 424 738 339 738 q 577 710 508 738 q 694 634 646 683 q 769 515 743 585 q 796 358 796 444 q 769 203 796 272 q 694 84 743 133 q 577 8 646 35 q 424 -18 508 -18 q 271 8 339 -18 q 154 84 203 35 q 79 203 106 133 q 53 358 53 272 "},"ó":{"ha":849,"x_min":53,"x_max":796,"o":"m 457 807 l 319 807 l 453 1004 l 671 1004 l 457 807 m 250 358 q 258 274 250 315 q 287 201 267 233 q 340 149 307 168 q 424 129 374 129 q 508 149 474 129 q 562 201 542 168 q 590 274 582 233 q 599 358 599 315 q 590 443 599 401 q 562 517 582 485 q 508 569 542 549 q 424 589 474 589 q 340 569 374 589 q 287 517 307 549 q 258 443 267 485 q 250 358 250 401 m 53 358 q 79 515 53 444 q 154 634 106 585 q 271 710 203 683 q 424 738 339 738 q 577 710 508 738 q 694 634 646 683 q 769 515 743 585 q 796 358 796 444 q 769 203 796 272 q 694 84 743 133 q 577 8 646 35 q 424 -18 508 -18 q 271 8 339 -18 q 154 84 203 35 q 79 203 106 133 q 53 358 53 272 "},"ô":{"ha":849,"x_min":53,"x_max":796,"o":"m 335 1004 l 515 1004 l 668 807 l 506 807 l 419 919 l 331 807 l 181 807 l 335 1004 m 250 358 q 258 274 250 315 q 287 201 267 233 q 340 149 307 168 q 424 129 374 129 q 508 149 474 129 q 562 201 542 168 q 590 274 582 233 q 599 358 599 315 q 590 443 599 401 q 562 517 582 485 q 508 569 542 549 q 424 589 474 589 q 340 569 374 589 q 287 517 307 549 q 258 443 267 485 q 250 358 250 401 m 53 358 q 79 515 53 444 q 154 634 106 585 q 271 710 203 683 q 424 738 339 738 q 577 710 508 738 q 694 634 646 683 q 769 515 743 585 q 796 358 796 444 q 769 203 796 272 q 694 84 743 133 q 577 8 646 35 q 424 -18 508 -18 q 271 8 339 -18 q 154 84 203 35 q 79 203 106 133 q 53 358 53 272 "},"õ":{"ha":849,"x_min":53,"x_max":796,"o":"m 679 992 q 663 940 672 968 q 637 889 654 913 q 592 849 619 865 q 524 833 565 833 q 464 841 492 833 q 410 857 436 849 q 360 874 383 867 q 313 881 336 881 q 273 865 285 881 q 254 822 261 849 l 169 822 q 188 883 176 853 q 218 937 199 913 q 268 976 238 961 q 344 992 299 992 q 390 984 368 992 q 433 968 411 976 q 478 951 456 958 q 525 943 501 943 q 571 958 557 943 q 583 992 585 972 l 679 992 m 250 358 q 258 274 250 315 q 287 201 267 233 q 340 149 307 168 q 424 129 374 129 q 508 149 474 129 q 562 201 542 168 q 590 274 582 233 q 599 358 599 315 q 590 443 599 401 q 562 517 582 485 q 508 569 542 549 q 424 589 474 589 q 340 569 374 589 q 287 517 307 549 q 258 443 267 485 q 250 358 250 401 m 53 358 q 79 515 53 444 q 154 634 106 585 q 271 710 203 683 q 424 738 339 738 q 577 710 508 738 q 694 634 646 683 q 769 515 743 585 q 796 358 796 444 q 769 203 796 272 q 694 84 743 133 q 577 8 646 35 q 424 -18 508 -18 q 271 8 339 -18 q 154 84 203 35 q 79 203 106 133 q 53 358 53 272 "},"ö":{"ha":849,"x_min":53,"x_max":796,"o":"m 188 992 l 375 992 l 375 829 l 188 829 l 188 992 m 474 992 l 661 992 l 661 829 l 474 829 l 474 992 m 250 358 q 258 274 250 315 q 287 201 267 233 q 340 149 307 168 q 424 129 374 129 q 508 149 474 129 q 562 201 542 168 q 590 274 582 233 q 599 358 599 315 q 590 443 599 401 q 562 517 582 485 q 508 569 542 549 q 424 589 474 589 q 340 569 374 589 q 287 517 307 549 q 258 443 267 485 q 250 358 250 401 m 53 358 q 79 515 53 444 q 154 634 106 585 q 271 710 203 683 q 424 738 339 738 q 577 710 508 738 q 694 634 646 683 q 769 515 743 585 q 796 358 796 444 q 769 203 796 272 q 694 84 743 133 q 577 8 646 35 q 424 -18 508 -18 q 271 8 339 -18 q 154 84 203 35 q 79 203 106 133 q 53 358 53 272 "},"÷":{"ha":833,"x_min":67,"x_max":768,"o":"m 300 63 q 310 108 300 88 q 335 145 319 129 q 373 170 351 161 q 418 179 394 179 q 463 170 442 179 q 499 145 483 161 q 525 108 515 129 q 535 63 535 88 q 525 21 535 42 q 500 -17 515 0 q 464 -44 485 -33 q 419 -54 443 -54 q 373 -44 394 -54 q 335 -19 351 -35 q 310 19 319 -3 q 300 63 300 40 m 300 639 q 335 723 300 689 q 418 757 371 757 q 463 748 442 757 q 499 723 483 739 q 525 685 515 707 q 535 639 535 664 q 525 596 535 617 q 500 558 515 575 q 464 532 485 542 q 419 522 443 522 q 373 531 394 522 q 335 556 351 540 q 310 594 319 572 q 300 639 300 615 m 67 425 l 768 425 l 768 276 l 67 276 l 67 425 "},"ø":{"ha":849,"x_min":53,"x_max":796,"o":"m 144 96 q 53 358 53 196 q 79 515 53 444 q 154 634 106 585 q 271 710 203 683 q 424 738 339 738 q 650 671 557 738 l 724 756 l 775 711 l 700 626 q 771 510 746 578 q 796 358 796 442 q 769 203 796 272 q 694 84 743 133 q 577 8 646 35 q 424 -18 508 -18 q 194 50 288 -18 l 113 -42 l 61 1 l 144 96 m 306 176 q 354 142 325 154 q 424 129 383 129 q 508 149 474 129 q 562 201 542 168 q 590 274 582 233 q 599 358 599 315 q 593 424 599 392 q 576 485 588 457 l 306 176 m 539 544 q 424 589 497 589 q 340 569 374 589 q 287 517 307 549 q 258 443 267 485 q 250 358 250 401 q 255 296 250 326 q 271 239 260 265 l 539 544 "},"ù":{"ha":824,"x_min":75,"x_max":749,"o":"m 165 1004 l 383 1004 l 517 807 l 379 807 l 165 1004 m 749 0 l 561 0 l 561 100 l 557 100 q 460 10 519 38 q 338 -18 400 -18 q 208 3 258 -18 q 128 62 157 24 q 87 155 99 100 q 75 276 75 210 l 75 718 l 272 718 l 272 313 q 300 180 272 224 q 399 136 328 136 q 515 184 479 136 q 551 342 551 232 l 551 718 l 749 718 l 749 0 "},"ú":{"ha":824,"x_min":75,"x_max":749,"o":"m 444 807 l 307 807 l 440 1004 l 658 1004 l 444 807 m 749 0 l 561 0 l 561 100 l 557 100 q 460 10 519 38 q 338 -18 400 -18 q 208 3 258 -18 q 128 62 157 24 q 87 155 99 100 q 75 276 75 210 l 75 718 l 272 718 l 272 313 q 300 180 272 224 q 399 136 328 136 q 515 184 479 136 q 551 342 551 232 l 551 718 l 749 718 l 749 0 "},"û":{"ha":824,"x_min":75,"x_max":749,"o":"m 322 1004 l 503 1004 l 656 807 l 493 807 l 407 919 l 318 807 l 168 807 l 322 1004 m 749 0 l 561 0 l 561 100 l 557 100 q 460 10 519 38 q 338 -18 400 -18 q 208 3 258 -18 q 128 62 157 24 q 87 155 99 100 q 75 276 75 210 l 75 718 l 272 718 l 272 313 q 300 180 272 224 q 399 136 328 136 q 515 184 479 136 q 551 342 551 232 l 551 718 l 749 718 l 749 0 "},"ü":{"ha":824,"x_min":75,"x_max":749,"o":"m 175 992 l 363 992 l 363 829 l 175 829 l 175 992 m 461 992 l 649 992 l 649 829 l 461 829 l 461 992 m 749 0 l 561 0 l 561 100 l 557 100 q 460 10 519 38 q 338 -18 400 -18 q 208 3 258 -18 q 128 62 157 24 q 87 155 99 100 q 75 276 75 210 l 75 718 l 272 718 l 272 313 q 300 180 272 224 q 399 136 328 136 q 515 184 479 136 q 551 342 551 232 l 551 718 l 749 718 l 749 0 "},"ý":{"ha":721,"x_min":-7,"x_max":729,"o":"m 393 807 l 256 807 l 389 1004 l 607 1004 l 393 807 m 429 -89 q 340 -214 397 -176 q 182 -251 283 -251 q 122 -249 151 -251 q 61 -244 92 -247 l 61 -82 q 118 -87 89 -85 q 176 -89 147 -90 q 234 -58 215 -85 q 253 0 253 -32 q 244 44 253 24 l -7 718 l 203 718 l 365 226 l 368 226 l 525 718 l 729 718 l 429 -89 "},"þ":{"ha":849,"x_min":75,"x_max":806,"o":"m 608 357 q 599 442 608 400 q 569 516 590 483 q 516 569 549 549 q 436 589 483 589 q 355 569 388 589 q 302 517 322 549 q 274 443 282 485 q 265 357 265 401 q 274 272 265 314 q 303 199 283 231 q 357 149 324 168 q 438 129 390 129 q 519 149 486 129 q 572 199 551 168 q 600 272 592 231 q 608 357 608 314 m 75 992 l 272 992 l 272 626 l 275 626 q 365 711 311 685 q 479 738 419 738 q 625 706 564 738 q 726 621 686 674 q 786 498 767 568 q 806 351 806 428 q 786 213 806 279 q 727 94 767 146 q 628 13 688 43 q 490 -18 569 -18 q 367 9 424 -18 q 275 89 311 36 l 272 89 l 272 -251 l 75 -251 l 75 992 "},"ÿ":{"ha":721,"x_min":-7,"x_max":729,"o":"m 124 992 l 311 992 l 311 829 l 124 829 l 124 992 m 410 992 l 597 992 l 597 829 l 410 829 l 410 992 m 429 -89 q 340 -214 397 -176 q 182 -251 283 -251 q 122 -249 151 -251 q 61 -244 92 -247 l 61 -82 q 118 -87 89 -85 q 176 -89 147 -90 q 234 -58 215 -85 q 253 0 253 -32 q 244 44 253 24 l -7 718 l 203 718 l 365 226 l 368 226 l 525 718 l 729 718 l 429 -89 "},"Ą":{"ha":951,"x_min":-8,"x_max":961,"o":"m 775 -301 q 871 -281 822 -301 q 961 -207 919 -260 l 894 -176 q 856 -210 875 -203 q 814 -218 836 -218 q 776 -205 793 -218 q 760 -171 760 -192 q 783 -94 760 -135 q 869 0 807 -57 l 961 0 l 590 992 l 367 992 l -8 0 l 211 0 l 289 221 l 660 221 l 735 0 l 776 0 q 694 -58 724 -31 q 647 -110 663 -87 q 629 -150 632 -133 q 626 -176 626 -167 q 644 -246 626 -221 q 688 -283 663 -271 q 738 -299 713 -296 q 775 -301 763 -301 m 603 383 l 346 383 l 475 747 l 478 747 l 603 383 "},"ą":{"ha":797,"x_min":44,"x_max":744,"o":"m 558 -301 q 654 -281 606 -301 q 744 -207 703 -260 l 678 -176 q 639 -210 658 -203 q 597 -218 619 -218 q 560 -205 576 -218 q 543 -171 543 -192 q 567 -94 543 -135 q 653 0 590 -57 l 744 0 q 725 67 731 22 q 719 160 719 111 l 719 533 q 690 638 719 599 q 615 700 661 678 q 514 730 569 722 q 404 738 458 738 q 285 726 344 738 q 179 686 226 714 q 101 613 132 658 q 67 497 71 567 l 264 497 q 303 581 269 556 q 394 606 336 606 q 444 602 421 606 q 484 588 467 599 q 512 559 501 578 q 522 508 522 540 q 504 462 524 478 q 451 438 485 446 q 375 425 418 429 q 288 414 332 421 q 199 395 243 407 q 122 360 156 383 q 66 297 88 336 q 44 196 44 257 q 63 100 44 140 q 115 33 82 60 q 193 -6 149 7 q 289 -18 238 -18 q 419 1 356 -18 q 531 69 483 21 q 535 34 532 51 q 544 0 539 17 l 560 0 q 478 -58 507 -31 q 431 -110 446 -87 q 413 -150 415 -133 q 410 -176 410 -167 q 428 -246 410 -221 q 471 -283 446 -271 q 521 -299 496 -296 q 558 -301 546 -301 m 363 113 q 317 117 339 113 q 278 131 294 121 q 251 160 261 142 q 242 204 242 178 q 251 250 242 232 q 277 280 261 268 q 315 299 293 292 q 358 310 336 306 q 406 317 382 314 q 451 324 429 319 q 491 334 472 328 q 522 351 510 340 l 522 278 q 519 233 522 261 q 500 178 515 206 q 453 132 485 151 q 363 113 421 113 "},"Ć":{"ha":1029,"x_min":53,"x_max":976,"o":"m 757 658 l 757 658 l 968 658 q 921 811 958 744 q 826 923 883 878 q 695 992 768 968 q 540 1015 622 1015 q 335 975 426 1015 q 182 864 244 935 q 86 698 119 793 q 53 492 53 603 q 86 290 53 383 q 182 126 119 196 q 335 17 244 57 q 540 -22 426 -22 q 708 6 632 -22 q 842 86 785 33 q 933 214 899 139 q 976 382 968 289 l 765 382 q 697 221 753 282 q 540 160 640 160 q 415 188 467 160 q 332 264 364 217 q 285 370 300 311 q 271 492 271 429 q 285 618 271 557 q 332 727 300 679 q 415 803 364 775 q 540 832 467 832 q 617 819 581 832 q 683 782 654 806 q 732 727 713 758 q 757 658 751 696 m 422 1081 l 560 1081 l 774 1278 l 556 1278 l 422 1081 "},"ć":{"ha":797,"x_min":53,"x_max":761,"o":"m 564 465 l 564 465 l 757 465 q 724 585 753 535 q 648 670 694 636 q 542 721 601 704 q 419 738 483 738 q 264 708 332 738 q 149 627 196 679 q 77 503 101 575 q 53 349 53 432 q 79 201 53 268 q 153 85 106 133 q 267 9 200 36 q 415 -18 335 -18 q 650 57 558 -18 q 761 275 742 132 l 571 275 q 523 169 561 208 q 414 129 485 129 q 336 150 368 129 q 285 203 304 171 q 258 276 267 236 q 250 356 250 317 q 258 437 250 396 q 287 512 267 478 q 339 567 307 546 q 418 589 371 589 q 564 465 544 589 m 306 807 l 443 807 l 657 1004 l 439 1004 l 306 807 "},"Ę":{"ha":900,"x_min":96,"x_max":849,"o":"m 663 -301 q 758 -281 710 -301 q 849 -207 807 -260 l 782 -176 q 743 -210 763 -203 q 701 -218 724 -218 q 664 -205 681 -218 q 647 -171 647 -192 q 671 -94 647 -135 q 757 0 694 -57 l 849 0 l 849 183 l 314 183 l 314 426 l 794 426 l 794 596 l 314 596 l 314 808 l 838 808 l 838 992 l 96 992 l 96 0 l 664 0 q 582 -58 611 -31 q 535 -110 550 -87 q 517 -150 519 -133 q 514 -176 514 -167 q 532 -246 514 -221 q 575 -283 550 -271 q 625 -299 600 -296 q 663 -301 650 -301 "},"ę":{"ha":797,"x_min":40,"x_max":756,"o":"m 385 -301 q 481 -281 432 -301 q 571 -207 529 -260 l 504 -176 q 465 -210 485 -203 q 424 -218 446 -218 q 386 -205 403 -218 q 369 -171 369 -192 q 393 -94 369 -135 q 464 -14 414 -61 q 615 38 550 -4 q 743 222 701 93 l 569 222 q 517 159 560 189 q 414 129 474 129 q 286 172 331 129 q 238 311 242 215 l 756 311 q 742 471 761 394 q 678 607 722 547 q 567 702 635 667 q 407 738 499 738 q 258 708 325 738 q 142 628 190 679 q 67 508 93 578 q 40 358 40 439 q 66 206 40 275 q 139 86 92 136 q 254 8 186 36 q 360 -15 303 -10 q 304 -58 326 -37 q 257 -110 272 -87 q 239 -150 242 -133 q 236 -176 236 -167 q 254 -246 236 -221 q 297 -283 272 -271 q 347 -299 322 -296 q 385 -301 372 -301 m 558 436 l 238 436 q 247 483 239 457 q 273 533 254 510 q 323 573 292 557 q 401 589 354 589 q 509 550 474 589 q 558 436 544 511 "},"ı":{"ha":358,"x_min":81,"x_max":278,"o":"m 81 718 l 278 718 l 278 0 l 81 0 l 81 718 "},"Ł":{"ha":824,"x_min":-14,"x_max":797,"o":"m 96 297 l -14 219 l -14 375 l 96 453 l 96 992 l 314 992 l 314 606 l 607 811 l 607 656 l 314 450 l 314 183 l 797 183 l 797 0 l 96 0 l 96 297 "},"ł":{"ha":358,"x_min":-11,"x_max":371,"o":"m 81 397 l -11 324 l -11 465 l 81 539 l 81 992 l 278 992 l 278 694 l 371 768 l 371 626 l 278 553 l 278 0 l 81 0 l 81 397 "},"Ń":{"ha":1029,"x_min":96,"x_max":933,"o":"m 313 992 l 96 992 l 96 0 l 300 0 l 300 664 l 303 664 l 715 0 l 933 0 l 933 992 l 729 992 l 729 326 l 726 326 l 313 992 m 422 1081 l 560 1081 l 774 1278 l 556 1278 l 422 1081 "},"ń":{"ha":824,"x_min":75,"x_max":749,"o":"m 263 718 l 75 718 l 75 0 l 272 0 l 272 376 q 308 534 272 486 q 425 582 344 582 q 524 538 496 582 q 551 406 551 494 l 551 0 l 749 0 l 749 442 q 737 563 749 508 q 696 656 725 618 q 616 716 667 694 q 486 738 565 738 q 364 709 424 738 q 267 618 304 681 l 263 618 l 263 718 m 292 807 l 429 807 l 643 1004 l 425 1004 l 292 807 "},"Œ":{"ha":1518,"x_min":53,"x_max":1460,"o":"m 747 622 q 731 708 747 669 q 687 774 715 746 q 619 817 658 801 q 533 832 579 832 q 411 802 461 832 q 330 724 361 772 q 285 616 299 676 q 271 493 271 556 q 285 372 271 432 q 330 265 299 313 q 410 189 361 218 q 529 160 460 160 q 688 222 629 160 q 747 386 747 285 l 747 622 m 756 75 l 753 75 q 644 2 708 26 q 514 -22 581 -22 q 318 19 404 -22 q 173 131 232 61 q 83 294 114 201 q 53 490 53 388 q 84 688 53 593 q 175 856 115 783 q 322 972 235 929 q 518 1015 408 1015 q 647 994 583 1015 q 753 921 711 974 l 756 921 l 756 992 l 1450 992 l 1450 808 l 958 808 l 958 596 l 1408 596 l 1408 426 l 958 426 l 958 183 l 1460 183 l 1460 0 l 756 0 l 756 75 "},"œ":{"ha":1286,"x_min":53,"x_max":1246,"o":"m 733 311 q 776 181 733 233 q 904 129 818 129 q 994 154 958 129 q 1049 228 1029 179 l 1240 228 q 1116 46 1206 110 q 904 -18 1026 -18 q 758 9 829 -18 q 644 103 686 36 q 597 47 625 69 q 534 9 568 24 q 463 -12 500 -6 q 390 -18 426 -18 q 244 13 307 -18 q 138 95 181 43 q 74 217 96 147 q 53 363 53 286 q 78 510 53 442 q 149 629 103 579 q 260 708 194 679 q 406 738 325 738 q 544 712 476 738 q 653 624 613 686 q 699 672 671 651 q 759 708 726 693 q 826 730 792 722 q 893 738 861 738 q 1056 703 989 738 q 1165 610 1122 668 q 1226 474 1207 551 q 1246 311 1246 397 l 733 311 m 403 129 q 483 151 453 129 q 531 206 514 172 q 555 281 549 240 q 561 361 561 322 q 556 438 561 397 q 533 511 550 478 q 487 567 517 544 q 407 589 457 589 q 331 568 361 589 q 283 514 301 547 q 258 439 265 481 q 250 356 250 397 q 257 278 250 318 q 282 206 264 239 q 329 151 300 172 q 403 129 358 129 m 1049 436 q 1007 548 1046 507 q 889 589 968 589 q 775 544 814 589 q 733 436 736 500 l 1049 436 "},"Ś":{"ha":901,"x_min":33,"x_max":868,"o":"m 244 329 l 244 329 l 33 329 q 67 171 32 238 q 160 61 101 104 q 297 -2 219 18 q 456 -22 374 -22 q 634 1 557 -22 q 763 67 711 25 q 842 168 815 110 q 868 294 868 226 q 833 431 868 378 q 749 517 797 485 q 651 563 700 549 q 574 583 601 578 q 423 622 481 607 q 333 653 365 638 q 289 686 300 668 q 278 733 278 704 q 292 786 278 765 q 327 821 306 807 q 375 840 349 835 q 428 846 401 846 q 502 839 468 846 q 563 815 536 832 q 605 769 589 799 q 624 696 621 740 l 835 696 q 802 842 835 782 q 714 942 769 903 q 587 998 658 981 q 438 1015 515 1015 q 304 997 371 1015 q 185 942 238 979 q 99 848 132 904 q 67 715 67 792 q 92 599 67 647 q 160 519 118 551 q 254 467 201 488 q 363 433 307 447 q 469 406 417 418 q 564 376 522 393 q 631 335 606 360 q 657 269 657 310 q 638 208 657 232 q 589 169 618 183 q 526 151 560 156 q 464 146 493 146 q 381 156 421 146 q 310 188 340 167 q 263 244 281 210 q 244 329 244 279 m 344 1081 l 482 1081 l 696 1278 l 478 1278 l 344 1081 "},"ś":{"ha":746,"x_min":40,"x_max":706,"o":"m 228 233 l 228 233 l 40 233 q 73 113 43 161 q 149 36 103 65 q 256 -6 196 7 q 378 -18 315 -18 q 498 -6 439 -18 q 603 35 557 6 q 677 112 649 64 q 706 231 706 160 q 686 315 706 281 q 635 372 667 349 q 562 408 603 394 q 478 432 521 422 q 396 450 436 442 q 324 469 356 458 q 274 496 293 479 q 254 539 254 513 q 265 574 254 561 q 292 594 276 588 q 328 603 308 601 q 364 606 347 606 q 456 585 417 606 q 499 508 494 565 l 686 508 q 652 619 681 575 q 581 689 624 663 q 483 726 538 715 q 369 738 428 738 q 256 727 311 738 q 156 691 200 717 q 84 621 111 665 q 57 507 57 576 q 76 427 57 460 q 128 373 96 394 q 201 338 160 351 q 285 315 242 325 q 449 271 390 293 q 508 204 508 249 q 496 160 508 178 q 465 133 483 143 q 423 117 446 122 q 379 113 400 113 q 323 119 350 113 q 275 141 296 126 q 241 178 254 156 q 228 233 228 201 m 281 807 l 418 807 l 632 1004 l 414 1004 l 281 807 "},"Š":{"ha":901,"x_min":33,"x_max":868,"o":"m 542 1081 l 361 1081 l 207 1278 l 363 1278 l 451 1165 l 542 1278 l 694 1278 l 542 1081 m 244 329 q 263 244 244 279 q 310 188 281 210 q 381 156 340 167 q 464 146 421 146 q 526 151 493 146 q 589 169 560 156 q 638 208 618 183 q 657 269 657 232 q 631 335 657 310 q 564 376 606 360 q 469 406 522 393 q 363 433 417 418 q 254 467 307 447 q 160 519 201 488 q 92 599 118 551 q 67 715 67 647 q 99 848 67 792 q 185 942 132 904 q 304 997 238 979 q 438 1015 371 1015 q 587 998 515 1015 q 714 942 658 981 q 802 842 769 903 q 835 696 835 782 l 624 696 q 605 769 621 740 q 563 815 589 799 q 502 839 536 832 q 428 846 468 846 q 375 840 401 846 q 327 821 349 835 q 292 786 306 807 q 278 733 278 765 q 289 686 278 704 q 333 653 300 668 q 423 622 365 638 q 574 583 481 607 q 651 563 601 578 q 749 517 700 549 q 833 431 797 485 q 868 294 868 378 q 842 168 868 226 q 763 67 815 110 q 634 1 711 25 q 456 -22 557 -22 q 297 -2 374 -22 q 160 61 219 18 q 67 171 101 104 q 33 329 32 238 l 244 329 "},"š":{"ha":746,"x_min":40,"x_max":706,"o":"m 464 807 l 283 807 l 129 1004 l 285 1004 l 374 892 l 464 1004 l 617 1004 l 464 807 m 228 233 q 241 178 228 201 q 275 141 254 156 q 323 119 296 126 q 379 113 350 113 q 423 117 400 113 q 465 133 446 122 q 496 160 483 143 q 508 204 508 178 q 449 271 508 249 q 285 315 390 293 q 201 338 242 325 q 128 373 160 351 q 76 427 96 394 q 57 507 57 460 q 84 621 57 576 q 156 691 111 665 q 256 727 200 717 q 369 738 311 738 q 483 726 428 738 q 581 689 538 715 q 652 619 624 663 q 686 508 681 575 l 499 508 q 456 585 494 565 q 364 606 417 606 q 328 603 347 606 q 292 594 308 601 q 265 574 276 588 q 254 539 254 561 q 274 496 254 513 q 324 469 293 479 q 396 450 356 458 q 478 432 436 442 q 562 408 521 422 q 635 372 603 394 q 686 315 667 349 q 706 231 706 281 q 677 112 706 160 q 603 35 649 64 q 498 -6 557 6 q 378 -18 439 -18 q 256 -6 315 -18 q 149 36 196 7 q 73 113 103 65 q 40 233 43 161 l 228 233 "},"Ÿ":{"ha":926,"x_min":-11,"x_max":939,"o":"m 226 1265 l 414 1265 l 414 1103 l 226 1103 l 226 1265 m 513 1265 l 700 1265 l 700 1103 l 513 1103 l 513 1265 m 353 386 l -11 992 l 233 992 l 465 600 l 696 992 l 939 992 l 571 381 l 571 0 l 353 0 l 353 386 "},"Ź":{"ha":900,"x_min":32,"x_max":868,"o":"m 564 808 l 32 172 l 32 0 l 868 0 l 868 183 l 322 183 l 854 819 l 854 992 l 74 992 l 74 808 l 564 808 m 343 1081 l 481 1081 l 694 1278 l 476 1278 l 343 1081 "},"ź":{"ha":721,"x_min":31,"x_max":690,"o":"m 404 569 l 31 149 l 31 0 l 690 0 l 690 149 l 290 149 l 664 569 l 664 718 l 58 718 l 58 569 l 404 569 m 254 807 l 392 807 l 606 1004 l 388 1004 l 254 807 "},"Ż":{"ha":900,"x_min":32,"x_max":868,"o":"m 564 808 l 32 172 l 32 0 l 868 0 l 868 183 l 322 183 l 854 819 l 854 992 l 74 992 l 74 808 l 564 808 m 543 1265 l 356 1265 l 356 1103 l 543 1103 l 543 1265 "},"ż":{"ha":721,"x_min":31,"x_max":690,"o":"m 404 569 l 31 149 l 31 0 l 690 0 l 690 149 l 290 149 l 664 569 l 664 718 l 58 718 l 58 569 l 404 569 m 454 992 l 267 992 l 267 829 l 454 829 l 454 992 "},"Ž":{"ha":900,"x_min":32,"x_max":868,"o":"m 542 1081 l 361 1081 l 207 1278 l 363 1278 l 451 1165 l 542 1278 l 694 1278 l 542 1081 m 32 172 l 564 808 l 74 808 l 74 992 l 854 992 l 854 819 l 322 183 l 868 183 l 868 0 l 32 0 l 32 172 "},"ž":{"ha":721,"x_min":31,"x_max":690,"o":"m 451 807 l 271 807 l 117 1004 l 272 1004 l 361 892 l 451 1004 l 604 1004 l 451 807 m 31 149 l 404 569 l 58 569 l 58 718 l 664 718 l 664 569 l 290 149 l 690 149 l 690 0 l 31 0 l 31 149 "},"Ə":{"ha":1039,"x_min":53,"x_max":986,"o":"m 522 -22 q 710 15 625 -22 q 857 121 796 53 q 952 285 918 189 q 986 497 986 381 q 953 700 986 606 q 857 865 919 794 q 704 975 794 935 q 500 1015 614 1015 q 340 990 414 1015 q 209 920 265 965 q 117 814 153 875 q 71 681 81 753 l 278 681 q 359 795 297 756 q 504 835 421 835 q 681 760 610 835 q 768 556 753 686 l 56 556 q 53 524 54 546 q 53 492 53 501 q 81 290 53 383 q 168 126 110 196 q 315 17 226 57 q 522 -22 403 -22 m 521 158 q 425 176 467 158 q 353 224 383 193 q 306 296 324 254 q 281 386 288 338 l 761 386 q 675 215 738 272 q 521 158 613 158 "},"ƒ":{"ha":772,"x_min":-6,"x_max":710,"o":"m 19 -82 q 75 -86 47 -86 q 147 -62 128 -87 q 175 11 167 -36 l 263 468 l 135 468 l 160 600 l 286 600 l 319 776 q 353 888 332 842 q 407 962 374 933 q 489 1003 440 990 q 606 1015 538 1015 q 710 1006 665 1015 l 685 857 q 656 865 669 864 q 629 867 643 867 q 553 846 575 867 q 524 781 532 825 l 489 600 l 625 600 l 603 468 l 464 468 l 386 38 q 356 -83 374 -32 q 306 -167 338 -133 q 224 -218 274 -201 q 96 -235 174 -235 q 46 -234 69 -235 q -6 -231 22 -233 l 19 -82 "},"Ƣ":{"ha":1281,"x_min":53,"x_max":1185,"o":"m 967 808 l 967 -251 l 1185 -251 l 1185 992 l 700 992 q 540 1015 625 1015 q 335 975 425 1015 q 182 864 244 935 q 86 697 119 793 q 53 492 53 601 q 86 290 53 383 q 182 126 119 196 q 335 17 244 57 q 540 -22 425 -22 q 707 3 632 -22 q 842 74 782 29 l 842 808 l 967 808 m 540 160 q 415 188 467 160 q 332 264 364 217 q 285 370 300 311 q 271 492 271 429 q 285 618 271 557 q 332 727 300 679 q 415 803 364 775 q 540 832 467 832 q 624 821 583 832 l 624 171 q 540 160 583 160 "},"ƣ":{"ha":1061,"x_min":53,"x_max":986,"o":"m 789 569 l 789 -251 l 986 -251 l 986 718 l 554 718 q 424 738 493 738 q 271 710 339 738 q 154 634 203 683 q 79 515 106 585 q 53 358 53 444 q 79 203 53 272 q 154 84 106 133 q 271 8 203 35 q 424 -18 339 -18 q 578 9 510 -18 q 694 85 646 36 l 694 569 l 789 569 m 424 129 q 340 149 374 129 q 287 201 307 168 q 258 274 267 233 q 250 358 250 315 q 258 443 250 401 q 287 517 267 485 q 340 569 307 549 q 424 589 374 589 q 463 585 447 589 q 497 575 478 582 l 497 143 q 424 129 463 129 "},"Ƶ":{"ha":900,"x_min":32,"x_max":868,"o":"m 32 172 l 32 0 l 868 0 l 868 183 l 308 183 l 517 426 l 789 426 l 789 596 l 663 596 l 854 819 l 854 992 l 74 992 l 74 808 l 578 808 l 394 596 l 126 596 l 126 426 l 250 426 l 32 172 "},"ƶ":{"ha":721,"x_min":31,"x_max":690,"o":"m 31 149 l 31 0 l 690 0 l 690 149 l 276 149 l 422 307 l 619 307 l 619 433 l 539 433 l 664 569 l 664 718 l 58 718 l 58 569 l 418 569 l 293 433 l 106 433 l 106 307 l 176 307 l 31 149 "},"ə":{"ha":797,"x_min":42,"x_max":757,"o":"m 390 -18 q 540 11 472 -18 q 656 91 607 40 q 731 211 704 142 q 757 361 757 281 q 731 514 757 444 q 658 633 706 583 q 543 710 611 683 q 390 738 475 738 q 182 682 268 738 q 54 497 96 626 l 228 497 q 281 560 238 531 q 383 590 324 590 q 511 547 467 590 q 560 408 556 504 l 42 408 q 56 249 36 325 q 119 113 75 172 q 231 17 163 53 q 390 -18 299 -18 m 396 131 q 288 169 324 131 q 239 283 253 208 l 560 283 q 551 236 558 263 q 524 186 543 210 q 474 147 506 163 q 396 131 443 131 "},"ˆ":{"ha":360,"x_min":-62,"x_max":424,"o":"m 90 1004 l 271 1004 l 424 807 l 261 807 l 175 919 l 86 807 l -62 807 l 90 1004 "},"ˇ":{"ha":360,"x_min":-62,"x_max":424,"o":"m 271 807 l 90 807 l -62 1004 l 92 1004 l 181 892 l 271 1004 l 424 1004 l 271 807 "},"˘":{"ha":360,"x_min":-53,"x_max":414,"o":"m 36 1010 q 54 963 40 982 q 88 933 68 944 q 131 916 108 921 q 174 911 153 911 q 275 934 236 911 q 326 1010 314 957 l 414 1010 q 335 854 400 901 q 167 807 271 807 q -53 1010 -36 807 l 36 1010 "},"˙":{"ha":360,"x_min":86,"x_max":274,"o":"m 86 992 l 274 992 l 274 829 l 86 829 l 86 992 "},"˚":{"ha":360,"x_min":10,"x_max":350,"o":"m 10 911 q 23 978 10 947 q 59 1031 36 1008 q 113 1067 82 1054 q 179 1081 144 1081 q 246 1067 215 1081 q 300 1031 276 1054 q 337 978 324 1008 q 350 911 350 947 q 337 845 350 876 q 300 791 324 814 q 246 755 276 768 q 179 742 215 742 q 113 755 144 742 q 59 791 82 768 q 23 845 36 814 q 10 911 10 876 m 92 911 q 115 842 92 871 q 179 814 139 814 q 244 842 219 814 q 268 911 268 871 q 244 980 268 951 q 179 1008 219 1008 q 115 980 139 1008 q 92 911 92 951 "},"˛":{"ha":360,"x_min":13,"x_max":347,"o":"m 347 -207 q 257 -281 306 -260 q 161 -301 208 -301 q 124 -299 149 -301 q 74 -283 99 -296 q 31 -246 49 -271 q 13 -176 13 -221 q 15 -150 13 -167 q 33 -110 18 -133 q 81 -58 49 -87 q 171 4 113 -29 l 261 4 q 170 -95 194 -56 q 146 -171 146 -135 q 163 -205 146 -192 q 200 -218 179 -218 q 242 -210 222 -218 q 281 -176 261 -203 l 347 -207 "},"˜":{"ha":360,"x_min":-74,"x_max":435,"o":"m 435 992 q 419 940 428 968 q 392 889 410 913 q 348 849 375 865 q 279 833 321 833 q 219 841 247 833 q 165 857 192 849 q 115 874 139 867 q 68 881 92 881 q 28 865 40 881 q 10 822 17 849 l -74 822 q -56 883 -67 853 q -25 937 -44 913 q 24 976 -6 961 q 100 992 54 992 q 145 984 124 992 q 189 968 167 976 q 234 951 211 958 q 281 943 257 943 q 326 958 313 943 q 339 992 340 972 l 435 992 "},"˝":{"ha":360,"x_min":-76,"x_max":554,"o":"m 210 807 l 347 807 l 554 1004 l 336 1004 l 210 807 m -76 807 l 60 807 l 267 1004 l 49 1004 l -76 807 "},"̀":{"ha":0,"x_min":-422,"x_max":-72,"o":"m -206 1004 l -422 1004 l -210 807 l -72 807 l -206 1004 "},"́":{"ha":0,"x_min":-282,"x_max":69,"o":"m -282 807 l -144 807 l 69 1004 l -149 1004 l -282 807 "},"̂":{"ha":0,"x_min":-419,"x_max":67,"o":"m -267 1004 l -86 1004 l 67 807 l -96 807 l -182 919 l -271 807 l -419 807 l -267 1004 "},"̃":{"ha":0,"x_min":-431,"x_max":78,"o":"m 78 992 q 62 940 71 968 q 35 889 53 913 q -9 849 18 865 q -78 833 -36 833 q -137 841 -110 833 q -192 857 -165 849 q -242 874 -218 867 q -289 881 -265 881 q -328 865 -317 881 q -347 822 -340 849 l -431 822 q -412 883 -424 853 q -382 937 -401 913 q -333 976 -362 961 q -257 992 -303 992 q -212 984 -233 992 q -168 968 -190 976 q -123 951 -146 958 q -76 943 -100 943 q -31 958 -44 943 q -18 992 -17 972 l 78 992 "},"̄":{"ha":0,"x_min":-435,"x_max":82,"o":"m 82 960 l -435 960 l -435 856 l 82 856 l 82 960 "},"̆":{"ha":0,"x_min":-410,"x_max":57,"o":"m -321 1010 q -303 963 -317 982 q -269 933 -289 944 q -226 916 -249 921 q -183 911 -204 911 q -82 934 -121 911 q -31 1010 -43 957 l 57 1010 q -22 854 43 901 q -190 807 -86 807 q -410 1010 -393 807 l -321 1010 "},"̇":{"ha":0,"x_min":-271,"x_max":-83,"o":"m -271 992 l -83 992 l -83 829 l -271 829 l -271 992 "},"̈":{"ha":0,"x_min":-412,"x_max":60,"o":"m -226 992 l -412 992 l -412 829 l -226 829 l -226 992 m 60 992 l -128 992 l -128 829 l 60 829 l 60 992 "},"̊":{"ha":0,"x_min":-347,"x_max":-7,"o":"m -347 911 q -334 978 -347 947 q -298 1031 -321 1008 q -244 1067 -275 1054 q -178 1081 -212 1081 q -111 1067 -142 1081 q -57 1031 -81 1054 q -20 978 -33 1008 q -7 911 -7 947 q -20 845 -7 876 q -57 791 -33 814 q -111 755 -81 768 q -178 742 -142 742 q -244 755 -212 742 q -298 791 -275 768 q -334 845 -321 814 q -347 911 -347 876 m -265 911 q -242 842 -265 871 q -178 814 -218 814 q -113 842 -137 814 q -89 911 -89 871 q -113 980 -89 951 q -178 1008 -137 1008 q -242 980 -218 1008 q -265 911 -265 951 "},"̋":{"ha":0,"x_min":-433,"x_max":197,"o":"m -147 807 l -10 807 l 197 1004 l -21 1004 l -147 807 m -433 807 l -297 807 l -90 1004 l -308 1004 l -433 807 "},"̌":{"ha":0,"x_min":-419,"x_max":67,"o":"m -86 807 l -267 807 l -419 1004 l -265 1004 l -176 892 l -86 1004 l 67 1004 l -86 807 "},"̧":{"ha":0,"x_min":-340,"x_max":-6,"o":"m -311 -204 q -260 -222 -289 -214 q -194 -229 -231 -229 q -154 -218 -169 -229 q -139 -182 -139 -207 q -155 -147 -139 -156 q -194 -137 -171 -137 q -250 -147 -225 -137 l -279 -114 l -197 3 l -129 3 l -183 -72 l -181 -72 q -133 -65 -164 -65 q -87 -71 -110 -65 q -46 -88 -64 -76 q -17 -119 -28 -100 q -6 -162 -6 -137 q -19 -230 -6 -203 q -56 -273 -33 -257 q -108 -295 -79 -289 q -168 -301 -137 -301 q -225 -299 -201 -301 q -267 -293 -249 -297 q -303 -283 -286 -289 q -340 -271 -321 -278 l -311 -204 "},"̨":{"ha":0,"x_min":-344,"x_max":-10,"o":"m -10 -207 q -100 -281 -51 -260 q -196 -301 -149 -301 q -233 -299 -208 -301 q -283 -283 -258 -296 q -326 -246 -308 -271 q -344 -176 -344 -221 q -342 -150 -344 -167 q -324 -110 -339 -133 q -276 -58 -308 -87 q -186 4 -244 -29 l -96 4 q -187 -95 -162 -56 q -211 -171 -211 -135 q -194 -205 -211 -192 q -157 -218 -178 -218 q -115 -210 -135 -218 q -76 -176 -96 -203 l -10 -207 "},"̸":{"ha":0,"x_min":-526,"x_max":18,"o":"m -140 1015 l 18 1015 l -369 -22 l -526 -22 l -140 1015 "},"Ω":{"ha":1074,"x_min":75,"x_max":999,"o":"m 79 149 l 79 0 l 468 0 l 468 278 q 313 373 364 301 q 263 549 263 444 q 282 662 263 608 q 338 756 301 715 q 426 819 375 796 q 539 843 476 843 q 651 820 601 843 q 737 758 701 797 q 792 665 772 718 q 811 553 811 613 q 760 375 811 449 q 604 278 708 301 l 604 0 l 994 0 l 994 149 l 743 149 l 743 200 q 855 253 807 217 q 935 338 903 289 q 983 447 967 388 q 999 568 999 506 q 962 746 999 665 q 863 883 925 826 q 716 970 800 939 q 538 1001 632 1001 q 359 970 443 1001 q 212 881 275 939 q 112 743 149 824 q 75 565 75 663 q 91 444 75 503 q 140 338 107 386 q 219 253 172 289 q 329 200 267 218 l 329 149 l 79 149 "},"π":{"ha":925,"x_min":42,"x_max":883,"o":"m 739 -10 q 813 -3 771 -10 q 883 18 854 4 l 883 165 q 822 151 851 151 q 792 158 803 151 q 776 177 782 165 q 770 203 771 189 q 769 233 769 218 l 769 569 l 879 569 l 879 718 l 42 718 l 42 569 l 139 569 l 139 0 l 326 0 l 326 569 l 582 569 l 582 171 q 590 100 582 133 q 615 42 597 67 q 663 4 632 18 q 739 -10 693 -10 "},"Ѐ":{"ha":900,"x_min":96,"x_max":849,"o":"m 96 992 l 96 0 l 849 0 l 849 183 l 314 183 l 314 426 l 794 426 l 794 596 l 314 596 l 314 808 l 838 808 l 838 992 l 96 992 m 422 1278 l 206 1278 l 418 1081 l 556 1081 l 422 1278 "},"Ё":{"ha":900,"x_min":96,"x_max":849,"o":"m 96 992 l 96 0 l 849 0 l 849 183 l 314 183 l 314 426 l 794 426 l 794 596 l 314 596 l 314 808 l 838 808 l 838 992 l 96 992 m 428 1265 l 242 1265 l 242 1103 l 428 1103 l 428 1265 m 714 1265 l 526 1265 l 526 1103 l 714 1103 l 714 1265 "},"Ђ":{"ha":1117,"x_min":18,"x_max":1061,"o":"m 701 -15 q 839 2 774 -15 q 953 59 904 19 q 1032 163 1003 99 q 1061 319 1061 226 q 1035 467 1061 406 q 965 568 1010 529 q 859 625 921 607 q 725 643 797 643 q 592 613 656 643 q 492 535 528 583 l 492 808 l 817 808 l 817 992 l 18 992 l 18 808 l 274 808 l 274 0 l 492 0 l 492 254 q 542 417 492 358 q 672 475 592 475 q 797 435 751 475 q 842 319 842 394 q 827 240 842 272 q 788 190 813 208 q 728 163 763 171 q 656 154 694 154 q 640 154 650 154 q 618 156 629 154 q 596 159 607 157 q 579 164 585 161 l 579 0 q 637 -11 601 -7 q 701 -15 672 -15 "},"Ѓ":{"ha":797,"x_min":103,"x_max":792,"o":"m 103 992 l 103 0 l 321 0 l 321 808 l 792 808 l 792 992 l 103 992 m 319 1081 l 457 1081 l 671 1278 l 453 1278 l 319 1081 "},"Є":{"ha":1022,"x_min":53,"x_max":969,"o":"m 531 -22 q 704 4 628 -22 q 835 80 781 31 q 924 198 890 129 q 969 350 957 267 l 757 350 q 532 157 717 157 q 353 231 418 157 q 272 431 288 304 l 638 431 l 638 601 l 279 601 q 309 692 289 650 q 360 766 329 735 q 435 815 392 797 q 535 833 478 833 q 675 793 618 833 q 753 681 732 753 l 964 681 q 919 814 954 753 q 828 920 883 875 q 699 990 772 965 q 539 1015 625 1015 q 335 975 425 1015 q 182 865 244 935 q 86 700 119 794 q 53 497 53 606 q 87 285 53 381 q 183 121 121 189 q 334 15 246 53 q 531 -22 422 -22 "},"Ѕ":{"ha":901,"x_min":33,"x_max":868,"o":"m 456 -22 q 634 1 557 -22 q 763 67 711 25 q 842 167 815 110 q 868 294 868 225 q 833 431 868 378 q 749 517 797 485 q 651 563 700 549 q 574 583 601 578 q 423 622 481 607 q 333 653 365 638 q 289 686 300 668 q 278 733 278 704 q 292 785 278 764 q 327 821 306 807 q 375 840 349 835 q 428 846 401 846 q 501 839 467 846 q 563 815 536 832 q 605 769 589 799 q 624 696 621 740 l 835 696 q 802 842 835 782 q 714 942 769 903 q 587 998 658 981 q 438 1015 515 1015 q 304 997 371 1015 q 185 942 238 979 q 99 848 132 904 q 67 715 67 792 q 92 599 67 646 q 160 519 118 551 q 254 467 201 486 q 363 433 307 447 q 469 406 417 418 q 564 376 522 393 q 631 335 606 360 q 657 269 657 310 q 638 208 657 232 q 589 169 618 183 q 526 151 560 156 q 464 146 493 146 q 380 156 419 146 q 310 188 340 167 q 263 244 281 210 q 244 329 244 279 l 33 329 q 67 171 32 238 q 160 61 101 104 q 297 -2 219 18 q 456 -22 374 -22 "},"І":{"ha":410,"x_min":96,"x_max":314,"o":"m 96 992 l 96 0 l 314 0 l 314 992 l 96 992 "},"Ї":{"ha":410,"x_min":-32,"x_max":440,"o":"m 96 992 l 96 0 l 314 0 l 314 992 l 96 992 m 154 1265 l -32 1265 l -32 1103 l 154 1103 l 154 1265 m 440 1265 l 253 1265 l 253 1103 l 440 1103 l 440 1265 "},"Ј":{"ha":772,"x_min":19,"x_max":676,"o":"m 346 -22 q 522 12 457 -22 q 622 97 588 46 q 667 206 657 147 q 676 313 676 264 l 676 992 l 458 992 l 458 322 q 456 267 458 296 q 444 215 454 239 q 410 175 433 190 q 343 160 386 160 q 280 172 304 160 q 242 206 256 185 q 222 258 228 228 q 217 325 217 289 l 217 369 l 19 369 l 19 283 q 47 144 19 201 q 121 49 75 86 q 225 -5 167 13 q 346 -22 283 -22 "},"Љ":{"ha":1563,"x_min":-3,"x_max":1521,"o":"m 140 -11 q 250 10 203 -11 q 333 82 297 32 q 383 184 365 126 q 411 326 401 242 q 424 527 421 410 q 429 808 428 644 l 719 808 l 719 0 l 1158 0 q 1306 19 1239 0 q 1420 77 1372 38 q 1494 176 1468 117 q 1521 318 1521 236 q 1494 458 1521 399 q 1419 557 1467 518 q 1308 615 1372 596 q 1169 633 1244 633 l 936 633 l 936 992 l 222 992 q 222 728 222 844 q 217 524 221 613 q 208 373 214 436 q 193 268 203 310 q 170 211 185 232 q 139 180 156 190 q 106 167 122 169 q 81 164 90 164 q 63 165 75 164 q 39 166 51 165 q 15 168 26 167 q -3 172 3 169 l -3 6 q 26 -1 8 1 q 65 -6 44 -4 q 106 -10 86 -8 q 140 -11 125 -11 m 1142 178 l 936 178 l 936 463 l 1140 463 q 1208 455 1176 463 q 1262 431 1239 447 q 1297 387 1285 414 q 1310 321 1310 360 q 1265 210 1310 242 q 1142 178 1221 178 "},"Њ":{"ha":1560,"x_min":96,"x_max":1518,"o":"m 96 992 l 96 0 l 314 0 l 314 436 l 715 436 l 715 0 l 1156 0 q 1303 19 1236 0 q 1417 76 1369 38 q 1492 174 1465 115 q 1518 311 1518 232 q 1491 448 1518 390 q 1417 544 1464 506 q 1306 601 1369 582 q 1167 619 1242 619 l 933 619 l 933 992 l 715 992 l 715 619 l 314 619 l 314 992 l 96 992 m 1139 178 l 933 178 l 933 449 l 1138 449 q 1205 442 1174 449 q 1259 419 1236 435 q 1294 377 1282 403 q 1307 314 1307 351 q 1263 208 1307 239 q 1139 178 1218 178 "},"Ћ":{"ha":1117,"x_min":18,"x_max":1033,"o":"m 274 808 l 274 0 l 492 0 l 492 419 q 524 425 504 421 q 567 433 543 429 q 615 439 590 436 q 663 442 640 442 q 781 406 746 442 q 817 279 817 369 l 817 0 l 1033 0 l 1033 276 q 1013 438 1033 372 q 949 545 992 504 q 844 604 907 586 q 699 622 782 622 q 648 619 676 622 q 591 613 619 617 q 536 603 563 608 q 492 594 510 599 l 492 808 l 817 808 l 817 992 l 18 992 l 18 808 l 274 808 "},"Ќ":{"ha":1003,"x_min":96,"x_max":1011,"o":"m 96 992 l 96 0 l 314 0 l 314 319 l 439 446 l 738 0 l 1011 0 l 586 600 l 974 992 l 701 992 l 314 581 l 314 992 l 96 992 m 381 1081 l 518 1081 l 732 1278 l 514 1278 l 381 1081 "},"Ѝ":{"ha":1035,"x_min":96,"x_max":939,"o":"m 96 992 l 96 0 l 340 0 l 718 689 l 722 689 l 722 0 l 939 0 l 939 992 l 694 992 l 317 304 l 313 304 l 313 992 l 96 992 m 475 1278 l 258 1278 l 471 1081 l 608 1081 l 475 1278 "},"Ў":{"ha":899,"x_min":-7,"x_max":908,"o":"m 246 -18 q 351 -3 306 -18 q 435 46 397 13 q 507 133 474 79 q 575 261 540 186 l 908 992 l 676 992 l 461 475 l 233 992 l -7 992 l 283 381 q 314 316 299 350 q 329 250 329 282 q 304 191 329 217 q 229 165 279 165 q 125 176 165 165 l 125 0 q 177 -12 144 -6 q 246 -18 210 -18 m 458 1076 q 622 1129 560 1076 q 685 1290 685 1182 l 607 1290 q 557 1217 597 1242 q 458 1192 517 1192 q 360 1217 400 1192 q 310 1290 319 1242 l 232 1290 q 294 1129 232 1182 q 458 1076 357 1076 "},"Џ":{"ha":1017,"x_min":96,"x_max":921,"o":"m 403 0 l 403 -226 l 613 -226 l 613 0 l 921 0 l 921 992 l 703 992 l 703 183 l 314 183 l 314 992 l 96 992 l 96 0 l 403 0 "},"А":{"ha":951,"x_min":-8,"x_max":961,"o":"m 367 992 l -8 0 l 211 0 l 289 221 l 660 221 l 735 0 l 961 0 l 590 992 l 367 992 m 603 383 l 346 383 l 475 747 l 478 747 l 603 383 "},"Б":{"ha":975,"x_min":96,"x_max":924,"o":"m 96 992 l 96 0 l 561 0 q 708 18 642 0 q 823 75 775 36 q 897 173 871 114 q 924 314 924 232 q 897 453 924 394 q 822 551 869 513 q 711 607 775 589 q 572 625 647 625 l 314 625 l 314 813 l 832 813 l 832 992 l 96 992 m 544 178 l 314 178 l 314 454 l 543 454 q 610 447 579 454 q 665 424 642 440 q 700 382 688 408 q 713 317 713 356 q 668 208 713 238 q 544 178 624 178 "},"В":{"ha":978,"x_min":96,"x_max":926,"o":"m 96 992 l 96 0 l 576 0 q 706 17 643 0 q 819 68 769 33 q 897 158 868 103 q 926 288 926 213 q 881 447 926 381 q 744 539 836 513 q 845 621 811 571 q 879 746 879 671 q 856 863 879 815 q 792 938 833 910 q 692 979 750 967 q 563 992 633 992 l 96 992 m 547 169 l 314 169 l 314 442 l 551 442 q 665 409 622 442 q 708 300 708 376 q 695 236 708 261 q 660 197 682 211 q 608 176 638 182 q 547 169 579 169 m 535 590 l 314 590 l 314 822 l 518 822 q 574 817 547 822 q 622 800 601 813 q 656 765 643 788 q 668 708 668 743 q 631 618 668 646 q 535 590 593 590 "},"Г":{"ha":797,"x_min":103,"x_max":792,"o":"m 103 992 l 103 0 l 321 0 l 321 808 l 792 808 l 792 992 l 103 992 "},"Д":{"ha":1072,"x_min":11,"x_max":1058,"o":"m 11 183 l 11 -226 l 221 -226 l 221 0 l 849 0 l 849 -226 l 1058 -226 l 1058 183 l 950 183 l 950 992 l 231 992 l 231 838 q 226 633 231 728 q 206 458 221 539 q 165 310 192 378 q 94 183 138 242 l 11 183 m 732 183 l 329 183 q 384 308 363 243 q 417 447 406 372 q 434 607 429 521 q 439 794 439 693 l 439 813 l 732 813 l 732 183 "},"Е":{"ha":900,"x_min":96,"x_max":849,"o":"m 96 992 l 96 0 l 849 0 l 849 183 l 314 183 l 314 426 l 794 426 l 794 596 l 314 596 l 314 808 l 838 808 l 838 992 l 96 992 "},"Ж":{"ha":1474,"x_min":-8,"x_max":1482,"o":"m 388 588 l -8 0 l 260 0 l 525 433 l 632 313 l 632 0 l 842 0 l 842 313 l 949 433 l 1213 0 l 1482 0 l 1086 588 l 1446 992 l 1189 992 l 842 583 l 842 992 l 632 992 l 632 583 l 285 992 l 28 992 l 388 588 "},"З":{"ha":899,"x_min":29,"x_max":847,"o":"m 458 -22 q 613 2 542 -22 q 735 70 683 26 q 817 174 788 114 q 847 307 847 235 q 833 394 847 354 q 793 465 818 435 q 733 514 768 494 q 660 540 699 533 q 768 610 726 556 q 810 739 810 664 q 783 852 810 801 q 709 939 756 903 q 598 995 663 975 q 458 1015 533 1015 q 310 997 381 1015 q 187 939 240 978 q 101 840 133 900 q 68 697 69 781 l 274 697 q 328 808 281 769 q 457 847 376 847 q 565 815 524 847 q 606 725 606 783 q 426 590 606 590 q 399 590 417 590 q 368 592 381 590 l 368 444 l 443 444 q 513 439 479 444 q 572 417 546 433 q 614 374 599 401 q 629 306 629 347 q 582 191 629 238 q 458 144 535 144 q 376 155 414 144 q 309 188 338 165 q 263 247 281 211 q 244 333 246 283 l 29 333 q 143 72 32 165 q 458 -22 254 -22 "},"И":{"ha":1035,"x_min":96,"x_max":939,"o":"m 96 992 l 96 0 l 340 0 l 718 689 l 722 689 l 722 0 l 939 0 l 939 992 l 694 992 l 317 304 l 313 304 l 313 992 l 96 992 "},"Й":{"ha":1035,"x_min":96,"x_max":939,"o":"m 96 992 l 96 0 l 340 0 l 718 689 l 722 689 l 722 0 l 939 0 l 939 992 l 694 992 l 317 304 l 313 304 l 313 992 l 96 992 m 531 1076 q 694 1129 632 1076 q 757 1290 757 1182 l 679 1290 q 629 1217 669 1242 q 531 1192 589 1192 q 432 1217 472 1192 q 382 1290 392 1242 l 304 1290 q 367 1129 304 1182 q 531 1076 429 1076 "},"К":{"ha":1003,"x_min":96,"x_max":1011,"o":"m 96 992 l 96 0 l 314 0 l 314 319 l 439 446 l 738 0 l 1011 0 l 586 600 l 974 992 l 701 992 l 314 581 l 314 992 l 96 992 "},"Л":{"ha":1032,"x_min":-3,"x_max":936,"o":"m 140 -11 q 250 10 203 -11 q 333 82 297 32 q 383 184 365 126 q 411 326 401 242 q 424 527 421 410 q 429 808 428 644 l 719 808 l 719 0 l 936 0 l 936 992 l 222 992 q 222 728 222 844 q 217 524 221 613 q 208 373 214 436 q 193 268 203 310 q 170 211 185 232 q 139 180 156 190 q 106 167 122 169 q 81 164 90 164 q 63 165 75 164 q 39 166 51 165 q 15 168 26 167 q -3 172 3 169 l -3 6 q 26 -1 8 1 q 65 -6 44 -4 q 106 -10 86 -8 q 140 -11 125 -11 "},"М":{"ha":1260,"x_min":96,"x_max":1164,"o":"m 96 992 l 96 0 l 300 0 l 300 696 l 303 696 l 546 0 l 714 0 l 957 703 l 960 703 l 960 0 l 1164 0 l 1164 992 l 857 992 l 638 310 l 635 310 l 403 992 l 96 992 "},"Н":{"ha":1029,"x_min":96,"x_max":933,"o":"m 96 992 l 96 0 l 314 0 l 314 428 l 715 428 l 715 0 l 933 0 l 933 992 l 715 992 l 715 611 l 314 611 l 314 992 l 96 992 "},"О":{"ha":1081,"x_min":53,"x_max":1028,"o":"m 540 -22 q 745 17 654 -22 q 899 126 836 57 q 994 290 961 196 q 1028 492 1028 383 q 994 697 1028 601 q 899 864 961 793 q 745 975 836 935 q 540 1015 654 1015 q 335 975 425 1015 q 182 864 244 935 q 86 697 119 793 q 53 492 53 601 q 86 290 53 383 q 182 126 119 196 q 335 17 244 57 q 540 -22 425 -22 m 540 160 q 415 188 467 160 q 332 264 364 217 q 285 370 300 311 q 271 492 271 429 q 285 618 271 557 q 332 727 300 679 q 415 803 364 775 q 540 832 467 832 q 665 803 614 832 q 749 727 717 775 q 795 618 781 679 q 810 492 810 557 q 795 370 810 429 q 749 264 781 311 q 665 188 717 217 q 540 160 614 160 "},"П":{"ha":1017,"x_min":96,"x_max":921,"o":"m 96 992 l 96 0 l 314 0 l 314 808 l 703 808 l 703 0 l 921 0 l 921 992 l 96 992 "},"Р":{"ha":926,"x_min":96,"x_max":886,"o":"m 96 992 l 96 0 l 314 0 l 314 356 l 543 356 q 701 383 636 356 q 808 454 767 410 q 867 556 849 499 q 886 674 886 613 q 867 791 886 733 q 808 893 849 849 q 701 965 767 938 q 543 992 636 992 l 96 992 m 483 525 l 314 525 l 314 822 l 483 822 q 556 817 521 822 q 617 795 590 811 q 659 750 643 779 q 675 674 675 721 q 659 597 675 626 q 617 552 643 568 q 556 531 590 536 q 483 525 521 525 "},"С":{"ha":1029,"x_min":53,"x_max":976,"o":"m 540 -22 q 708 6 632 -22 q 842 86 785 33 q 933 213 899 139 q 976 382 968 288 l 765 382 q 697 221 753 282 q 540 160 640 160 q 415 188 467 160 q 332 264 364 217 q 285 370 300 311 q 271 492 271 429 q 285 618 271 557 q 332 727 300 679 q 415 803 364 775 q 540 832 467 832 q 617 819 581 832 q 683 782 654 806 q 732 727 713 758 q 757 658 751 696 l 968 658 q 921 811 958 744 q 826 923 883 878 q 694 992 768 968 q 540 1015 621 1015 q 335 975 425 1015 q 182 864 244 935 q 86 697 119 793 q 53 492 53 601 q 86 290 53 383 q 182 126 119 196 q 335 17 244 57 q 540 -22 425 -22 "},"Т":{"ha":849,"x_min":18,"x_max":831,"o":"m 315 808 l 315 0 l 533 0 l 533 808 l 831 808 l 831 992 l 18 992 l 18 808 l 315 808 "},"У":{"ha":899,"x_min":-7,"x_max":908,"o":"m 246 -18 q 351 -3 306 -18 q 435 46 397 13 q 507 133 474 79 q 575 261 540 186 l 908 992 l 676 992 l 461 475 l 233 992 l -7 992 l 283 381 q 314 316 299 350 q 329 250 329 282 q 304 191 329 217 q 229 165 279 165 q 125 176 165 165 l 125 0 q 177 -12 144 -6 q 246 -18 210 -18 "},"Ф":{"ha":1199,"x_min":49,"x_max":1150,"o":"m 492 86 l 492 -22 l 707 -22 l 707 86 q 889 122 807 90 q 1029 207 971 153 q 1119 337 1088 261 q 1150 506 1150 413 q 1119 669 1150 594 q 1031 799 1089 744 q 892 884 974 853 q 707 918 810 915 l 707 1015 l 492 1015 l 492 918 q 307 884 389 915 q 167 799 225 853 q 79 669 110 744 q 49 506 49 594 q 80 337 49 413 q 169 207 111 261 q 310 122 228 153 q 492 86 392 90 m 492 761 l 492 249 q 397 272 439 250 q 323 330 354 294 q 275 411 292 365 q 258 506 258 457 q 274 604 258 558 q 321 684 290 650 q 394 738 351 718 q 492 761 438 758 m 707 249 l 707 249 l 707 761 q 805 738 761 758 q 878 684 849 718 q 925 604 908 650 q 942 506 942 558 q 924 411 942 457 q 876 330 907 365 q 802 272 846 294 q 707 249 758 250 "},"Х":{"ha":926,"x_min":-7,"x_max":935,"o":"m 339 519 l -7 0 l 238 0 l 458 343 l 675 0 l 935 0 l 589 518 l 907 992 l 668 992 l 467 675 l 272 992 l 19 992 l 339 519 "},"Ц":{"ha":1044,"x_min":96,"x_max":1031,"o":"m 821 0 l 821 -226 l 1031 -226 l 1031 183 l 921 183 l 921 992 l 703 992 l 703 183 l 314 183 l 314 992 l 96 992 l 96 0 l 821 0 "},"Ч":{"ha":944,"x_min":63,"x_max":847,"o":"m 629 376 l 629 0 l 847 0 l 847 992 l 629 992 l 629 551 q 593 545 617 549 q 542 538 569 542 q 485 532 514 535 q 433 529 456 529 q 315 565 350 529 q 279 692 279 601 l 279 992 l 63 992 l 63 694 q 87 533 63 599 q 156 426 111 467 q 267 367 201 385 q 417 349 333 349 q 468 351 439 349 q 527 358 497 354 q 584 367 557 363 q 629 376 611 372 "},"Ш":{"ha":1501,"x_min":96,"x_max":1406,"o":"m 96 992 l 96 0 l 1406 0 l 1406 992 l 1188 992 l 1188 183 l 860 183 l 860 992 l 642 992 l 642 183 l 314 183 l 314 992 l 96 992 "},"Щ":{"ha":1529,"x_min":96,"x_max":1515,"o":"m 1306 0 l 1306 -226 l 1515 -226 l 1515 183 l 1406 183 l 1406 992 l 1188 992 l 1188 183 l 860 183 l 860 992 l 642 992 l 642 183 l 314 183 l 314 992 l 96 992 l 96 0 l 1306 0 "},"Ъ":{"ha":1131,"x_min":18,"x_max":1089,"o":"m 286 808 l 286 0 l 726 0 q 874 19 807 0 q 988 77 940 38 q 1063 176 1036 117 q 1089 318 1089 236 q 1062 458 1089 399 q 988 557 1035 518 q 876 615 940 596 q 738 633 813 633 l 504 633 l 504 992 l 18 992 l 18 808 l 286 808 m 710 178 l 504 178 l 504 463 l 708 463 q 776 455 744 463 q 830 431 807 447 q 865 387 853 414 q 878 321 878 360 q 833 210 878 242 q 710 178 789 178 "},"Ы":{"ha":1290,"x_min":96,"x_max":1194,"o":"m 96 992 l 96 0 l 508 0 q 656 19 589 0 q 770 77 722 38 q 844 176 818 117 q 871 318 871 236 q 844 458 871 399 q 769 557 817 518 q 658 615 722 596 q 519 633 594 633 l 314 633 l 314 992 l 96 992 m 492 178 l 314 178 l 314 463 l 490 463 q 558 455 526 463 q 612 431 589 447 q 647 387 635 414 q 660 321 660 360 q 615 210 660 242 q 492 178 571 178 m 976 992 l 976 0 l 1194 0 l 1194 992 l 976 992 "},"Ь":{"ha":940,"x_min":96,"x_max":899,"o":"m 96 992 l 96 0 l 536 0 q 683 19 617 0 q 798 77 750 38 q 872 176 846 117 q 899 318 899 236 q 872 458 899 399 q 797 557 844 518 q 686 615 750 596 q 547 633 622 633 l 314 633 l 314 992 l 96 992 m 519 178 l 314 178 l 314 463 l 518 463 q 585 455 554 463 q 640 431 617 447 q 675 387 663 414 q 688 321 688 360 q 643 210 688 242 q 519 178 599 178 "},"Э":{"ha":1025,"x_min":53,"x_max":972,"o":"m 494 -22 q 691 15 603 -22 q 842 121 779 53 q 938 285 904 189 q 972 497 972 381 q 939 700 972 606 q 843 865 906 794 q 690 975 781 935 q 486 1015 600 1015 q 326 990 400 1015 q 197 920 253 965 q 106 814 142 875 q 61 681 71 753 l 268 681 q 348 794 289 753 q 490 835 407 835 q 593 816 549 835 q 669 765 638 797 q 719 691 700 733 q 747 601 738 649 l 388 601 l 388 431 l 754 431 q 672 231 739 304 q 493 158 604 158 q 263 350 303 158 l 53 350 q 99 198 65 267 q 189 80 133 129 q 321 4 244 31 q 494 -22 397 -22 "},"Ю":{"ha":1421,"x_min":96,"x_max":1368,"o":"m 921 -22 q 1103 15 1021 -22 q 1244 121 1186 53 q 1335 284 1303 189 q 1368 494 1368 379 q 1335 707 1368 611 q 1244 872 1303 803 q 1104 978 1186 940 q 922 1015 1022 1015 q 758 987 832 1015 q 626 906 683 958 q 532 778 569 853 q 479 611 494 704 l 314 611 l 314 992 l 96 992 l 96 0 l 314 0 l 314 435 l 474 435 q 517 247 482 331 q 611 103 553 163 q 748 10 669 43 q 921 -22 826 -22 m 922 160 q 752 250 814 161 q 690 499 690 339 q 706 637 690 575 q 752 742 722 699 q 824 809 782 786 q 919 832 867 832 q 1088 744 1028 832 q 1149 499 1149 657 q 1088 249 1149 339 q 922 160 1028 160 "},"Я":{"ha":1007,"x_min":4,"x_max":911,"o":"m 304 392 l 4 0 l 276 0 l 540 374 l 694 374 l 694 0 l 911 0 l 911 992 l 425 992 q 295 974 357 992 q 187 919 233 957 q 113 825 140 882 q 85 689 85 768 q 145 492 85 568 q 304 392 206 417 m 694 536 l 489 536 q 417 542 451 536 q 356 566 382 549 q 313 613 329 583 q 297 688 297 642 q 313 756 297 731 q 353 797 328 782 q 412 816 379 811 q 479 821 444 821 l 694 821 l 694 536 "},"а":{"ha":797,"x_min":44,"x_max":744,"o":"m 289 -18 q 419 1 356 -18 q 531 69 483 21 q 535 34 532 51 q 544 0 539 17 l 744 0 q 725 67 731 22 q 719 160 719 111 l 719 533 q 690 638 719 597 q 615 700 661 678 q 514 730 569 722 q 404 738 458 738 q 285 726 343 738 q 179 686 226 714 q 101 612 132 658 q 67 497 71 565 l 264 497 q 303 581 269 556 q 394 606 336 606 q 444 602 421 606 q 484 588 467 599 q 512 558 501 578 q 522 508 522 539 q 504 462 524 478 q 451 438 485 446 q 375 425 418 429 q 288 414 332 421 q 199 395 243 407 q 122 360 156 383 q 66 297 88 336 q 44 196 44 257 q 63 100 44 140 q 115 33 82 60 q 193 -6 149 7 q 289 -18 238 -18 m 363 113 q 317 117 339 113 q 278 131 294 121 q 251 159 261 142 q 242 204 242 176 q 251 250 242 232 q 277 280 261 268 q 314 299 293 292 q 358 310 335 306 q 406 317 382 314 q 451 324 429 319 q 492 334 474 328 q 522 351 510 340 l 522 278 q 519 233 522 261 q 500 178 515 206 q 453 132 485 151 q 363 113 421 113 "},"б":{"ha":843,"x_min":67,"x_max":790,"o":"m 417 -18 q 572 8 503 -18 q 690 81 642 33 q 765 197 739 129 q 790 350 790 265 q 765 501 790 433 q 694 617 739 568 q 590 692 650 665 q 461 718 529 718 q 353 699 400 718 q 271 651 306 681 q 213 586 236 622 q 178 514 190 550 l 174 514 q 194 615 179 567 q 238 701 208 663 q 313 764 267 739 q 425 796 358 789 q 572 815 510 804 q 678 848 635 825 q 744 910 721 871 q 772 1015 767 949 l 599 1015 q 572 990 597 997 q 508 978 546 982 q 430 971 471 974 q 358 960 389 968 q 202 881 260 933 q 114 758 144 829 q 75 601 83 688 q 67 419 67 514 q 82 263 67 340 q 137 122 97 185 q 244 21 176 60 q 417 -18 313 -18 m 431 129 q 310 185 354 129 q 267 350 267 242 q 310 515 267 456 q 428 575 353 575 q 550 516 507 575 q 593 351 593 457 q 549 186 593 243 q 431 129 506 129 "},"в":{"ha":807,"x_min":81,"x_max":756,"o":"m 81 718 l 81 0 l 513 0 q 607 14 563 0 q 685 55 651 28 q 737 122 718 82 q 756 214 756 161 q 718 331 756 289 q 625 389 681 374 q 696 447 669 408 q 722 538 722 485 q 704 619 722 585 q 655 676 686 654 q 582 708 624 697 q 493 718 540 718 l 81 718 m 421 128 l 275 128 l 275 318 l 413 318 q 464 315 439 318 q 508 301 489 311 q 540 272 528 292 q 551 222 551 253 q 540 173 551 192 q 511 144 529 154 q 469 131 493 135 q 421 128 446 128 m 406 429 l 275 429 l 275 593 l 406 593 q 449 590 428 593 q 487 579 471 588 q 513 555 503 571 q 522 513 522 539 q 513 469 522 485 q 486 444 503 453 q 449 432 469 435 q 406 429 428 429 "},"г":{"ha":629,"x_min":82,"x_max":624,"o":"m 82 718 l 82 0 l 279 0 l 279 569 l 624 569 l 624 718 l 82 718 "},"д":{"ha":867,"x_min":10,"x_max":853,"o":"m 10 149 l 10 -197 l 194 -197 l 194 0 l 668 0 l 668 -197 l 853 -197 l 853 149 l 760 149 l 760 718 l 186 718 l 186 592 q 178 451 186 518 q 156 328 169 385 q 127 225 143 271 q 96 149 111 179 l 10 149 m 563 149 l 289 149 q 315 218 301 176 q 342 312 329 260 q 362 425 354 364 q 369 553 369 486 l 369 571 l 563 571 l 563 149 "},"е":{"ha":797,"x_min":40,"x_max":757,"o":"m 407 -18 q 615 38 529 -18 q 743 222 701 93 l 569 222 q 517 159 560 189 q 414 129 474 129 q 286 172 331 129 q 238 311 242 215 l 756 311 q 757 330 757 321 q 757 349 757 339 q 735 496 757 425 q 669 620 713 567 q 559 706 625 674 q 407 738 493 738 q 258 708 325 738 q 142 628 190 679 q 67 508 93 578 q 40 358 40 439 q 66 206 40 275 q 139 86 92 136 q 254 9 186 36 q 407 -18 322 -18 m 558 436 l 238 436 q 247 483 239 457 q 273 533 254 510 q 322 573 292 557 q 401 589 353 589 q 509 550 474 589 q 558 436 544 511 "},"ж":{"ha":1128,"x_min":-7,"x_max":1135,"o":"m 268 442 l -7 0 l 221 0 l 397 299 l 471 215 l 471 0 l 657 0 l 657 215 l 731 299 l 907 0 l 1135 0 l 856 438 l 1107 718 l 889 718 l 657 432 l 657 718 l 471 718 l 471 432 l 239 718 l 21 718 l 268 442 "},"з":{"ha":753,"x_min":31,"x_max":701,"o":"m 367 -18 q 503 -4 442 -18 q 609 39 565 10 q 677 111 653 68 q 701 213 701 154 q 687 291 701 260 q 650 342 672 322 q 601 372 628 363 q 549 383 574 381 l 549 386 q 594 403 571 390 q 636 438 618 417 q 666 485 654 458 q 678 544 678 513 q 599 691 678 644 q 378 738 521 738 q 260 725 317 738 q 160 685 204 713 q 88 615 117 658 q 54 508 60 571 l 238 508 q 280 587 246 567 q 374 607 314 607 q 459 583 432 607 q 486 526 486 558 q 449 453 486 472 q 350 433 413 433 l 299 433 l 299 310 l 375 310 q 470 282 442 310 q 499 210 499 254 q 468 142 499 169 q 371 114 438 114 q 263 144 303 114 q 218 233 224 175 l 31 233 q 59 117 32 164 q 132 39 86 69 q 238 -5 178 8 q 367 -18 299 -18 "},"и":{"ha":833,"x_min":75,"x_max":758,"o":"m 75 718 l 75 0 l 299 0 l 569 486 l 569 0 l 758 0 l 758 718 l 535 718 l 264 232 l 264 718 l 75 718 "},"й":{"ha":833,"x_min":75,"x_max":758,"o":"m 75 718 l 75 0 l 299 0 l 569 486 l 569 0 l 758 0 l 758 718 l 535 718 l 264 232 l 264 718 l 75 718 m 415 804 q 503 815 463 804 q 574 851 544 826 q 619 913 603 875 q 636 1004 636 950 l 558 1004 q 511 934 549 956 q 415 913 474 913 q 319 934 357 913 q 272 1004 282 956 l 194 1004 q 211 913 194 950 q 257 851 228 875 q 326 815 286 826 q 415 804 367 804 "},"к":{"ha":797,"x_min":75,"x_max":807,"o":"m 75 718 l 75 0 l 272 0 l 272 199 l 367 299 l 568 0 l 807 0 l 494 432 l 768 718 l 536 718 l 272 413 l 272 718 l 75 718 "},"л":{"ha":832,"x_min":4,"x_max":757,"o":"m 118 -11 q 232 13 189 -11 q 299 75 275 36 q 326 141 315 100 q 344 241 338 182 q 354 381 351 300 q 357 569 357 463 l 560 569 l 560 0 l 757 0 l 757 718 l 167 718 q 163 447 167 547 q 155 292 160 346 q 144 218 150 238 q 135 190 139 199 q 67 147 113 147 q 33 149 51 147 q 4 154 15 151 l 4 3 q 27 -2 13 0 q 58 -6 42 -4 q 91 -10 75 -8 q 118 -11 107 -11 "},"м":{"ha":1025,"x_min":75,"x_max":950,"o":"m 75 718 l 75 0 l 261 0 l 261 546 l 265 546 l 419 0 l 606 0 l 760 546 l 764 546 l 764 0 l 950 0 l 950 718 l 664 718 l 515 196 l 510 196 l 361 718 l 75 718 "},"н":{"ha":824,"x_min":75,"x_max":749,"o":"m 75 718 l 75 0 l 272 0 l 272 301 l 551 301 l 551 0 l 749 0 l 749 718 l 551 718 l 551 457 l 272 457 l 272 718 l 75 718 "},"о":{"ha":849,"x_min":53,"x_max":796,"o":"m 424 -18 q 577 8 508 -18 q 694 84 646 35 q 769 203 743 133 q 796 358 796 272 q 769 515 796 444 q 694 634 743 585 q 577 710 646 683 q 424 738 508 738 q 271 710 339 738 q 154 634 203 683 q 79 515 106 585 q 53 358 53 444 q 79 203 53 272 q 154 84 106 133 q 271 8 203 35 q 424 -18 339 -18 m 424 129 q 340 149 374 129 q 287 201 307 168 q 258 274 267 233 q 250 358 250 315 q 258 443 250 401 q 287 517 267 485 q 340 569 307 549 q 424 589 374 589 q 508 569 474 589 q 562 517 542 549 q 590 443 582 485 q 599 358 599 401 q 590 274 599 315 q 562 201 582 233 q 508 149 542 168 q 424 129 474 129 "},"п":{"ha":810,"x_min":75,"x_max":735,"o":"m 75 718 l 75 0 l 272 0 l 272 569 l 538 569 l 538 0 l 735 0 l 735 718 l 75 718 "},"р":{"ha":849,"x_min":75,"x_max":806,"o":"m 75 718 l 75 -251 l 272 -251 l 272 89 l 275 89 q 367 9 311 36 q 490 -18 424 -18 q 628 13 569 -18 q 727 94 688 43 q 786 213 767 146 q 806 351 806 279 q 786 498 806 428 q 726 621 767 568 q 625 706 686 674 q 479 738 564 738 q 357 711 413 738 q 265 626 301 685 l 263 626 l 263 718 l 75 718 m 438 129 q 356 149 389 129 q 303 199 324 168 q 274 272 283 231 q 265 357 265 313 q 274 442 265 400 q 302 517 282 485 q 355 569 322 549 q 436 589 388 589 q 516 569 483 589 q 569 516 549 549 q 599 442 590 483 q 608 357 608 400 q 600 272 608 313 q 572 199 592 231 q 519 149 551 168 q 438 129 486 129 "},"с":{"ha":797,"x_min":53,"x_max":761,"o":"m 415 -18 q 650 57 558 -18 q 761 275 742 132 l 571 275 q 523 169 561 208 q 414 129 485 129 q 336 150 368 129 q 285 203 304 171 q 258 276 267 236 q 250 356 250 317 q 258 436 250 394 q 287 512 267 478 q 339 567 307 546 q 418 589 371 589 q 564 465 544 589 l 757 465 q 724 585 753 533 q 648 670 694 636 q 542 721 601 704 q 419 738 483 738 q 264 708 332 738 q 149 627 196 679 q 77 503 101 575 q 53 349 53 432 q 79 201 53 268 q 153 85 106 133 q 267 9 200 36 q 415 -18 333 -18 "},"т":{"ha":697,"x_min":14,"x_max":683,"o":"m 250 569 l 250 0 l 447 0 l 447 569 l 683 569 l 683 718 l 14 718 l 14 569 l 250 569 "},"у":{"ha":721,"x_min":-7,"x_max":729,"o":"m 182 -251 q 340 -214 283 -251 q 429 -89 397 -176 l 729 718 l 525 718 l 368 226 l 365 226 l 203 718 l -7 718 l 244 44 q 253 0 253 24 q 229 -64 253 -39 q 161 -89 206 -89 q 110 -87 136 -89 q 61 -82 85 -85 l 61 -244 q 122 -249 92 -247 q 182 -251 151 -251 "},"ф":{"ha":1189,"x_min":53,"x_max":1136,"o":"m 496 49 l 496 -251 l 693 -251 l 693 49 l 697 49 q 760 2 718 22 q 846 -18 801 -18 q 982 15 926 -18 q 1072 101 1038 47 q 1121 224 1106 154 q 1136 369 1136 294 q 1116 522 1136 454 q 1060 638 1096 590 q 972 712 1024 686 q 856 738 919 738 q 753 715 793 738 q 697 664 713 693 l 693 664 l 693 992 l 496 992 l 496 664 l 492 664 q 436 715 476 693 q 333 738 396 738 q 217 712 269 738 q 129 638 165 686 q 73 522 93 590 q 53 369 53 454 q 68 224 53 294 q 117 101 83 154 q 207 15 151 47 q 343 -18 263 -18 q 429 2 388 -18 q 492 49 471 22 l 496 49 m 389 129 q 321 149 347 129 q 278 203 294 169 q 256 278 263 236 q 250 365 250 321 q 281 529 250 469 q 383 589 313 589 q 449 572 415 589 q 496 513 482 556 l 496 199 q 462 150 490 171 q 389 129 433 129 m 800 129 q 727 150 756 129 q 693 199 699 171 l 693 513 q 740 572 707 556 q 806 589 774 589 q 908 529 876 589 q 939 365 939 469 q 933 278 939 321 q 910 203 926 236 q 868 149 894 169 q 800 129 842 129 "},"х":{"ha":746,"x_min":0,"x_max":746,"o":"m 258 378 l 0 0 l 221 0 l 371 226 l 521 0 l 746 0 l 481 382 l 717 718 l 499 718 l 374 531 l 247 718 l 22 718 l 258 378 "},"ц":{"ha":838,"x_min":75,"x_max":824,"o":"m 639 0 l 639 -197 l 824 -197 l 824 149 l 735 149 l 735 718 l 538 718 l 538 149 l 272 149 l 272 718 l 75 718 l 75 0 l 639 0 "},"ч":{"ha":797,"x_min":56,"x_max":722,"o":"m 525 275 l 525 0 l 722 0 l 722 718 l 525 718 l 525 417 q 492 410 513 414 q 449 403 472 406 q 403 398 426 400 q 361 396 379 396 q 274 427 296 396 q 251 536 251 458 l 251 718 l 56 718 l 56 496 q 115 311 56 379 q 296 243 175 243 q 364 247 329 243 q 430 256 399 250 q 486 266 461 261 q 525 275 511 271 "},"ш":{"ha":1165,"x_min":75,"x_max":1090,"o":"m 75 718 l 75 0 l 1090 0 l 1090 718 l 894 718 l 894 149 l 681 149 l 681 718 l 485 718 l 485 149 l 271 149 l 271 718 l 75 718 "},"щ":{"ha":1186,"x_min":75,"x_max":1172,"o":"m 988 0 l 988 -197 l 1172 -197 l 1172 149 l 1082 149 l 1082 718 l 886 718 l 886 149 l 676 149 l 676 718 l 481 718 l 481 149 l 271 149 l 271 718 l 75 718 l 75 0 l 988 0 "},"ъ":{"ha":897,"x_min":14,"x_max":861,"o":"m 211 569 l 211 0 l 590 0 q 698 15 649 0 q 784 58 747 29 q 841 132 821 88 q 861 236 861 176 q 840 338 861 294 q 784 412 819 382 q 701 456 749 442 q 599 471 653 471 l 408 471 l 408 718 l 14 718 l 14 569 l 211 569 m 543 136 l 408 136 l 408 338 l 542 338 q 628 313 593 338 q 663 236 663 289 q 630 160 663 183 q 543 136 597 136 "},"ы":{"ha":1081,"x_min":75,"x_max":1006,"o":"m 75 718 l 75 0 l 454 0 q 562 15 513 0 q 648 58 611 29 q 705 132 685 88 q 725 236 725 176 q 704 338 725 294 q 648 412 683 382 q 565 456 613 442 q 463 471 517 471 l 272 471 l 272 718 l 75 718 m 407 136 l 272 136 l 272 338 l 406 338 q 492 313 457 338 q 526 236 526 289 q 494 160 526 183 q 407 136 461 136 m 810 718 l 810 0 l 1006 0 l 1006 718 l 810 718 "},"ь":{"ha":761,"x_min":75,"x_max":725,"o":"m 75 718 l 75 0 l 454 0 q 562 15 513 0 q 648 58 611 29 q 705 132 685 88 q 725 236 725 176 q 704 338 725 294 q 648 412 683 382 q 565 456 613 442 q 463 471 517 471 l 272 471 l 272 718 l 75 718 m 407 136 l 272 136 l 272 338 l 406 338 q 492 313 457 338 q 526 236 526 289 q 494 160 526 183 q 407 136 461 136 "},"э":{"ha":800,"x_min":44,"x_max":747,"o":"m 382 -18 q 533 8 465 -18 q 648 83 600 35 q 722 201 696 132 q 747 353 747 269 q 721 511 747 440 q 647 632 694 582 q 531 710 599 682 q 379 738 463 738 q 151 669 240 738 q 44 483 63 601 l 233 483 q 286 567 247 539 q 378 594 325 594 q 488 551 444 594 q 546 433 532 508 l 313 433 l 313 308 l 550 308 q 499 174 540 224 q 382 124 458 124 q 285 156 324 124 q 232 247 247 189 l 44 247 q 155 49 64 115 q 382 -18 246 -18 "},"ю":{"ha":1160,"x_min":75,"x_max":1107,"o":"m 758 -18 q 904 8 839 -18 q 1014 84 969 35 q 1083 203 1058 133 q 1107 358 1107 272 q 1083 513 1107 443 q 1014 633 1058 583 q 906 710 969 683 q 761 738 842 738 q 526 658 615 738 q 415 444 438 579 l 272 444 l 272 718 l 75 718 l 75 0 l 272 0 l 272 306 l 411 306 q 515 68 425 154 q 758 -18 604 -18 m 758 129 q 644 188 683 129 q 606 358 606 246 q 644 528 606 467 q 756 589 683 589 q 870 528 831 589 q 910 360 910 468 q 872 188 910 247 q 758 129 833 129 "},"я":{"ha":803,"x_min":0,"x_max":728,"o":"m 228 269 l 0 0 l 242 0 l 438 253 l 531 253 l 531 0 l 728 0 l 728 718 l 293 718 q 197 701 240 718 q 122 653 154 683 q 73 581 90 622 q 56 493 56 540 q 103 343 56 404 q 228 269 151 282 m 531 575 l 531 394 l 374 394 q 280 419 304 394 q 256 486 256 444 q 281 551 256 526 q 374 575 306 575 l 531 575 "},"ѐ":{"ha":797,"x_min":40,"x_max":757,"o":"m 407 -18 q 615 38 529 -18 q 743 222 701 93 l 569 222 q 517 159 560 189 q 414 129 474 129 q 286 172 331 129 q 238 311 242 215 l 756 311 q 757 330 757 321 q 757 349 757 339 q 735 496 757 425 q 669 620 713 567 q 559 706 625 674 q 407 738 493 738 q 258 708 325 738 q 142 628 190 679 q 67 508 93 578 q 40 358 40 439 q 66 206 40 275 q 139 86 92 136 q 254 9 186 36 q 407 -18 322 -18 m 558 436 l 238 436 q 247 483 239 457 q 273 533 254 510 q 322 573 292 557 q 401 589 353 589 q 509 550 474 589 q 558 436 544 511 m 371 1004 l 154 1004 l 367 807 l 504 807 l 371 1004 "},"ё":{"ha":797,"x_min":40,"x_max":757,"o":"m 407 -18 q 615 38 529 -18 q 743 222 701 93 l 569 222 q 517 159 560 189 q 414 129 474 129 q 286 172 331 129 q 238 311 242 215 l 756 311 q 757 330 757 321 q 757 349 757 339 q 735 496 757 425 q 669 620 713 567 q 559 706 625 674 q 407 738 493 738 q 258 708 325 738 q 142 628 190 679 q 67 508 93 578 q 40 358 40 439 q 66 206 40 275 q 139 86 92 136 q 254 9 186 36 q 407 -18 322 -18 m 558 436 l 238 436 q 247 483 239 457 q 273 533 254 510 q 322 573 292 557 q 401 589 353 589 q 509 550 474 589 q 558 436 544 511 m 356 992 l 169 992 l 169 829 l 356 829 l 356 992 m 642 992 l 454 992 l 454 829 l 642 829 l 642 992 "},"ђ":{"ha":851,"x_min":-11,"x_max":776,"o":"m 450 -251 q 699 -165 621 -251 q 776 78 776 -78 l 776 383 q 765 505 776 450 q 724 598 753 560 q 644 658 694 636 q 514 679 593 679 q 400 651 458 679 q 304 560 342 622 l 300 560 l 300 743 l 589 743 l 589 876 l 300 876 l 300 992 l 103 992 l 103 876 l -11 876 l -11 743 l 103 743 l 103 0 l 300 0 l 300 318 q 336 476 300 428 q 453 524 372 524 q 551 480 524 524 q 579 347 579 436 l 579 90 q 569 1 579 36 q 541 -56 560 -35 q 494 -84 522 -76 q 429 -92 465 -92 q 399 -91 415 -92 q 371 -89 382 -90 l 371 -247 q 450 -251 413 -251 "},"ѓ":{"ha":629,"x_min":82,"x_max":624,"o":"m 82 718 l 82 0 l 279 0 l 279 569 l 624 569 l 624 718 l 82 718 m 215 807 l 353 807 l 567 1004 l 349 1004 l 215 807 "},"є":{"ha":800,"x_min":53,"x_max":756,"o":"m 418 -18 q 645 49 554 -18 q 756 247 736 115 l 568 247 q 515 156 553 189 q 418 124 476 124 q 301 174 342 124 q 250 308 260 224 l 488 308 l 488 433 l 254 433 q 312 551 268 508 q 422 594 356 594 q 514 567 475 594 q 567 483 553 539 l 756 483 q 649 669 738 601 q 421 738 560 738 q 269 710 338 738 q 153 632 201 682 q 79 511 106 582 q 53 353 53 440 q 78 201 53 269 q 152 83 104 132 q 267 8 200 35 q 418 -18 335 -18 "},"ѕ":{"ha":746,"x_min":40,"x_max":706,"o":"m 378 -18 q 498 -6 439 -18 q 603 35 557 6 q 677 112 649 64 q 706 231 706 160 q 686 315 706 281 q 635 372 667 349 q 562 408 603 394 q 478 432 521 422 q 396 450 436 442 q 324 469 356 458 q 274 496 293 479 q 254 539 254 513 q 265 574 254 561 q 292 594 276 588 q 328 603 308 601 q 364 606 347 606 q 456 585 417 606 q 499 508 494 565 l 686 508 q 652 619 681 575 q 581 689 624 663 q 483 726 538 715 q 369 738 428 738 q 256 727 311 738 q 156 691 200 717 q 84 620 111 665 q 57 507 57 575 q 76 426 57 458 q 128 373 96 394 q 201 338 160 351 q 285 315 242 325 q 449 271 390 293 q 508 204 508 249 q 496 160 508 178 q 465 133 483 143 q 423 117 446 122 q 379 113 400 113 q 323 119 350 113 q 275 141 296 126 q 241 178 254 156 q 228 233 228 201 l 40 233 q 73 113 43 161 q 149 36 103 65 q 256 -6 196 7 q 378 -18 315 -18 "},"і":{"ha":358,"x_min":81,"x_max":278,"o":"m 81 718 l 81 0 l 278 0 l 278 718 l 81 718 m 81 992 l 81 829 l 278 829 l 278 992 l 81 992 "},"ї":{"ha":358,"x_min":-57,"x_max":415,"o":"m 129 992 l -57 992 l -57 829 l 129 829 l 129 992 m 415 992 l 228 992 l 228 829 l 415 829 l 415 992 m 278 718 l 81 718 l 81 0 l 278 0 l 278 718 "},"ј":{"ha":386,"x_min":-25,"x_max":290,"o":"m 38 -251 q 161 -238 113 -251 q 238 -198 210 -225 q 278 -131 267 -171 q 290 -35 290 -90 l 290 718 l 93 718 l 93 -25 q 70 -77 93 -65 q 17 -89 47 -89 q -25 -83 -12 -89 l -25 -246 q 38 -251 -1 -251 m 93 992 l 93 829 l 290 829 l 290 992 l 93 992 "},"љ":{"ha":1246,"x_min":4,"x_max":1210,"o":"m 118 -11 q 232 13 189 -11 q 299 75 275 36 q 326 141 315 100 q 344 241 338 182 q 354 381 351 300 q 357 569 357 463 l 560 569 l 560 0 l 939 0 q 1047 15 997 0 q 1133 58 1096 29 q 1190 132 1169 88 q 1210 236 1210 176 q 1189 338 1210 294 q 1133 412 1168 382 q 1049 456 1097 442 q 947 471 1001 471 l 757 471 l 757 718 l 167 718 q 163 447 167 547 q 155 292 160 346 q 144 218 150 238 q 135 190 139 199 q 67 147 113 147 q 33 149 51 147 q 4 154 15 151 l 4 3 q 27 -2 13 0 q 58 -6 42 -4 q 91 -10 75 -8 q 118 -11 107 -11 m 892 136 l 757 136 l 757 338 l 890 338 q 976 313 942 338 q 1011 236 1011 289 q 978 160 1011 183 q 892 136 946 136 "},"њ":{"ha":1238,"x_min":75,"x_max":1201,"o":"m 75 718 l 75 0 l 272 0 l 272 301 l 551 301 l 551 0 l 931 0 q 1038 13 989 0 q 1124 55 1088 26 q 1181 126 1161 83 q 1201 229 1201 169 q 1181 331 1201 288 q 1124 401 1160 374 q 1041 443 1089 429 q 939 457 993 457 l 749 457 l 749 718 l 551 718 l 551 457 l 272 457 l 272 718 l 75 718 m 883 136 l 749 136 l 749 324 l 882 324 q 968 303 933 324 q 1003 229 1003 282 q 970 156 1003 176 q 883 136 938 136 "},"ћ":{"ha":851,"x_min":-11,"x_max":776,"o":"m 103 743 l 103 0 l 300 0 l 300 318 q 336 476 300 428 q 453 524 372 524 q 551 480 524 524 q 579 347 579 436 l 579 0 l 776 0 l 776 383 q 765 505 776 450 q 724 598 753 560 q 644 658 694 636 q 514 679 593 679 q 400 651 458 679 q 304 560 342 622 l 300 560 l 300 743 l 589 743 l 589 876 l 300 876 l 300 992 l 103 992 l 103 876 l -11 876 l -11 743 l 103 743 "},"ќ":{"ha":797,"x_min":75,"x_max":807,"o":"m 75 718 l 75 0 l 272 0 l 272 199 l 367 299 l 568 0 l 807 0 l 494 432 l 768 718 l 536 718 l 272 413 l 272 718 l 75 718 m 292 807 l 429 807 l 643 1004 l 425 1004 l 292 807 "},"ѝ":{"ha":833,"x_min":75,"x_max":758,"o":"m 75 718 l 75 0 l 299 0 l 569 486 l 569 0 l 758 0 l 758 718 l 535 718 l 264 232 l 264 718 l 75 718 m 403 1004 l 186 1004 l 399 807 l 536 807 l 403 1004 "},"ў":{"ha":721,"x_min":-7,"x_max":729,"o":"m 182 -251 q 340 -214 283 -251 q 429 -89 397 -176 l 729 718 l 525 718 l 368 226 l 365 226 l 203 718 l -7 718 l 244 44 q 253 0 253 24 q 229 -64 253 -39 q 161 -89 206 -89 q 110 -87 136 -89 q 61 -82 85 -85 l 61 -244 q 122 -249 92 -247 q 182 -251 151 -251 m 368 804 q 456 815 415 804 q 526 851 497 826 q 572 913 556 875 q 589 1004 589 950 l 511 1004 q 464 934 501 956 q 368 913 426 913 q 272 934 310 913 q 225 1004 235 956 l 147 1004 q 164 913 147 950 q 210 851 181 875 q 279 815 239 826 q 368 804 319 804 "},"џ":{"ha":810,"x_min":75,"x_max":735,"o":"m 313 0 l 313 -197 l 499 -197 l 499 0 l 735 0 l 735 718 l 538 718 l 538 149 l 272 149 l 272 718 l 75 718 l 75 0 l 313 0 "},"Ѣ":{"ha":1047,"x_min":0,"x_max":1006,"o":"m 203 731 l 203 0 l 643 0 q 790 17 724 0 q 905 71 857 35 q 979 165 953 107 q 1006 303 1006 222 q 978 436 1006 379 q 904 531 951 493 q 793 586 857 568 q 654 604 729 604 l 421 604 l 421 731 l 714 731 l 714 876 l 421 876 l 421 992 l 203 992 l 203 876 l 0 876 l 0 731 l 203 731 m 626 178 l 421 178 l 421 433 l 625 433 q 751 403 708 433 q 794 306 794 372 q 755 208 794 238 q 626 178 715 178 "},"ѣ":{"ha":817,"x_min":-14,"x_max":781,"o":"m 131 586 l 131 0 l 510 0 q 617 15 568 0 q 703 58 667 29 q 760 132 740 88 q 781 236 781 176 q 760 338 781 294 q 703 412 739 382 q 620 456 668 442 q 518 471 572 471 l 328 471 l 328 586 l 557 586 l 557 718 l 328 718 l 328 992 l 131 992 l 131 718 l -14 718 l -14 586 l 131 586 m 463 136 l 328 136 l 328 338 l 461 338 q 547 313 513 338 q 582 236 582 289 q 549 160 582 183 q 463 136 517 136 "},"Ѫ":{"ha":1385,"x_min":83,"x_max":1301,"o":"m 83 235 l 83 0 l 300 0 l 300 251 q 335 378 300 342 q 454 414 371 414 l 583 414 l 583 0 l 801 0 l 801 414 l 931 414 q 1049 378 1014 414 q 1085 251 1085 342 l 1085 0 l 1301 0 l 1301 235 q 1281 397 1301 331 q 1217 503 1260 463 q 1113 563 1175 544 q 967 581 1050 581 l 876 581 l 1139 992 l 251 992 l 515 581 l 418 581 q 272 563 335 581 q 167 503 210 544 q 104 397 125 463 q 83 235 83 331 m 824 836 l 699 619 l 576 836 l 824 836 "},"ѫ":{"ha":1142,"x_min":64,"x_max":1078,"o":"m 64 153 l 64 0 l 260 0 l 260 140 q 282 249 260 218 q 369 281 304 281 l 460 281 l 460 0 l 657 0 l 657 281 l 772 281 q 860 249 838 281 q 882 140 882 218 l 882 0 l 1078 0 l 1078 153 q 1018 338 1078 269 q 838 406 958 406 l 708 406 l 918 718 l 196 718 l 403 406 l 304 406 q 124 338 183 406 q 64 153 64 269 m 643 593 l 561 447 l 478 593 l 643 593 "},"Ѳ":{"ha":1081,"x_min":53,"x_max":1028,"o":"m 540 -22 q 745 17 654 -22 q 899 126 836 57 q 994 290 961 196 q 1028 492 1028 383 q 994 697 1028 601 q 899 864 961 793 q 745 975 836 935 q 540 1015 654 1015 q 335 975 425 1015 q 182 864 244 935 q 86 697 119 793 q 53 492 53 601 q 86 290 53 383 q 182 126 119 196 q 335 17 244 57 q 540 -22 425 -22 m 540 154 q 429 175 476 154 q 349 232 382 196 q 298 315 317 268 q 271 414 279 361 q 324 455 293 439 q 399 471 356 471 q 460 452 425 471 q 531 412 494 433 q 603 372 567 390 q 671 353 640 353 q 709 362 690 353 q 746 385 728 371 q 781 418 764 400 q 814 454 799 436 q 792 342 810 396 q 742 246 775 288 q 660 179 710 204 q 540 154 610 154 m 672 517 q 619 535 651 517 q 551 576 588 554 q 476 616 514 597 q 404 635 438 635 q 331 605 367 635 q 267 542 296 575 q 290 654 272 600 q 341 749 308 708 q 423 813 374 789 q 540 838 472 838 q 649 817 603 838 q 728 762 696 797 q 781 679 761 726 q 808 579 800 632 q 749 535 785 553 q 672 517 714 517 "},"ѳ":{"ha":849,"x_min":53,"x_max":796,"o":"m 424 -18 q 577 8 508 -18 q 694 84 646 35 q 769 203 743 133 q 796 358 796 272 q 769 515 796 444 q 694 634 743 585 q 577 710 646 683 q 424 738 508 738 q 271 710 339 738 q 154 634 203 683 q 79 515 106 585 q 53 358 53 444 q 79 203 53 272 q 154 84 106 133 q 271 8 203 35 q 424 -18 339 -18 m 424 124 q 353 136 383 124 q 303 171 324 149 q 269 222 282 193 q 250 283 256 250 q 286 318 265 303 q 340 333 307 333 q 381 321 361 333 q 419 294 400 308 q 459 267 439 279 q 504 256 479 256 q 557 274 532 256 q 601 315 582 292 q 586 243 597 278 q 554 182 575 208 q 501 140 533 156 q 424 124 469 124 m 506 390 q 472 402 489 390 q 435 428 454 414 q 394 456 417 443 q 346 468 372 468 q 290 447 315 468 q 246 399 265 425 q 261 473 250 438 q 293 535 272 508 q 346 578 314 563 q 424 594 378 594 q 496 581 465 594 q 547 546 526 568 q 581 493 568 524 q 599 429 593 463 q 560 401 582 411 q 506 390 538 390 "},"Ѵ":{"ha":931,"x_min":-10,"x_max":965,"o":"m -10 992 l 311 0 l 557 0 l 797 772 q 817 808 804 794 q 845 827 831 821 q 874 835 860 833 q 896 836 888 836 q 931 834 907 836 q 965 828 954 832 l 965 994 q 904 1006 943 1001 q 836 1011 865 1011 q 691 970 754 1011 q 604 849 628 929 l 438 294 l 435 294 l 214 992 l -10 992 "},"ѵ":{"ha":750,"x_min":7,"x_max":763,"o":"m 7 718 l 253 0 l 472 0 l 633 519 q 658 559 640 543 q 700 575 676 575 q 733 574 715 575 q 763 569 751 572 l 763 721 q 740 726 754 724 q 708 730 725 728 q 676 733 692 732 q 649 733 660 733 q 573 722 604 733 q 520 691 542 711 q 485 644 499 671 q 463 585 471 617 l 368 228 l 365 228 l 214 718 l 7 718 "},"Ҍ":{"ha":1047,"x_min":0,"x_max":1006,"o":"m 203 846 l 203 0 l 643 0 q 790 17 724 0 q 905 71 857 35 q 979 165 953 107 q 1006 303 1006 222 q 978 436 1006 379 q 904 531 951 493 q 793 586 857 568 q 654 604 729 604 l 421 604 l 421 846 l 631 846 l 631 992 l 421 992 l 421 1139 l 203 1139 l 203 992 l 0 992 l 0 846 l 203 846 m 626 178 l 421 178 l 421 433 l 625 433 q 751 403 708 433 q 794 306 794 372 q 755 208 794 238 q 626 178 715 178 "},"ҍ":{"ha":817,"x_min":-14,"x_max":781,"o":"m 131 586 l 131 0 l 510 0 q 617 15 568 0 q 703 58 667 29 q 760 132 740 88 q 781 236 781 176 q 760 338 781 294 q 703 412 739 382 q 620 456 668 442 q 518 471 572 471 l 328 471 l 328 586 l 492 586 l 492 718 l 328 718 l 328 868 l 131 868 l 131 718 l -14 718 l -14 586 l 131 586 m 463 136 l 328 136 l 328 338 l 461 338 q 547 313 513 338 q 582 236 582 289 q 549 160 582 183 q 463 136 517 136 "},"Ґ":{"ha":797,"x_min":96,"x_max":786,"o":"m 96 992 l 96 0 l 314 0 l 314 808 l 786 808 l 786 1210 l 576 1210 l 576 992 l 96 992 "},"ґ":{"ha":629,"x_min":82,"x_max":624,"o":"m 82 718 l 82 0 l 279 0 l 279 569 l 624 569 l 624 914 l 444 914 l 444 718 l 82 718 "},"Ғ":{"ha":871,"x_min":33,"x_max":865,"o":"m 176 426 l 176 0 l 394 0 l 394 426 l 654 426 l 654 596 l 394 596 l 394 808 l 865 808 l 865 992 l 176 992 l 176 596 l 33 596 l 33 426 l 176 426 "},"ғ":{"ha":688,"x_min":25,"x_max":682,"o":"m 140 296 l 140 0 l 338 0 l 338 296 l 539 296 l 539 422 l 338 422 l 338 569 l 682 569 l 682 718 l 140 718 l 140 422 l 25 422 l 25 296 l 140 296 "},"Җ":{"ha":1503,"x_min":-8,"x_max":1496,"o":"m 1286 0 l 1286 -226 l 1496 -226 l 1496 183 l 1358 183 l 1086 588 l 1446 992 l 1189 992 l 842 583 l 842 992 l 632 992 l 632 583 l 285 992 l 28 992 l 388 588 l -8 0 l 260 0 l 525 433 l 632 313 l 632 0 l 842 0 l 842 313 l 949 433 l 1213 0 l 1286 0 "},"җ":{"ha":1156,"x_min":-7,"x_max":1151,"o":"m 967 0 l 967 -197 l 1151 -197 l 1151 149 l 1040 149 l 856 438 l 1107 718 l 889 718 l 657 432 l 657 718 l 471 718 l 471 432 l 239 718 l 21 718 l 268 442 l -7 0 l 221 0 l 397 299 l 471 215 l 471 0 l 657 0 l 657 215 l 731 299 l 907 0 l 967 0 "},"Ҙ":{"ha":899,"x_min":29,"x_max":847,"o":"m 453 -301 q 513 -295 483 -301 q 565 -273 542 -289 q 601 -230 588 -257 q 615 -162 615 -203 q 604 -119 615 -137 q 575 -88 593 -100 q 534 -71 557 -76 q 488 -65 511 -65 q 440 -72 457 -65 l 438 -72 l 474 -22 q 622 6 553 -19 q 740 74 690 31 q 819 177 790 118 q 847 307 847 236 q 833 394 847 354 q 793 465 818 435 q 733 514 768 494 q 660 540 699 533 q 768 610 726 556 q 810 739 810 664 q 783 852 810 801 q 709 939 756 903 q 598 995 663 975 q 458 1015 533 1015 q 310 997 381 1015 q 187 939 240 978 q 101 840 133 900 q 68 697 69 781 l 274 697 q 328 808 281 769 q 457 847 376 847 q 565 815 524 847 q 606 725 606 783 q 426 590 606 590 q 399 590 417 590 q 368 592 381 590 l 368 444 l 443 444 q 513 439 479 444 q 572 417 546 433 q 614 374 599 401 q 629 306 629 347 q 582 191 629 238 q 458 144 535 144 q 376 155 414 144 q 309 188 338 165 q 263 247 281 211 q 244 333 246 283 l 29 333 q 129 83 32 175 q 407 -21 226 -8 l 342 -114 l 371 -147 q 426 -137 396 -137 q 466 -147 450 -137 q 482 -182 482 -156 q 467 -218 482 -207 q 426 -229 451 -229 q 361 -222 390 -229 q 310 -204 332 -214 l 281 -271 q 317 -283 300 -278 q 353 -293 335 -289 q 396 -299 372 -297 q 453 -301 419 -301 "},"ҙ":{"ha":753,"x_min":31,"x_max":701,"o":"m 379 -301 q 439 -295 410 -301 q 491 -273 468 -289 q 528 -230 514 -257 q 542 -162 542 -203 q 531 -119 542 -137 q 501 -88 519 -100 q 460 -71 483 -76 q 414 -65 438 -65 q 367 -72 383 -65 l 364 -72 l 403 -17 q 525 3 469 -12 q 619 47 581 18 q 680 117 658 75 q 701 213 701 158 q 687 291 701 260 q 650 342 672 322 q 601 372 628 363 q 549 383 574 381 l 549 386 q 594 403 571 390 q 636 438 618 417 q 666 485 654 458 q 678 544 678 513 q 599 691 678 644 q 378 738 521 738 q 260 725 317 738 q 160 685 204 713 q 88 615 117 658 q 54 508 60 571 l 238 508 q 280 587 246 567 q 374 607 314 607 q 459 583 432 607 q 486 526 486 558 q 449 453 486 472 q 350 433 413 433 l 299 433 l 299 310 l 375 310 q 470 282 442 310 q 499 210 499 254 q 468 142 499 169 q 371 114 438 114 q 263 144 303 114 q 218 233 224 175 l 31 233 q 56 122 32 168 q 122 46 81 76 q 219 1 164 15 q 336 -17 274 -14 l 268 -114 l 297 -147 q 353 -137 322 -137 q 392 -147 376 -137 q 408 -182 408 -156 q 393 -218 408 -207 q 353 -229 378 -229 q 288 -222 317 -229 q 236 -204 258 -214 l 207 -271 q 244 -283 226 -278 q 280 -293 261 -289 q 322 -299 299 -297 q 379 -301 346 -301 "},"Қ":{"ha":1032,"x_min":96,"x_max":1025,"o":"m 815 0 l 815 -226 l 1025 -226 l 1025 183 l 882 183 l 586 600 l 974 992 l 701 992 l 314 581 l 314 992 l 96 992 l 96 0 l 314 0 l 314 319 l 439 446 l 738 0 l 815 0 "},"қ":{"ha":814,"x_min":75,"x_max":810,"o":"m 625 0 l 625 -197 l 810 -197 l 810 149 l 701 149 l 494 432 l 768 718 l 536 718 l 272 413 l 272 718 l 75 718 l 75 0 l 272 0 l 272 199 l 367 299 l 568 0 l 625 0 "},"Ҝ":{"ha":1044,"x_min":96,"x_max":1053,"o":"m 96 992 l 96 0 l 314 0 l 314 428 l 379 428 l 379 240 l 490 240 l 490 428 l 497 428 l 779 0 l 1053 0 l 678 531 l 1029 992 l 785 992 l 507 611 l 490 611 l 490 796 l 379 796 l 379 611 l 314 611 l 314 992 l 96 992 "},"ҝ":{"ha":854,"x_min":75,"x_max":863,"o":"m 75 718 l 75 0 l 272 0 l 272 299 l 325 299 l 325 167 l 415 167 l 415 299 l 422 299 l 624 0 l 863 0 l 579 393 l 840 718 l 624 718 l 422 449 l 415 449 l 415 576 l 325 576 l 325 449 l 272 449 l 272 718 l 75 718 "},"Ҡ":{"ha":1193,"x_min":18,"x_max":1201,"o":"m 286 808 l 286 0 l 504 0 l 504 319 l 629 446 l 928 0 l 1201 0 l 776 600 l 1164 992 l 892 992 l 504 581 l 504 992 l 18 992 l 18 808 l 286 808 "},"ҡ":{"ha":933,"x_min":14,"x_max":943,"o":"m 211 569 l 211 0 l 408 0 l 408 199 l 503 299 l 704 0 l 943 0 l 631 432 l 904 718 l 672 718 l 408 413 l 408 718 l 14 718 l 14 569 l 211 569 "},"Ң":{"ha":1057,"x_min":96,"x_max":1043,"o":"m 833 0 l 833 -226 l 1043 -226 l 1043 183 l 933 183 l 933 992 l 715 992 l 715 611 l 314 611 l 314 992 l 96 992 l 96 0 l 314 0 l 314 428 l 715 428 l 715 0 l 833 0 "},"ң":{"ha":847,"x_min":75,"x_max":838,"o":"m 653 0 l 653 -197 l 838 -197 l 838 149 l 749 149 l 749 718 l 551 718 l 551 457 l 272 457 l 272 718 l 75 718 l 75 0 l 272 0 l 272 301 l 551 301 l 551 0 l 653 0 "},"Ҥ":{"ha":1410,"x_min":96,"x_max":1404,"o":"m 96 992 l 96 0 l 314 0 l 314 428 l 715 428 l 715 0 l 933 0 l 933 808 l 1404 808 l 1404 992 l 715 992 l 715 611 l 314 611 l 314 992 l 96 992 "},"ҥ":{"ha":1099,"x_min":75,"x_max":1093,"o":"m 75 718 l 75 0 l 272 0 l 272 301 l 551 301 l 551 0 l 749 0 l 749 569 l 1093 569 l 1093 718 l 551 718 l 551 457 l 272 457 l 272 718 l 75 718 "},"Ҫ":{"ha":1029,"x_min":53,"x_max":976,"o":"m 536 -301 q 596 -295 567 -301 q 648 -273 625 -289 q 685 -230 671 -257 q 699 -162 699 -203 q 688 -119 699 -137 q 658 -88 676 -100 q 617 -71 640 -76 q 571 -65 594 -65 q 524 -72 540 -65 l 521 -72 l 557 -22 q 718 10 644 -19 q 847 91 792 39 q 935 217 901 143 q 976 382 968 290 l 765 382 q 697 221 753 282 q 540 160 640 160 q 415 188 467 160 q 332 264 364 217 q 285 370 300 311 q 271 492 271 429 q 285 618 271 557 q 332 727 300 679 q 415 803 364 775 q 540 832 467 832 q 617 819 581 832 q 683 782 654 806 q 732 727 713 758 q 757 658 751 696 l 968 658 q 921 811 958 744 q 826 923 883 878 q 694 992 768 968 q 540 1015 621 1015 q 335 975 425 1015 q 182 864 244 935 q 86 697 119 793 q 53 492 53 601 q 83 299 53 389 q 169 142 113 210 q 306 31 225 74 q 490 -19 388 -11 l 425 -114 l 454 -147 q 510 -137 479 -137 q 549 -147 533 -137 q 565 -182 565 -156 q 550 -218 565 -207 q 510 -229 535 -229 q 444 -222 474 -229 q 393 -204 415 -214 l 364 -271 q 401 -283 383 -278 q 437 -293 418 -289 q 479 -299 456 -297 q 536 -301 503 -301 "},"ҫ":{"ha":797,"x_min":53,"x_max":761,"o":"m 425 -301 q 485 -295 456 -301 q 537 -273 514 -289 q 574 -230 560 -257 q 588 -162 588 -203 q 576 -119 588 -137 q 547 -88 565 -100 q 506 -71 529 -76 q 460 -65 483 -65 q 413 -72 429 -65 l 410 -72 l 449 -17 q 660 66 579 -8 q 761 275 742 140 l 571 275 q 523 169 561 208 q 414 129 485 129 q 336 150 368 129 q 285 203 304 171 q 258 276 267 236 q 250 356 250 317 q 258 436 250 394 q 287 512 267 478 q 339 567 307 546 q 418 589 371 589 q 564 465 544 589 l 757 465 q 724 585 753 533 q 648 670 694 636 q 542 721 601 704 q 419 738 483 738 q 264 708 332 738 q 149 627 196 679 q 77 503 101 575 q 53 349 53 432 q 76 208 53 272 q 143 95 100 143 q 247 18 186 47 q 382 -17 307 -11 l 314 -114 l 343 -147 q 399 -137 368 -137 q 438 -147 422 -137 q 454 -182 454 -156 q 439 -218 454 -207 q 399 -229 424 -229 q 333 -222 363 -229 q 282 -204 304 -214 l 253 -271 q 290 -283 272 -278 q 326 -293 307 -289 q 368 -299 344 -297 q 425 -301 392 -301 "},"Ү":{"ha":926,"x_min":-11,"x_max":939,"o":"m 353 386 l 353 0 l 571 0 l 571 381 l 939 992 l 696 992 l 465 600 l 233 992 l -11 992 l 353 386 "},"ү":{"ha":721,"x_min":-7,"x_max":729,"o":"m 261 24 l 261 -251 l 458 -251 l 458 14 l 729 718 l 525 718 l 368 240 l 365 240 l 203 718 l -7 718 l 261 24 "},"Ұ":{"ha":926,"x_min":-11,"x_max":939,"o":"m 353 186 l 353 0 l 571 0 l 571 186 l 785 186 l 785 332 l 571 332 l 571 381 l 939 992 l 696 992 l 465 600 l 233 992 l -11 992 l 353 386 l 353 332 l 139 332 l 139 186 l 353 186 "},"ұ":{"ha":721,"x_min":-7,"x_max":729,"o":"m 261 -143 l 261 -251 l 458 -251 l 458 -143 l 628 -143 l 628 -11 l 458 -11 l 458 14 l 729 718 l 525 718 l 368 240 l 365 240 l 203 718 l -7 718 l 261 24 l 261 -11 l 92 -11 l 92 -143 l 261 -143 "},"Ҳ":{"ha":956,"x_min":-7,"x_max":949,"o":"m 739 0 l 739 -226 l 949 -226 l 949 183 l 813 183 l 589 518 l 907 992 l 668 992 l 467 675 l 272 992 l 19 992 l 339 519 l -7 0 l 238 0 l 458 343 l 675 0 l 739 0 "},"ҳ":{"ha":768,"x_min":0,"x_max":764,"o":"m 521 0 l 579 0 l 579 -197 l 764 -197 l 764 149 l 643 149 l 481 382 l 717 718 l 499 718 l 374 531 l 247 718 l 22 718 l 258 378 l 0 0 l 221 0 l 371 226 l 521 0 "},"Ҷ":{"ha":971,"x_min":63,"x_max":957,"o":"m 747 0 l 747 -226 l 957 -226 l 957 183 l 847 183 l 847 992 l 629 992 l 629 551 q 593 545 617 549 q 542 538 569 542 q 485 532 514 535 q 433 529 456 529 q 315 565 350 529 q 279 692 279 601 l 279 992 l 63 992 l 63 694 q 87 533 63 599 q 156 426 111 467 q 267 367 201 385 q 417 349 333 349 q 468 351 439 349 q 527 358 497 354 q 584 367 557 363 q 629 376 611 372 l 629 0 l 747 0 "},"ҷ":{"ha":821,"x_min":56,"x_max":811,"o":"m 626 0 l 626 -197 l 811 -197 l 811 149 l 722 149 l 722 718 l 525 718 l 525 417 q 492 410 513 414 q 449 403 472 406 q 403 398 426 400 q 361 396 379 396 q 274 427 296 396 q 251 536 251 458 l 251 718 l 56 718 l 56 496 q 115 311 56 379 q 296 243 175 243 q 364 247 329 243 q 430 256 399 250 q 486 266 461 261 q 525 275 511 271 l 525 0 l 626 0 "},"Ҹ":{"ha":944,"x_min":63,"x_max":847,"o":"m 629 376 l 629 0 l 847 0 l 847 992 l 629 992 l 629 551 q 578 542 614 547 q 506 533 543 536 l 506 726 l 394 726 l 394 531 q 306 575 332 538 q 279 692 279 613 l 279 992 l 63 992 l 63 694 q 85 537 63 601 q 150 431 107 472 q 254 370 193 390 q 394 349 315 350 l 394 171 l 506 171 l 506 354 q 574 365 542 358 q 629 376 607 371 "},"ҹ":{"ha":797,"x_min":56,"x_max":722,"o":"m 525 275 l 525 0 l 722 0 l 722 718 l 525 718 l 525 417 q 483 408 510 413 q 429 400 457 403 l 429 535 l 339 535 l 339 397 q 269 433 286 401 q 251 536 251 465 l 251 718 l 56 718 l 56 496 q 115 311 56 379 q 296 243 175 243 q 317 243 307 243 q 339 244 328 243 l 339 111 l 429 111 l 429 254 q 485 265 461 260 q 525 275 510 271 "},"Һ":{"ha":938,"x_min":96,"x_max":881,"o":"m 96 992 l 96 0 l 314 0 l 314 440 q 350 447 326 443 q 401 453 374 450 q 458 460 429 457 q 510 463 488 463 q 628 426 593 463 q 664 300 664 390 l 664 0 l 881 0 l 881 297 q 856 459 881 393 q 787 566 832 525 q 676 625 742 607 q 526 643 610 643 q 475 640 504 643 q 416 633 446 638 q 359 624 386 629 q 314 615 332 619 l 314 992 l 96 992 "},"һ":{"ha":824,"x_min":75,"x_max":749,"o":"m 75 992 l 75 0 l 272 0 l 272 376 q 308 534 272 486 q 425 582 344 582 q 524 538 496 582 q 551 406 551 494 l 551 0 l 749 0 l 749 442 q 737 563 749 508 q 696 656 725 618 q 616 716 667 694 q 486 738 565 738 q 372 709 431 738 q 276 618 314 681 l 272 618 l 272 992 l 75 992 "},"Ӏ":{"ha":410,"x_min":96,"x_max":314,"o":"m 96 992 l 96 0 l 314 0 l 314 992 l 96 992 "},"Ӂ":{"ha":1474,"x_min":-8,"x_max":1482,"o":"m 388 588 l -8 0 l 260 0 l 525 433 l 632 313 l 632 0 l 842 0 l 842 313 l 949 433 l 1213 0 l 1482 0 l 1086 588 l 1446 992 l 1189 992 l 842 583 l 842 992 l 632 992 l 632 583 l 285 992 l 28 992 l 388 588 m 735 1076 q 899 1129 836 1076 q 961 1290 961 1182 l 883 1290 q 833 1217 874 1242 q 735 1192 793 1192 q 636 1217 676 1192 q 586 1290 596 1242 l 508 1290 q 571 1129 508 1182 q 735 1076 633 1076 "},"ӂ":{"ha":1128,"x_min":-7,"x_max":1135,"o":"m 268 442 l -7 0 l 221 0 l 397 299 l 471 215 l 471 0 l 657 0 l 657 215 l 731 299 l 907 0 l 1135 0 l 856 438 l 1107 718 l 889 718 l 657 432 l 657 718 l 471 718 l 471 432 l 239 718 l 21 718 l 268 442 m 563 804 q 651 815 610 804 q 721 851 692 826 q 767 913 750 875 q 783 1004 783 950 l 706 1004 q 658 934 696 956 q 563 913 621 913 q 467 934 504 913 q 419 1004 429 956 l 342 1004 q 358 913 342 950 q 404 851 375 875 q 474 815 433 826 q 563 804 514 804 "},"Ӑ":{"ha":951,"x_min":-8,"x_max":961,"o":"m 367 992 l -8 0 l 211 0 l 289 221 l 660 221 l 735 0 l 961 0 l 590 992 l 367 992 m 603 383 l 346 383 l 475 747 l 478 747 l 603 383 m 474 1076 q 638 1129 575 1076 q 700 1290 700 1182 l 622 1290 q 572 1217 613 1242 q 474 1192 532 1192 q 375 1217 415 1192 q 325 1290 335 1242 l 247 1290 q 310 1129 247 1182 q 474 1076 372 1076 "},"ӑ":{"ha":797,"x_min":44,"x_max":744,"o":"m 289 -18 q 419 1 356 -18 q 531 69 483 21 q 535 34 532 51 q 544 0 539 17 l 744 0 q 725 67 731 22 q 719 160 719 111 l 719 533 q 690 638 719 597 q 615 700 661 678 q 514 730 569 722 q 404 738 458 738 q 285 726 343 738 q 179 686 226 714 q 101 612 132 658 q 67 497 71 565 l 264 497 q 303 581 269 556 q 394 606 336 606 q 444 602 421 606 q 484 588 467 599 q 512 558 501 578 q 522 508 522 539 q 504 462 524 478 q 451 438 485 446 q 375 425 418 429 q 288 414 332 421 q 199 395 243 407 q 122 360 156 383 q 66 297 88 336 q 44 196 44 257 q 63 100 44 140 q 115 33 82 60 q 193 -6 149 7 q 289 -18 238 -18 m 363 113 q 317 117 339 113 q 278 131 294 121 q 251 159 261 142 q 242 204 242 176 q 251 250 242 232 q 277 280 261 268 q 314 299 293 292 q 358 310 335 306 q 406 317 382 314 q 451 324 429 319 q 492 334 474 328 q 522 351 510 340 l 522 278 q 519 233 522 261 q 500 178 515 206 q 453 132 485 151 q 363 113 421 113 m 397 804 q 485 815 444 804 q 556 851 526 826 q 601 913 585 875 q 618 1004 618 950 l 540 1004 q 493 934 531 956 q 397 913 456 913 q 301 934 339 913 q 254 1004 264 956 l 176 1004 q 193 913 176 950 q 239 851 210 875 q 308 815 268 826 q 397 804 349 804 "},"Ӓ":{"ha":951,"x_min":-8,"x_max":961,"o":"m 367 992 l -8 0 l 211 0 l 289 221 l 660 221 l 735 0 l 961 0 l 590 992 l 367 992 m 603 383 l 346 383 l 475 747 l 478 747 l 603 383 m 425 1265 l 239 1265 l 239 1103 l 425 1103 l 425 1265 m 711 1265 l 524 1265 l 524 1103 l 711 1103 l 711 1265 "},"ӓ":{"ha":797,"x_min":44,"x_max":744,"o":"m 289 -18 q 419 1 356 -18 q 531 69 483 21 q 535 34 532 51 q 544 0 539 17 l 744 0 q 725 67 731 22 q 719 160 719 111 l 719 533 q 690 638 719 597 q 615 700 661 678 q 514 730 569 722 q 404 738 458 738 q 285 726 343 738 q 179 686 226 714 q 101 612 132 658 q 67 497 71 565 l 264 497 q 303 581 269 556 q 394 606 336 606 q 444 602 421 606 q 484 588 467 599 q 512 558 501 578 q 522 508 522 539 q 504 462 524 478 q 451 438 485 446 q 375 425 418 429 q 288 414 332 421 q 199 395 243 407 q 122 360 156 383 q 66 297 88 336 q 44 196 44 257 q 63 100 44 140 q 115 33 82 60 q 193 -6 149 7 q 289 -18 238 -18 m 363 113 q 317 117 339 113 q 278 131 294 121 q 251 159 261 142 q 242 204 242 176 q 251 250 242 232 q 277 280 261 268 q 314 299 293 292 q 358 310 335 306 q 406 317 382 314 q 451 324 429 319 q 492 334 474 328 q 522 351 510 340 l 522 278 q 519 233 522 261 q 500 178 515 206 q 453 132 485 151 q 363 113 421 113 m 349 992 l 163 992 l 163 829 l 349 829 l 349 992 m 635 992 l 447 992 l 447 829 l 635 829 l 635 992 "},"Ӕ":{"ha":1363,"x_min":-14,"x_max":1311,"o":"m 458 992 l -14 0 l 217 0 l 317 221 l 628 221 l 628 0 l 1311 0 l 1311 183 l 839 183 l 839 426 l 1272 426 l 1272 596 l 839 596 l 839 808 l 1300 808 l 1300 992 l 458 992 m 628 383 l 389 383 l 581 808 l 628 808 l 628 383 "},"ӕ":{"ha":1260,"x_min":53,"x_max":1219,"o":"m 321 -18 q 403 -12 361 -18 q 483 9 444 -6 q 555 47 521 24 q 614 103 589 69 q 732 10 660 38 q 882 -18 804 -18 q 994 -2 940 -18 q 1091 45 1047 14 q 1166 122 1135 76 q 1213 225 1197 167 l 1021 225 q 978 142 1011 172 q 878 113 944 113 q 804 131 836 113 q 750 176 772 149 q 717 240 728 204 q 707 311 706 275 l 1219 311 q 1201 472 1219 394 q 1144 608 1183 549 q 1041 702 1104 667 q 889 738 978 738 q 746 713 801 738 q 649 640 690 689 q 601 687 629 668 q 542 717 574 706 q 476 733 510 728 q 411 738 442 738 q 288 725 349 738 q 181 684 228 713 q 105 609 135 656 q 72 494 75 563 l 269 494 q 310 581 272 557 q 407 606 349 606 q 453 602 431 606 q 494 588 476 599 q 524 560 513 578 q 535 514 535 542 q 521 471 535 486 q 477 446 507 456 q 401 430 447 436 q 293 414 356 424 q 206 395 249 407 q 128 359 163 383 q 74 295 94 335 q 53 194 53 256 q 76 93 53 133 q 136 28 99 53 q 222 -8 174 3 q 321 -18 269 -18 m 372 113 q 327 117 349 113 q 288 132 306 121 q 260 160 271 143 q 250 206 250 178 q 284 278 250 257 q 365 307 318 299 q 460 321 413 315 q 535 350 507 326 l 535 261 q 519 193 535 221 q 481 147 504 165 q 428 121 457 129 q 372 113 399 113 m 1022 436 l 707 436 q 718 500 707 469 q 750 554 729 531 q 801 592 771 578 q 868 606 831 606 q 934 592 906 606 q 983 554 963 578 q 1013 500 1003 531 q 1022 436 1022 469 "},"Ӗ":{"ha":900,"x_min":96,"x_max":849,"o":"m 96 992 l 96 0 l 849 0 l 849 183 l 314 183 l 314 426 l 794 426 l 794 596 l 314 596 l 314 808 l 838 808 l 838 992 l 96 992 m 476 1076 q 640 1129 578 1076 q 703 1290 703 1182 l 625 1290 q 575 1217 615 1242 q 476 1192 535 1192 q 378 1217 418 1192 q 328 1290 338 1242 l 250 1290 q 313 1129 250 1182 q 476 1076 375 1076 "},"ӗ":{"ha":797,"x_min":40,"x_max":757,"o":"m 407 -18 q 615 38 529 -18 q 743 222 701 93 l 569 222 q 517 159 560 189 q 414 129 474 129 q 286 172 331 129 q 238 311 242 215 l 756 311 q 757 330 757 321 q 757 349 757 339 q 735 496 757 425 q 669 620 713 567 q 559 706 625 674 q 407 738 493 738 q 258 708 325 738 q 142 628 190 679 q 67 508 93 578 q 40 358 40 439 q 66 206 40 275 q 139 86 92 136 q 254 9 186 36 q 407 -18 322 -18 m 558 436 l 238 436 q 247 483 239 457 q 273 533 254 510 q 322 573 292 557 q 401 589 353 589 q 509 550 474 589 q 558 436 544 511 m 397 804 q 485 815 444 804 q 556 851 526 826 q 601 913 585 875 q 618 1004 618 950 l 540 1004 q 493 934 531 956 q 397 913 456 913 q 301 934 339 913 q 254 1004 264 956 l 176 1004 q 193 913 176 950 q 239 851 210 875 q 308 815 268 826 q 397 804 349 804 "},"Ә":{"ha":1039,"x_min":53,"x_max":986,"o":"m 522 -22 q 710 15 625 -22 q 857 121 796 53 q 952 285 918 189 q 986 497 986 381 q 953 700 986 606 q 857 865 919 794 q 704 975 794 935 q 500 1015 614 1015 q 340 990 414 1015 q 209 920 265 965 q 117 814 153 875 q 71 681 81 753 l 278 681 q 359 795 297 756 q 504 835 421 835 q 681 760 610 835 q 768 556 753 686 l 56 556 q 53 524 54 546 q 53 492 53 501 q 81 290 53 383 q 168 126 110 196 q 315 17 226 57 q 522 -22 403 -22 m 521 158 q 425 176 467 158 q 353 224 383 193 q 306 296 324 254 q 281 386 288 338 l 761 386 q 675 215 738 272 q 521 158 613 158 "},"ә":{"ha":797,"x_min":42,"x_max":757,"o":"m 390 -18 q 540 11 472 -18 q 656 91 607 40 q 731 211 704 142 q 757 361 757 281 q 731 514 757 444 q 658 633 706 583 q 543 710 611 683 q 390 738 475 738 q 182 682 268 738 q 54 497 96 626 l 228 497 q 281 560 238 531 q 383 590 324 590 q 511 547 467 590 q 560 408 556 504 l 42 408 q 56 249 36 325 q 119 113 75 172 q 231 17 163 53 q 390 -18 299 -18 m 396 131 q 288 169 324 131 q 239 283 253 208 l 560 283 q 551 236 558 263 q 524 186 543 210 q 474 147 506 163 q 396 131 443 131 "},"Ӝ":{"ha":1474,"x_min":-8,"x_max":1482,"o":"m 388 588 l -8 0 l 260 0 l 525 433 l 632 313 l 632 0 l 842 0 l 842 313 l 949 433 l 1213 0 l 1482 0 l 1086 588 l 1446 992 l 1189 992 l 842 583 l 842 992 l 632 992 l 632 583 l 285 992 l 28 992 l 388 588 m 686 1265 l 500 1265 l 500 1103 l 686 1103 l 686 1265 m 972 1265 l 785 1265 l 785 1103 l 972 1103 l 972 1265 "},"ӝ":{"ha":1128,"x_min":-7,"x_max":1135,"o":"m 268 442 l -7 0 l 221 0 l 397 299 l 471 215 l 471 0 l 657 0 l 657 215 l 731 299 l 907 0 l 1135 0 l 856 438 l 1107 718 l 889 718 l 657 432 l 657 718 l 471 718 l 471 432 l 239 718 l 21 718 l 268 442 m 514 992 l 328 992 l 328 829 l 514 829 l 514 992 m 800 992 l 613 992 l 613 829 l 800 829 l 800 992 "},"Ӟ":{"ha":899,"x_min":29,"x_max":847,"o":"m 458 -22 q 613 2 542 -22 q 735 70 683 26 q 817 174 788 114 q 847 307 847 235 q 833 394 847 354 q 793 465 818 435 q 733 514 768 494 q 660 540 699 533 q 768 610 726 556 q 810 739 810 664 q 783 852 810 801 q 709 939 756 903 q 598 995 663 975 q 458 1015 533 1015 q 310 997 381 1015 q 187 939 240 978 q 101 840 133 900 q 68 697 69 781 l 274 697 q 328 808 281 769 q 457 847 376 847 q 565 815 524 847 q 606 725 606 783 q 426 590 606 590 q 399 590 417 590 q 368 592 381 590 l 368 444 l 443 444 q 513 439 479 444 q 572 417 546 433 q 614 374 599 401 q 629 306 629 347 q 582 191 629 238 q 458 144 535 144 q 376 155 414 144 q 309 188 338 165 q 263 247 281 211 q 244 333 246 283 l 29 333 q 143 72 32 165 q 458 -22 254 -22 m 399 1265 l 213 1265 l 213 1103 l 399 1103 l 399 1265 m 685 1265 l 497 1265 l 497 1103 l 685 1103 l 685 1265 "},"ӟ":{"ha":753,"x_min":31,"x_max":701,"o":"m 367 -18 q 503 -4 442 -18 q 609 39 565 10 q 677 111 653 68 q 701 213 701 154 q 687 291 701 260 q 650 342 672 322 q 601 372 628 363 q 549 383 574 381 l 549 386 q 594 403 571 390 q 636 438 618 417 q 666 485 654 458 q 678 544 678 513 q 599 691 678 644 q 378 738 521 738 q 260 725 317 738 q 160 685 204 713 q 88 615 117 658 q 54 508 60 571 l 238 508 q 280 587 246 567 q 374 607 314 607 q 459 583 432 607 q 486 526 486 558 q 449 453 486 472 q 350 433 413 433 l 299 433 l 299 310 l 375 310 q 470 282 442 310 q 499 210 499 254 q 468 142 499 169 q 371 114 438 114 q 263 144 303 114 q 218 233 224 175 l 31 233 q 59 117 32 164 q 132 39 86 69 q 238 -5 178 8 q 367 -18 299 -18 m 326 992 l 140 992 l 140 829 l 326 829 l 326 992 m 613 992 l 425 992 l 425 829 l 613 829 l 613 992 "},"Ӣ":{"ha":1035,"x_min":96,"x_max":939,"o":"m 96 992 l 96 0 l 340 0 l 718 689 l 722 689 l 722 0 l 939 0 l 939 992 l 694 992 l 317 304 l 313 304 l 313 992 l 96 992 m 776 1233 l 260 1233 l 260 1129 l 776 1129 l 776 1233 "},"ӣ":{"ha":833,"x_min":75,"x_max":758,"o":"m 75 718 l 75 0 l 299 0 l 569 486 l 569 0 l 758 0 l 758 718 l 535 718 l 264 232 l 264 718 l 75 718 m 675 960 l 158 960 l 158 856 l 675 856 l 675 960 "},"Ӥ":{"ha":1035,"x_min":96,"x_max":939,"o":"m 96 992 l 96 0 l 340 0 l 718 689 l 722 689 l 722 0 l 939 0 l 939 992 l 694 992 l 317 304 l 313 304 l 313 992 l 96 992 m 467 1265 l 281 1265 l 281 1103 l 467 1103 l 467 1265 m 753 1265 l 565 1265 l 565 1103 l 753 1103 l 753 1265 "},"ӥ":{"ha":833,"x_min":75,"x_max":758,"o":"m 75 718 l 75 0 l 299 0 l 569 486 l 569 0 l 758 0 l 758 718 l 535 718 l 264 232 l 264 718 l 75 718 m 367 992 l 181 992 l 181 829 l 367 829 l 367 992 m 653 992 l 465 992 l 465 829 l 653 829 l 653 992 "},"Ӧ":{"ha":1081,"x_min":53,"x_max":1028,"o":"m 540 -22 q 745 17 654 -22 q 899 126 836 57 q 994 290 961 196 q 1028 492 1028 383 q 994 697 1028 601 q 899 864 961 793 q 745 975 836 935 q 540 1015 654 1015 q 335 975 425 1015 q 182 864 244 935 q 86 697 119 793 q 53 492 53 601 q 86 290 53 383 q 182 126 119 196 q 335 17 244 57 q 540 -22 425 -22 m 540 160 q 415 188 467 160 q 332 264 364 217 q 285 370 300 311 q 271 492 271 429 q 285 618 271 557 q 332 727 300 679 q 415 803 364 775 q 540 832 467 832 q 665 803 614 832 q 749 727 717 775 q 795 618 781 679 q 810 492 810 557 q 795 370 810 429 q 749 264 781 311 q 665 188 717 217 q 540 160 614 160 m 490 1265 l 304 1265 l 304 1103 l 490 1103 l 490 1265 m 776 1265 l 589 1265 l 589 1103 l 776 1103 l 776 1265 "},"ӧ":{"ha":849,"x_min":53,"x_max":796,"o":"m 424 -18 q 577 8 508 -18 q 694 84 646 35 q 769 203 743 133 q 796 358 796 272 q 769 515 796 444 q 694 634 743 585 q 577 710 646 683 q 424 738 508 738 q 271 710 339 738 q 154 634 203 683 q 79 515 106 585 q 53 358 53 444 q 79 203 53 272 q 154 84 106 133 q 271 8 203 35 q 424 -18 339 -18 m 424 129 q 340 149 374 129 q 287 201 307 168 q 258 274 267 233 q 250 358 250 315 q 258 443 250 401 q 287 517 267 485 q 340 569 307 549 q 424 589 374 589 q 508 569 474 589 q 562 517 542 549 q 590 443 582 485 q 599 358 599 401 q 590 274 599 315 q 562 201 582 233 q 508 149 542 168 q 424 129 474 129 m 374 992 l 188 992 l 188 829 l 374 829 l 374 992 m 660 992 l 472 992 l 472 829 l 660 829 l 660 992 "},"Ө":{"ha":1081,"x_min":53,"x_max":1028,"o":"m 540 -22 q 745 17 654 -22 q 899 126 836 57 q 994 290 961 196 q 1028 492 1028 383 q 994 697 1028 601 q 899 864 961 793 q 745 975 836 935 q 540 1015 654 1015 q 335 975 425 1015 q 182 864 244 935 q 86 697 119 793 q 53 492 53 601 q 86 290 53 383 q 182 126 119 196 q 335 17 244 57 q 540 -22 425 -22 m 540 154 q 426 177 474 154 q 344 238 378 200 q 292 327 311 276 q 268 432 274 378 l 811 432 q 786 327 804 378 q 735 238 768 276 q 655 177 703 200 q 540 154 607 154 m 807 590 l 274 590 q 302 687 282 642 q 355 765 322 732 q 433 818 388 799 q 540 838 479 838 q 646 818 600 838 q 724 765 692 799 q 777 687 757 732 q 807 590 797 642 "},"ө":{"ha":849,"x_min":53,"x_max":796,"o":"m 424 -18 q 577 8 508 -18 q 694 84 646 35 q 769 203 743 133 q 796 358 796 272 q 769 515 796 444 q 694 634 743 585 q 577 710 646 683 q 424 738 508 738 q 271 710 339 738 q 154 634 203 683 q 79 515 106 585 q 53 358 53 444 q 79 203 53 272 q 154 84 106 133 q 271 8 203 35 q 424 -18 339 -18 m 424 124 q 348 138 379 124 q 296 178 317 153 q 263 236 275 203 q 247 307 251 269 l 601 307 q 585 236 597 269 q 553 178 574 203 q 500 138 532 153 q 424 124 468 124 m 597 439 l 251 439 q 271 499 258 471 q 304 549 283 528 q 354 582 325 569 q 424 594 383 594 q 493 582 464 594 q 543 549 522 569 q 577 499 564 528 q 597 439 590 471 "},"Ӯ":{"ha":899,"x_min":-7,"x_max":908,"o":"m 246 -18 q 351 -3 306 -18 q 435 46 397 13 q 507 133 474 79 q 575 261 540 186 l 908 992 l 676 992 l 461 475 l 233 992 l -7 992 l 283 381 q 314 316 299 350 q 329 250 329 282 q 304 191 329 217 q 229 165 279 165 q 125 176 165 165 l 125 0 q 177 -12 144 -6 q 246 -18 210 -18 m 707 1233 l 190 1233 l 190 1129 l 707 1129 l 707 1233 "},"ӯ":{"ha":721,"x_min":-7,"x_max":729,"o":"m 182 -251 q 340 -214 283 -251 q 429 -89 397 -176 l 729 718 l 525 718 l 368 226 l 365 226 l 203 718 l -7 718 l 244 44 q 253 0 253 24 q 229 -64 253 -39 q 161 -89 206 -89 q 110 -87 136 -89 q 61 -82 85 -85 l 61 -244 q 122 -249 92 -247 q 182 -251 151 -251 m 618 960 l 101 960 l 101 856 l 618 856 l 618 960 "},"Ӱ":{"ha":899,"x_min":-7,"x_max":908,"o":"m 246 -18 q 351 -3 306 -18 q 435 46 397 13 q 507 133 474 79 q 575 261 540 186 l 908 992 l 676 992 l 461 475 l 233 992 l -7 992 l 283 381 q 314 316 299 350 q 329 250 329 282 q 304 191 329 217 q 229 165 279 165 q 125 176 165 165 l 125 0 q 177 -12 144 -6 q 246 -18 210 -18 m 399 1265 l 213 1265 l 213 1103 l 399 1103 l 399 1265 m 685 1265 l 497 1265 l 497 1103 l 685 1103 l 685 1265 "},"ӱ":{"ha":721,"x_min":-7,"x_max":729,"o":"m 182 -251 q 340 -214 283 -251 q 429 -89 397 -176 l 729 718 l 525 718 l 368 226 l 365 226 l 203 718 l -7 718 l 244 44 q 253 0 253 24 q 229 -64 253 -39 q 161 -89 206 -89 q 110 -87 136 -89 q 61 -82 85 -85 l 61 -244 q 122 -249 92 -247 q 182 -251 151 -251 m 310 992 l 124 992 l 124 829 l 310 829 l 310 992 m 596 992 l 408 992 l 408 829 l 596 829 l 596 992 "},"Ӳ":{"ha":899,"x_min":-7,"x_max":908,"o":"m 246 -18 q 351 -3 306 -18 q 435 46 397 13 q 507 133 474 79 q 575 261 540 186 l 908 992 l 676 992 l 461 475 l 233 992 l -7 992 l 283 381 q 314 316 299 350 q 329 250 329 282 q 304 191 329 217 q 229 165 279 165 q 125 176 165 165 l 125 0 q 177 -12 144 -6 q 246 -18 210 -18 m 501 1081 l 639 1081 l 846 1278 l 628 1278 l 501 1081 m 215 1081 l 351 1081 l 558 1278 l 340 1278 l 215 1081 "},"ӳ":{"ha":721,"x_min":-7,"x_max":763,"o":"m 182 -251 q 340 -214 283 -251 q 429 -89 397 -176 l 729 718 l 525 718 l 368 226 l 365 226 l 203 718 l -7 718 l 244 44 q 253 0 253 24 q 229 -64 253 -39 q 161 -89 206 -89 q 110 -87 136 -89 q 61 -82 85 -85 l 61 -244 q 122 -249 92 -247 q 182 -251 151 -251 m 418 807 l 556 807 l 763 1004 l 544 1004 l 418 807 m 132 807 l 268 807 l 475 1004 l 257 1004 l 132 807 "},"Ӵ":{"ha":938,"x_min":56,"x_max":840,"o":"m 622 376 l 622 0 l 840 0 l 840 992 l 622 992 l 622 551 q 586 545 610 549 q 535 538 563 542 q 478 532 507 535 q 426 529 449 529 q 308 565 343 529 q 272 692 272 601 l 272 992 l 56 992 l 56 694 q 80 533 56 599 q 149 426 104 467 q 260 367 194 385 q 410 349 326 349 q 461 351 432 349 q 520 358 490 354 q 577 367 550 363 q 622 376 604 372 m 418 1265 l 232 1265 l 232 1103 l 418 1103 l 418 1265 m 704 1265 l 517 1265 l 517 1103 l 704 1103 l 704 1265 "},"ӵ":{"ha":797,"x_min":56,"x_max":722,"o":"m 525 275 l 525 0 l 722 0 l 722 718 l 525 718 l 525 417 q 492 410 513 414 q 449 403 472 406 q 403 398 426 400 q 361 396 379 396 q 274 427 296 396 q 251 536 251 458 l 251 718 l 56 718 l 56 496 q 115 311 56 379 q 296 243 175 243 q 364 247 329 243 q 430 256 399 250 q 486 266 461 261 q 525 275 511 271 m 349 992 l 163 992 l 163 829 l 349 829 l 349 992 m 635 992 l 447 992 l 447 829 l 635 829 l 635 992 "},"Ӹ":{"ha":1290,"x_min":96,"x_max":1194,"o":"m 96 992 l 96 0 l 508 0 q 656 19 589 0 q 770 77 722 38 q 844 176 818 117 q 871 318 871 236 q 844 458 871 399 q 769 557 817 518 q 658 615 722 596 q 519 633 594 633 l 314 633 l 314 992 l 96 992 m 492 178 l 314 178 l 314 463 l 490 463 q 558 455 526 463 q 612 431 589 447 q 647 387 635 414 q 660 321 660 360 q 615 210 660 242 q 492 178 571 178 m 976 992 l 976 0 l 1194 0 l 1194 992 l 976 992 m 594 1265 l 408 1265 l 408 1103 l 594 1103 l 594 1265 m 881 1265 l 693 1265 l 693 1103 l 881 1103 l 881 1265 "},"ӹ":{"ha":1081,"x_min":75,"x_max":1006,"o":"m 75 718 l 75 0 l 454 0 q 562 15 513 0 q 648 58 611 29 q 705 132 685 88 q 725 236 725 176 q 704 338 725 294 q 648 412 683 382 q 565 456 613 442 q 463 471 517 471 l 272 471 l 272 718 l 75 718 m 407 136 l 272 136 l 272 338 l 406 338 q 492 313 457 338 q 526 236 526 289 q 494 160 526 183 q 407 136 461 136 m 810 718 l 810 0 l 1006 0 l 1006 718 l 810 718 m 490 992 l 304 992 l 304 829 l 490 829 l 490 992 m 776 992 l 589 992 l 589 829 l 776 829 l 776 992 "},"–":{"ha":694,"x_min":0,"x_max":694,"o":"m 0 464 l 694 464 l 694 294 l 0 294 l 0 464 "},"—":{"ha":1389,"x_min":181,"x_max":1208,"o":"m 181 464 l 1208 464 l 1208 294 l 181 294 l 181 464 "},"‘":{"ha":386,"x_min":94,"x_max":292,"o":"m 292 546 l 94 546 l 94 758 q 108 844 93 804 q 149 915 122 885 q 212 966 175 946 q 292 992 249 986 l 292 900 q 219 847 239 882 q 200 760 200 811 l 292 760 l 292 546 "},"’":{"ha":386,"x_min":94,"x_max":292,"o":"m 94 992 l 292 992 l 292 779 q 278 693 293 733 q 238 622 264 653 q 174 572 211 592 q 94 546 138 551 l 94 638 q 167 691 147 656 q 186 778 186 726 l 94 778 l 94 992 "},"‚":{"ha":386,"x_min":94,"x_max":292,"o":"m 94 214 l 292 214 l 292 1 q 278 -83 293 -43 q 238 -153 264 -122 q 174 -205 211 -185 q 94 -231 138 -225 l 94 -139 q 167 -85 147 -121 q 186 0 186 -50 l 94 0 l 94 214 "},"“":{"ha":643,"x_min":75,"x_max":568,"o":"m 272 546 l 75 546 l 75 758 q 88 844 74 804 q 129 915 103 885 q 192 966 156 946 q 272 992 229 986 l 272 900 q 200 847 219 882 q 181 760 181 811 l 272 760 l 272 546 m 568 546 l 371 546 l 371 758 q 384 844 369 804 q 425 915 399 885 q 488 966 451 946 q 568 992 525 986 l 568 900 q 496 847 515 882 q 476 760 476 811 l 568 760 l 568 546 "},"”":{"ha":643,"x_min":75,"x_max":568,"o":"m 75 992 l 272 992 l 272 779 q 259 693 274 733 q 218 622 244 653 q 155 572 192 592 q 75 546 118 551 l 75 638 q 147 691 128 656 q 167 778 167 726 l 75 778 l 75 992 m 371 992 l 568 992 l 568 779 q 555 693 569 733 q 514 622 540 653 q 451 572 488 592 q 371 546 414 551 l 371 638 q 443 691 424 656 q 463 778 463 726 l 371 778 l 371 992 "},"„":{"ha":643,"x_min":75,"x_max":568,"o":"m 75 214 l 272 214 l 272 1 q 259 -83 274 -43 q 218 -153 244 -122 q 155 -205 192 -185 q 75 -231 118 -225 l 75 -139 q 147 -85 128 -121 q 167 0 167 -50 l 75 0 l 75 214 m 371 214 l 568 214 l 568 1 q 555 -83 569 -43 q 514 -153 540 -122 q 451 -205 488 -185 q 371 -231 414 -225 l 371 -139 q 443 -85 424 -121 q 463 0 463 -50 l 371 0 l 371 214 "},"†":{"ha":772,"x_min":33,"x_max":739,"o":"m 292 556 l 33 556 l 33 718 l 292 718 l 292 992 l 479 992 l 479 718 l 739 718 l 739 556 l 479 556 l 479 -229 l 292 -229 l 292 556 "},"‡":{"ha":772,"x_min":33,"x_max":739,"o":"m 292 38 l 33 38 l 33 200 l 292 200 l 292 556 l 33 556 l 33 718 l 292 718 l 292 992 l 479 992 l 479 718 l 739 718 l 739 556 l 479 556 l 479 200 l 739 200 l 739 38 l 479 38 l 479 -229 l 292 -229 l 292 38 "},"•":{"ha":696,"x_min":100,"x_max":596,"o":"m 100 496 q 119 592 100 547 q 172 671 139 638 q 251 724 206 704 q 347 743 296 743 q 444 724 399 743 q 523 671 489 704 q 576 592 557 638 q 596 496 596 547 q 576 399 596 444 q 523 320 557 354 q 444 267 489 286 q 347 247 399 247 q 251 267 296 247 q 172 320 206 286 q 119 399 139 354 q 100 496 100 444 "},"…":{"ha":1389,"x_min":122,"x_max":1265,"o":"m 1047 214 l 1265 214 l 1265 0 l 1047 0 l 1047 214 m 585 214 l 803 214 l 803 0 l 585 0 l 585 214 m 122 214 l 340 214 l 340 0 l 122 0 l 122 214 "},"‰":{"ha":1593,"x_min":96,"x_max":1497,"o":"m 611 215 q 623 308 611 264 q 659 386 635 353 q 722 439 683 419 q 815 458 761 458 q 910 440 872 458 q 972 388 949 421 q 1006 311 996 356 q 1017 217 1017 267 q 1005 122 1017 165 q 969 48 993 79 q 906 -1 944 17 q 814 -18 868 -18 q 664 47 717 -18 q 611 215 611 111 m 783 1003 l 901 1003 l 329 -29 l 208 -29 l 783 1003 m 221 772 q 223 713 221 743 q 233 658 225 682 q 256 619 240 635 q 299 604 272 604 q 344 618 328 604 q 367 653 360 632 q 376 701 375 675 q 376 753 376 728 q 375 807 376 781 q 367 854 374 833 q 344 888 360 875 q 301 901 329 901 q 256 889 272 901 q 232 857 240 876 q 222 815 224 838 q 221 772 221 792 m 96 749 q 108 842 96 797 q 144 919 119 886 q 207 972 168 953 q 300 992 246 992 q 395 973 357 992 q 457 922 433 954 q 491 844 481 889 q 501 750 501 800 q 490 656 501 700 q 453 581 478 613 q 391 532 429 550 q 299 514 353 514 q 149 579 201 514 q 96 749 96 644 m 1217 239 q 1219 179 1217 210 q 1228 125 1221 149 q 1252 86 1236 101 q 1294 71 1268 71 q 1340 85 1324 71 q 1363 120 1356 99 q 1372 168 1371 142 q 1372 219 1372 194 q 1371 274 1372 247 q 1363 321 1369 300 q 1340 355 1356 342 q 1297 368 1325 368 q 1252 356 1268 368 q 1228 324 1236 343 q 1218 281 1219 304 q 1217 239 1217 258 m 1092 215 q 1103 308 1092 264 q 1140 386 1115 353 q 1203 439 1164 419 q 1296 458 1242 458 q 1391 440 1353 458 q 1453 388 1429 421 q 1487 311 1476 356 q 1497 217 1497 267 q 1485 122 1497 165 q 1449 48 1474 79 q 1387 -1 1425 17 q 1294 -18 1349 -18 q 1144 47 1197 -18 q 1092 215 1092 111 m 736 239 q 738 179 736 210 q 748 125 740 149 q 772 86 756 101 q 814 71 788 71 q 859 85 843 71 q 883 120 875 99 q 891 168 890 142 q 892 219 892 194 q 890 274 892 247 q 882 321 889 300 q 860 355 875 342 q 817 368 844 368 q 772 356 788 368 q 747 324 756 343 q 738 281 739 304 q 736 239 736 258 "},"‹":{"ha":335,"x_min":58,"x_max":276,"o":"m 58 285 l 58 472 l 276 643 l 276 476 l 151 378 l 276 278 l 276 111 l 58 285 "},"›":{"ha":335,"x_min":58,"x_max":276,"o":"m 276 472 l 276 285 l 58 111 l 58 278 l 183 378 l 58 476 l 58 643 l 276 472 "},"⁄":{"ha":232,"x_min":-229,"x_max":463,"o":"m 344 1003 l 463 1003 l -108 -29 l -229 -29 l 344 1003 "},"€":{"ha":772,"x_min":21,"x_max":800,"o":"m 715 760 q 533 822 618 822 q 339 632 388 822 l 678 632 l 635 532 l 324 532 l 322 474 l 618 474 l 575 374 l 333 374 q 539 154 378 154 q 753 242 643 154 l 751 32 q 538 -22 658 -22 q 256 90 363 -22 q 129 374 158 192 l 22 374 l 65 474 l 121 474 l 121 510 q 122 532 121 529 l 21 532 l 64 632 l 135 632 q 272 897 168 800 q 547 1003 382 1003 q 800 933 664 1003 l 715 760 "},"№":{"ha":1481,"x_min":96,"x_max":1397,"o":"m 96 972 l 96 0 l 293 0 l 293 619 l 633 0 l 838 0 l 838 972 l 642 972 l 642 354 l 304 972 l 96 972 m 969 346 l 969 210 l 1388 210 l 1388 346 l 969 346 m 1171 389 q 1336 449 1275 389 q 1397 614 1397 510 q 1337 776 1397 715 q 1172 838 1276 838 q 1078 822 1121 838 q 1006 776 1036 806 q 960 706 976 747 q 943 614 943 664 q 1005 449 943 510 q 1171 389 1067 389 m 1171 492 q 1105 522 1129 492 q 1081 614 1081 551 q 1105 704 1081 674 q 1169 735 1129 735 q 1235 706 1210 735 q 1261 614 1261 676 q 1236 522 1261 551 q 1171 492 1211 492 "},"™":{"ha":1389,"x_min":86,"x_max":1289,"o":"m 553 881 l 390 881 l 390 419 l 249 419 l 249 881 l 86 881 l 86 992 l 553 992 l 553 881 m 1289 419 l 1156 419 l 1156 825 l 1153 825 l 1006 419 l 910 419 l 763 825 l 760 825 l 760 419 l 626 419 l 626 992 l 815 992 l 958 615 l 1101 992 l 1289 992 l 1289 419 "},"Ω":{"ha":1074,"x_min":75,"x_max":999,"o":"m 79 149 l 79 0 l 468 0 l 468 278 q 313 373 364 301 q 263 549 263 444 q 282 662 263 608 q 338 756 301 715 q 426 819 375 796 q 539 843 476 843 q 651 820 601 843 q 737 758 701 797 q 792 665 772 718 q 811 553 811 613 q 760 375 811 449 q 604 278 708 301 l 604 0 l 994 0 l 994 149 l 743 149 l 743 200 q 855 253 807 217 q 935 338 903 289 q 983 447 967 388 q 999 568 999 506 q 962 746 999 665 q 863 883 925 826 q 716 970 800 939 q 538 1001 632 1001 q 359 970 443 1001 q 212 881 275 939 q 112 743 149 824 q 75 565 75 663 q 91 444 75 503 q 140 338 107 386 q 219 253 172 289 q 329 200 267 218 l 329 149 l 79 149 "},"∂":{"ha":778,"x_min":49,"x_max":715,"o":"m 360 -18 q 539 29 469 -18 q 647 151 608 76 q 701 318 686 226 q 715 499 715 410 q 697 681 715 590 q 633 842 678 771 q 516 957 589 913 q 335 1001 443 1001 q 201 976 258 1001 q 85 904 143 950 l 175 801 q 253 852 215 833 q 343 871 290 871 q 442 841 403 871 q 503 765 481 811 q 534 665 525 719 q 543 564 543 611 l 543 539 q 453 592 500 574 q 351 610 407 610 q 228 587 285 610 q 133 522 172 564 q 71 424 93 481 q 49 301 49 368 q 71 174 49 232 q 134 72 93 115 q 232 6 175 29 q 360 -18 289 -18 m 364 108 q 295 124 324 108 q 249 165 267 139 q 222 224 231 192 q 213 293 213 257 q 222 365 213 331 q 253 426 232 400 q 304 469 274 453 q 376 485 335 485 q 469 463 428 485 q 542 403 510 442 q 532 297 542 350 q 501 203 522 244 q 447 135 481 161 q 364 108 413 108 "},"∆":{"ha":953,"x_min":-8,"x_max":961,"o":"m 367 992 l -8 0 l 961 0 l 590 992 l 367 992 m 693 163 l 253 163 l 475 768 l 478 768 l 693 163 "},"∏":{"ha":1040,"x_min":96,"x_max":944,"o":"m 96 1092 l 96 -297 l 283 -297 l 283 929 l 757 929 l 757 -297 l 944 -297 l 944 1092 l 96 1092 "},"∑":{"ha":858,"x_min":7,"x_max":851,"o":"m 7 -158 l 7 -297 l 851 -297 l 851 -139 l 228 -139 l 626 407 l 253 932 l 836 932 l 836 1092 l 25 1092 l 25 954 l 422 406 l 7 -158 "},"−":{"ha":833,"x_min":67,"x_max":768,"o":"m 67 425 l 768 425 l 768 276 l 67 276 l 67 425 "},"√":{"ha":785,"x_min":-7,"x_max":792,"o":"m 128 133 l 336 -297 l 494 -297 l 792 1092 l 615 1092 l 386 -32 l 215 335 l -7 233 l 56 99 l 128 133 "},"∞":{"ha":1143,"x_min":63,"x_max":1081,"o":"m 306 96 q 388 109 351 96 q 456 144 425 122 q 515 194 488 165 q 572 253 543 222 q 628 194 599 222 q 690 144 657 165 q 760 109 722 122 q 840 96 797 96 q 941 116 896 96 q 1017 172 986 136 q 1064 254 1047 207 q 1081 356 1081 301 q 1064 456 1081 410 q 1017 535 1047 501 q 942 589 986 569 q 842 608 897 608 q 759 594 797 608 q 688 558 721 581 q 627 504 656 535 q 572 442 599 474 q 516 505 544 475 q 455 558 488 535 q 384 594 422 581 q 300 608 346 608 q 200 588 244 608 q 125 534 156 568 q 78 453 94 500 q 63 353 63 407 q 79 251 63 299 q 128 170 96 204 q 204 116 160 136 q 306 96 249 96 m 304 236 q 224 268 253 236 q 194 350 194 300 q 223 433 194 396 q 300 469 251 469 q 353 458 326 469 q 403 428 379 446 q 450 388 428 410 q 489 349 472 367 q 451 309 472 329 q 407 273 431 289 q 357 247 383 257 q 304 236 331 236 m 843 236 q 788 246 814 236 q 739 272 763 256 q 694 308 715 288 q 656 349 674 328 q 693 388 672 367 q 737 428 714 410 q 785 458 760 446 q 839 469 811 469 q 920 435 890 469 q 950 351 950 400 q 922 269 950 303 q 843 236 894 236 "},"∫":{"ha":579,"x_min":0,"x_max":579,"o":"m 163 -296 q 288 -258 244 -296 q 351 -163 332 -221 q 374 -37 371 -106 q 376 93 376 32 l 376 758 q 374 863 376 811 q 371 968 371 915 q 375 995 371 981 q 396 1010 379 1010 q 416 992 410 1010 q 430 955 422 975 q 453 917 438 935 q 501 900 468 900 q 558 924 536 900 q 579 982 579 949 q 564 1031 579 1011 q 525 1065 549 1051 q 474 1084 501 1078 q 424 1090 447 1090 q 297 1056 342 1090 q 231 969 251 1022 q 206 853 210 917 q 201 728 201 789 l 201 4 q 205 -84 201 -40 q 208 -172 208 -128 q 204 -202 208 -186 q 182 -218 200 -218 q 162 -201 167 -218 q 149 -162 157 -183 q 127 -124 142 -142 q 79 -107 113 -107 q 23 -128 46 -107 q 0 -182 0 -149 q 16 -233 0 -211 q 56 -268 32 -254 q 109 -289 81 -282 q 163 -296 138 -296 "},"≈":{"ha":833,"x_min":44,"x_max":789,"o":"m 44 90 l 44 90 l 143 90 q 172 155 150 124 q 232 186 193 186 q 304 171 261 186 q 396 138 347 156 q 493 106 444 121 q 583 90 542 90 q 673 111 636 90 q 734 165 710 132 q 772 242 758 199 q 789 331 785 285 l 690 331 q 663 267 683 296 q 604 239 643 239 q 517 253 563 239 q 426 285 472 268 q 335 316 381 301 q 247 331 290 331 q 160 310 197 331 q 99 254 124 289 q 62 176 75 219 q 44 90 49 133 m 44 378 l 44 378 l 143 378 q 172 442 150 411 q 232 474 193 474 q 304 458 261 474 q 396 426 347 443 q 493 393 444 408 q 583 378 542 378 q 673 399 636 378 q 734 453 710 419 q 772 529 758 486 q 789 618 785 572 l 690 618 q 663 555 683 583 q 604 526 643 526 q 517 541 563 526 q 426 572 472 556 q 335 603 381 589 q 247 618 290 618 q 160 597 197 618 q 99 542 124 576 q 62 464 75 507 q 44 378 49 421 "},"≠":{"ha":833,"x_min":67,"x_max":768,"o":"m 147 -10 l 271 -74 l 374 128 l 768 128 l 768 276 l 449 276 l 525 425 l 768 425 l 768 574 l 600 574 l 681 731 l 557 793 l 444 574 l 67 574 l 67 425 l 368 425 l 293 276 l 67 276 l 67 128 l 217 128 l 147 -10 "},"≤":{"ha":833,"x_min":67,"x_max":768,"o":"m 67 92 l 67 -49 l 768 -49 l 768 92 l 67 92 m 67 378 l 768 139 l 768 288 l 258 450 l 768 621 l 768 769 l 67 521 l 67 378 "},"≥":{"ha":833,"x_min":68,"x_max":769,"o":"m 68 -49 l 769 -49 l 769 92 l 68 92 l 68 -49 m 68 139 l 769 378 l 769 521 l 68 769 l 68 621 l 578 450 l 68 288 l 68 139 "},"◊":{"ha":833,"x_min":90,"x_max":744,"o":"m 90 485 l 340 -49 l 493 -49 l 744 485 l 493 1018 l 340 1018 l 90 485 m 576 485 l 417 114 l 257 485 l 417 854 l 576 485 "},"":{"ha":1097,"x_min":71,"x_max":1040,"o":"m 567 817 q 665 840 594 817 q 786 864 736 864 q 935 819 869 864 q 971 789 953 806 q 1007 750 989 772 q 928 667 953 703 q 882 524 882 603 q 931 368 882 438 q 1040 281 978 300 q 1006 195 1026 239 q 956 107 985 151 q 776 -28 867 -28 q 678 -6 739 -28 q 574 15 618 15 q 474 -7 528 15 q 382 -31 415 -31 q 174 149 276 -31 q 71 499 71 326 q 149 758 71 657 q 347 858 228 858 q 471 838 399 858 q 567 817 544 817 m 779 1097 q 758 1001 779 1053 q 694 906 738 950 q 618 856 654 868 q 547 844 592 849 q 601 1023 549 947 q 775 1126 653 1099 q 778 1110 778 1117 q 779 1097 779 1103 "},"ﬁ":{"ha":849,"x_min":0,"x_max":768,"o":"m 118 586 l 0 586 l 0 718 l 118 718 l 118 774 q 178 931 118 869 q 358 992 238 992 q 411 990 385 992 q 463 986 438 988 l 463 839 q 390 843 428 843 q 333 824 350 843 q 315 761 315 806 l 315 718 l 451 718 l 451 586 l 315 586 l 315 0 l 118 0 l 118 586 m 571 718 l 768 718 l 768 0 l 571 0 l 571 718 m 768 829 l 571 829 l 571 992 l 768 992 l 768 829 "},"ﬂ":{"ha":849,"x_min":0,"x_max":768,"o":"m 118 586 l 0 586 l 0 718 l 118 718 l 118 774 q 178 931 118 869 q 358 992 238 992 q 411 990 385 992 q 463 986 438 988 l 463 839 q 390 843 428 843 q 333 824 350 843 q 315 761 315 806 l 315 718 l 451 718 l 451 586 l 315 586 l 315 0 l 118 0 l 118 586 m 571 992 l 768 992 l 768 0 l 571 0 l 571 992 "}}}
